# 3ds Max Wavefront OBJ Exporter v0.97b - (c)2007 guruware
# File Created: 20.01.2016 18:00:41

#
# object B4L1T0N003
#

v  32.2942 46.0505 1.0000
v  12.7942 46.2505 1.0000
v  32.2942 46.2505 1.0000
v  32.2942 46.0505 1.0500
v  12.7942 46.2505 1.0500
v  12.7942 46.0505 1.0500
v  32.2942 46.2505 1.0500
v  12.7942 46.0505 1.0000
v  30.8442 46.1005 2.5600
v  32.1942 46.2005 2.5600
v  32.1942 46.1005 2.5600
v  30.8442 46.2005 2.5600
v  32.2942 46.2005 2.6100
v  12.7942 46.2005 2.6100
v  32.2942 46.1005 2.6100
v  32.1942 46.1005 1.0600
v  32.2942 46.1005 1.0600
v  32.1942 46.2005 1.0600
v  29.3442 46.1005 2.5600
v  30.7442 46.2005 2.5600
v  30.7442 46.1005 2.5600
v  30.8442 46.1005 1.0600
v  30.8442 46.2005 1.0600
v  30.7442 46.1005 1.0600
v  30.7442 46.2005 1.0600
v  27.8442 46.1005 2.5600
v  29.2442 46.2005 2.5600
v  29.2442 46.1005 2.5600
v  29.3442 46.2005 2.5600
v  29.3442 46.1005 1.0600
v  29.3442 46.2005 1.0600
v  29.2442 46.2005 1.0600
v  29.2442 46.1005 1.0600
v  26.3442 46.2005 2.5600
v  27.7442 46.1005 2.5600
v  26.3442 46.1005 2.5600
v  27.8442 46.2005 2.5600
v  27.8442 46.1005 1.0600
v  27.8442 46.2005 1.0600
v  27.7442 46.2005 2.5600
v  27.7442 46.2005 1.0600
v  27.7442 46.1005 1.0600
v  24.8442 46.1005 2.5600
v  26.2442 46.2005 2.5600
v  26.2442 46.1005 2.5600
v  26.3442 46.1005 1.0600
v  26.3442 46.2005 1.0600
v  26.2442 46.2005 1.0600
v  26.2442 46.1005 1.0600
v  23.3442 46.2005 2.5600
v  24.7442 46.1005 2.5600
v  23.3442 46.1005 2.5600
v  24.8442 46.2005 2.5600
v  24.8442 46.1005 1.0600
v  24.8442 46.2005 1.0600
v  24.7442 46.2005 2.5600
v  24.7442 46.2005 1.0600
v  24.7442 46.1005 1.0600
v  21.8442 46.1005 2.5600
v  23.2442 46.2005 2.5600
v  23.2442 46.1005 2.5600
v  23.3442 46.1005 1.0600
v  23.3442 46.2005 1.0600
v  23.2442 46.2005 1.0600
v  23.2442 46.1005 1.0600
v  20.3442 46.1005 2.5600
v  21.7442 46.2005 2.5600
v  21.7442 46.1005 2.5600
v  21.7442 46.2005 1.0600
v  21.7442 46.1005 1.0600
v  21.8442 46.2005 1.0600
v  21.8442 46.1005 1.0600
v  21.8442 46.2005 2.5600
v  18.8442 46.1005 2.5600
v  20.2442 46.2005 2.5600
v  20.2442 46.1005 2.5600
v  20.2442 46.2005 1.0600
v  20.2442 46.1005 1.0600
v  20.3442 46.1005 1.0600
v  20.3442 46.2005 1.0600
v  20.3442 46.2005 2.5600
v  17.3442 46.1005 2.5600
v  18.7442 46.2005 2.5600
v  18.7442 46.1005 2.5600
v  18.7442 46.2005 1.0600
v  18.7442 46.1005 1.0600
v  18.8442 46.1005 1.0600
v  18.8442 46.2005 1.0600
v  18.8442 46.2005 2.5600
v  15.8442 46.1005 2.5600
v  17.2442 46.2005 2.5600
v  17.2442 46.1005 2.5600
v  17.2442 46.2005 1.0600
v  17.2442 46.1005 1.0600
v  17.3442 46.1005 1.0600
v  17.3442 46.2005 1.0600
v  17.3442 46.2005 2.5600
v  14.3442 46.1005 2.5600
v  15.7442 46.2005 2.5600
v  15.7442 46.1005 2.5600
v  15.7442 46.2005 1.0600
v  15.7442 46.1005 1.0600
v  15.8442 46.1005 1.0600
v  15.8442 46.2005 1.0600
v  15.8442 46.2005 2.5600
v  12.8942 46.2005 2.5600
v  14.2442 46.1005 2.5600
v  12.8942 46.1005 2.5600
v  14.2442 46.2005 2.5600
v  14.2442 46.1005 1.0600
v  14.3442 46.1005 1.0600
v  14.2442 46.2005 1.0600
v  14.3442 46.2005 1.0600
v  14.3442 46.2005 2.5600
v  12.7942 46.1005 1.0600
v  12.7942 46.2005 1.0600
v  12.8942 46.1005 1.0600
v  12.8942 46.2005 1.0600
v  32.2942 46.2005 1.0600
v  12.7942 46.1005 2.6100
# 120 vertices

vn 0.0000 0.0000 -1.0000
vn 0.0000 0.0000 1.0000
vn 1.0000 0.0000 0.0000
vn -0.0000 1.0000 0.0000
vn -1.0000 -0.0000 0.0000
vn 0.0000 -1.0000 0.0000
vn 0.0000 -1.0000 -0.0000
vn 1.0000 0.0000 -0.0000
vn 0.0000 -0.7071 -0.7071
vn -0.0000 0.7071 -0.7071
vn 0.0000 1.0000 0.0000
vn -0.0000 -1.0000 -0.0000
# 12 vertex normals

vt 1.0000 0.0000 0.0000
vt 0.0000 1.0000 0.0000
vt 0.0000 0.0000 0.0000
vt 1.0000 1.0000 0.0000
vt 1.0000 0.0744 0.0000
vt 0.0000 0.0051 0.0000
vt 1.0000 0.0051 0.0000
vt 0.0744 1.0000 0.0000
vt 0.0051 1.0000 0.0000
vt 0.9256 1.0000 0.0000
vt 0.9949 1.0000 0.0000
vt 1.0000 1.0333 0.0000
vt -0.0000 1.0333 0.0000
vt 1.0000 -0.0000 0.0000
vt 1.0000 0.1513 0.0000
vt 0.0000 0.0795 0.0000
vt 1.0000 0.0795 0.0000
vt 0.0000 -0.0000 0.0000
vt 1.0000 0.2282 0.0000
vt 0.0000 0.1564 0.0000
vt 1.0000 0.1564 0.0000
vt -0.0000 0.0000 0.0000
vt 0.0000 0.3051 0.0000
vt 1.0000 0.2333 0.0000
vt 1.0000 0.3051 0.0000
vt 1.0000 0.3821 0.0000
vt 0.0000 0.3103 0.0000
vt 1.0000 0.3103 0.0000
vt 0.0000 0.4590 0.0000
vt 1.0000 0.3872 0.0000
vt 1.0000 0.4590 0.0000
vt 1.0000 0.5359 0.0000
vt 0.0000 0.4641 0.0000
vt 1.0000 0.4641 0.0000
vt 1.0000 0.6128 0.0000
vt 0.0000 0.5410 0.0000
vt 1.0000 0.5410 0.0000
vt 1.0000 0.6897 0.0000
vt 0.0000 0.6179 0.0000
vt 1.0000 0.6179 0.0000
vt 1.0000 0.7667 0.0000
vt 0.0000 0.6949 0.0000
vt 1.0000 0.6949 0.0000
vt 1.0000 0.8436 0.0000
vt 0.0000 0.7718 0.0000
vt 1.0000 0.7718 0.0000
vt 1.0000 0.9205 0.0000
vt 0.0000 0.8487 0.0000
vt 1.0000 0.8487 0.0000
vt 0.0000 0.9949 0.0000
vt 1.0000 0.9256 0.0000
vt 1.0000 0.9949 0.0000
vt 0.0000 1.0333 0.0000
vt 0.0000 0.0744 0.0000
vt 0.6179 31.0000 0.0000
vt 0.6128 1.0000 0.0000
vt 0.6128 31.0000 0.0000
vt 0.6179 1.0000 0.0000
vt 0.6949 31.0000 0.0000
vt 0.6897 1.0000 0.0000
vt 0.6897 31.0000 0.0000
vt 0.6949 1.0000 0.0000
vt 0.9949 31.0000 0.0000
vt 1.0000 31.0000 0.0000
vt 0.5410 31.0000 0.0000
vt 0.5359 1.0000 0.0000
vt 0.5359 31.0000 0.0000
vt 0.5410 1.0000 0.0000
vt 0.7718 31.0000 0.0000
vt 0.7667 1.0000 0.0000
vt 0.7667 31.0000 0.0000
vt 0.7718 1.0000 0.0000
vt 0.8487 31.0000 0.0000
vt 0.8436 1.0000 0.0000
vt 0.8436 31.0000 0.0000
vt 0.8487 1.0000 0.0000
vt 0.9256 31.0000 0.0000
vt 0.9205 1.0000 0.0000
vt 0.9205 31.0000 0.0000
vt 0.4641 1.0000 0.0000
vt 0.4590 1.0000 0.0000
vt 0.3872 1.0000 0.0000
vt 0.3821 1.0000 0.0000
vt 0.3103 1.0000 0.0000
vt 0.3051 1.0000 0.0000
vt 0.2333 1.0000 0.0000
vt 0.2282 1.0000 0.0000
vt 0.1564 1.0000 0.0000
vt 0.1513 1.0000 0.0000
vt 0.0795 1.0000 0.0000
vt 0.0000 31.0000 0.0000
vt 0.0051 31.0000 0.0000
vt 0.0795 31.0000 0.0000
vt 0.0744 31.0000 0.0000
vt 0.3103 31.0000 0.0000
vt 0.3051 31.0000 0.0000
vt 0.2333 31.0000 0.0000
vt 0.2282 31.0000 0.0000
vt 0.3872 31.0000 0.0000
vt 0.3821 31.0000 0.0000
vt 0.4641 31.0000 0.0000
vt 0.4590 31.0000 0.0000
vt 0.1564 31.0000 0.0000
vt 0.1513 31.0000 0.0000
vt 0.0000 0.1513 0.0000
vt -0.0000 1.0000 0.0000
vt 0.0000 0.2282 0.0000
vt 0.0000 0.2333 0.0000
vt 0.0000 0.3821 0.0000
vt 0.0000 0.3872 0.0000
vt 0.0000 0.5359 0.0000
vt 0.0000 0.6128 0.0000
vt 0.0000 0.6897 0.0000
vt 0.0000 0.7667 0.0000
vt 0.0000 0.8436 0.0000
vt 0.0000 0.9205 0.0000
vt 0.0000 0.9256 0.0000
# 117 texture coords

g B4L1T0N003
s 2
f 1/1/1 2/2/1 3/3/1 
s 4
f 4/3/2 5/4/2 6/2/2 
s 8
f 1/3/3 7/4/3 4/2/3 
s 16
f 3/3/4 5/4/4 7/2/4 
s 32
f 2/3/5 6/4/5 5/2/5 
s 64
f 8/3/6 4/4/6 6/2/6 
s 2
f 2/2/1 1/1/1 8/4/1 
s 4
f 5/4/2 4/3/2 7/1/2 
s 8
f 7/4/3 1/3/3 3/1/3 
s 16
f 5/4/4 3/3/4 2/1/4 
s 32
f 6/4/5 2/3/5 8/1/5 
s 64
f 4/4/6 8/3/6 1/1/6 
s 1
f 9/5/1 10/6/1 11/7/1 
s 64
f 12/8/4 13/3/4 10/9/4 
s 1
f 14/4/2 15/3/2 13/1/2 
s 16
f 15/1/7 9/10/7 11/11/7 
s 4
f 10/2/5 16/1/5 11/4/5 
f 17/3/8 13/12/8 15/13/8 
s 1
f 18/2/1 17/14/1 16/4/1 
f 19/15/9 20/16/1 21/17/1 
s 4
f 12/4/3 22/3/3 23/1/3 
f 20/2/5 24/1/5 21/4/5 
s 1
f 22/14/1 25/2/1 23/18/1 
f 26/19/9 27/20/10 28/21/9 
s 4
f 29/4/3 30/3/3 31/1/3 
s 1
f 27/4/10 31/22/4 32/1/4 
s 4
f 27/2/5 33/1/5 28/4/5 
s 2
f 30/14/1 32/2/1 31/18/1 
s 1
f 19/4/9 33/22/7 30/1/7 
f 34/23/10 35/24/9 36/25/9 
s 4
f 37/4/3 38/3/3 39/1/3 
s 1
f 40/4/10 39/22/4 41/1/4 
s 4
f 40/2/5 42/1/5 35/4/5 
s 2
f 38/14/1 41/2/1 39/18/1 
s 1
f 26/4/9 42/22/7 38/1/7 
f 43/26/9 44/27/10 45/28/9 
s 4
f 34/4/3 46/3/3 47/1/3 
s 1
f 44/4/10 47/3/4 48/1/4 
s 4
f 44/2/5 49/1/5 45/4/5 
s 2
f 46/1/1 48/2/1 47/3/1 
s 1
f 36/4/9 49/3/7 46/1/7 
f 50/29/10 51/30/9 52/31/9 
s 4
f 53/4/3 54/3/3 55/1/3 
s 1
f 56/4/10 55/3/4 57/1/4 
s 4
f 56/2/5 58/1/5 51/4/5 
s 2
f 54/1/1 57/2/1 55/3/1 
s 1
f 43/4/9 58/3/7 54/1/7 
f 59/32/1 60/33/10 61/34/9 
s 4
f 50/4/3 62/3/3 63/1/3 
s 1
f 60/4/10 63/22/4 64/1/4 
s 4
f 60/2/5 65/1/5 61/4/5 
s 2
f 65/4/1 63/3/1 62/1/1 
s 1
f 52/4/9 65/22/7 62/1/7 
f 66/35/1 67/36/1 68/37/1 
s 4
f 68/4/5 69/3/5 70/1/5 
s 1
f 70/4/1 71/3/1 72/1/1 
s 2
f 73/4/3 72/3/3 71/1/3 
s 1
f 74/38/1 75/39/1 76/40/1 
s 4
f 76/4/5 77/3/5 78/1/5 
s 1
f 79/1/1 77/2/1 80/3/1 
s 2
f 81/4/3 79/3/3 80/1/3 
s 1
f 82/41/1 83/42/1 84/43/1 
s 4
f 84/4/5 85/3/5 86/1/5 
s 1
f 87/1/1 85/2/1 88/3/1 
s 2
f 89/4/3 87/3/3 88/1/3 
s 1
f 90/44/1 91/45/1 92/46/1 
s 4
f 92/4/5 93/3/5 94/1/5 
s 1
f 95/14/1 93/2/1 96/18/1 
s 2
f 97/4/3 95/3/3 96/1/3 
s 1
f 98/47/1 99/48/1 100/49/1 
s 4
f 100/4/5 101/3/5 102/1/5 
s 1
f 103/14/1 101/2/1 104/18/1 
s 2
f 105/4/3 103/3/3 104/1/3 
s 1
f 106/50/1 107/51/1 108/52/1 
s 4
f 109/2/5 110/1/5 107/4/5 
s 1
f 111/14/1 112/2/1 113/18/1 
s 2
f 114/4/3 111/3/3 113/1/3 
s 4
f 115/1/5 14/53/5 116/3/5 
s 1
f 117/14/1 116/2/1 118/18/1 
s 2
f 106/4/3 117/3/3 118/1/3 
s 1
f 10/6/1 9/5/1 12/54/1 
s 64
f 77/55/4 81/56/4 80/57/4 
f 75/58/4 81/56/4 77/55/4 
f 85/59/4 89/60/4 88/61/4 
f 83/62/4 89/60/4 85/59/4 
f 14/1/11 118/63/11 116/64/4 
f 14/1/11 106/11/11 118/63/11 
f 13/3/4 106/11/11 14/1/11 
f 13/3/4 109/10/4 106/11/11 
f 69/65/4 73/66/4 71/67/4 
f 67/68/4 73/66/4 69/65/4 
f 93/69/4 97/70/4 96/71/4 
f 91/72/4 97/70/4 93/69/4 
f 101/73/4 105/74/4 104/75/4 
f 99/76/4 105/74/4 101/73/4 
f 112/77/4 114/78/4 113/79/4 
f 109/10/4 114/78/4 112/77/4 
f 13/3/4 114/78/4 109/10/4 
f 13/3/4 99/76/4 114/78/4 
f 13/3/4 105/74/4 99/76/4 
f 13/3/4 91/72/4 105/74/4 
f 13/3/4 97/70/4 91/72/4 
f 13/3/4 83/62/4 97/70/4 
f 13/3/4 89/60/4 83/62/4 
f 13/3/4 75/58/4 89/60/4 
f 13/3/4 81/56/4 75/58/4 
f 13/3/4 67/68/4 81/56/4 
f 13/3/4 73/66/4 67/68/4 
f 13/3/4 60/80/4 73/66/4 
f 13/3/4 50/81/4 60/80/4 
f 13/3/4 56/82/4 50/81/4 
f 13/3/4 53/83/4 56/82/4 
f 13/3/4 44/84/4 53/83/4 
f 13/3/4 34/85/4 44/84/4 
f 13/3/4 40/86/4 34/85/4 
f 13/3/4 37/87/4 40/86/4 
f 13/3/4 27/88/4 37/87/4 
f 13/3/4 29/89/4 27/88/4 
f 13/3/4 20/90/4 29/89/4 
f 10/9/4 119/91/4 18/92/4 
f 10/9/4 13/3/4 119/91/4 
f 25/93/4 12/8/4 23/94/4 
f 20/90/4 12/8/4 25/93/4 
f 13/3/4 12/8/4 20/90/4 
s 1
f 15/3/2 14/4/2 120/2/2 
s 16
f 87/95/6 84/85/6 86/96/6 
f 74/84/6 84/85/6 87/95/6 
f 95/97/6 92/87/6 94/98/6 
f 82/86/6 92/87/6 95/97/6 
f 117/92/12 120/3/12 115/91/7 
f 108/9/12 120/3/12 117/92/12 
f 108/9/12 15/1/7 120/3/12 
f 107/8/7 15/1/7 108/9/12 
f 79/99/6 76/83/6 78/100/6 
f 66/82/6 76/83/6 79/99/6 
f 72/101/6 68/81/6 70/102/6 
f 59/80/6 68/81/6 72/101/6 
f 103/103/6 100/89/6 102/104/6 
f 90/88/6 100/89/6 103/103/6 
f 22/77/7 21/78/7 24/79/7 
f 9/10/7 21/78/7 22/77/7 
f 17/64/7 11/11/7 16/63/7 
f 15/1/7 11/11/7 17/64/7 
f 98/90/7 110/94/7 111/93/7 
f 98/90/7 107/8/7 110/94/7 
f 98/90/7 15/1/7 107/8/7 
f 100/89/6 15/1/7 98/90/7 
f 90/88/6 15/1/7 100/89/6 
f 92/87/6 15/1/7 90/88/6 
f 82/86/6 15/1/7 92/87/6 
f 84/85/6 15/1/7 82/86/6 
f 74/84/6 15/1/7 84/85/6 
f 76/83/6 15/1/7 74/84/6 
f 66/82/6 15/1/7 76/83/6 
f 68/81/6 15/1/7 66/82/6 
f 59/80/6 15/1/7 68/81/6 
f 61/66/6 15/1/7 59/80/6 
f 52/68/6 15/1/7 61/66/6 
f 51/56/6 15/1/7 52/68/6 
f 43/58/6 15/1/7 51/56/6 
f 45/60/6 15/1/7 43/58/6 
f 36/62/6 15/1/7 45/60/6 
f 35/70/6 15/1/7 36/62/6 
f 26/72/6 15/1/7 35/70/6 
f 28/74/6 15/1/7 26/72/6 
f 19/76/6 15/1/7 28/74/6 
f 21/78/7 15/1/7 19/76/6 
f 9/10/7 15/1/7 21/78/7 
s 4
f 16/1/5 10/2/5 18/3/5 
f 13/12/8 17/3/8 119/1/8 
s 1
f 17/14/1 18/2/1 119/18/1 
f 20/16/1 19/15/9 29/105/10 
s 4
f 22/3/3 12/4/3 9/106/3 
f 24/1/5 20/2/5 25/3/5 
s 1
f 25/2/1 22/14/1 24/4/1 
f 27/20/10 26/19/9 37/107/10 
s 4
f 30/3/3 29/4/3 19/106/3 
s 1
f 31/22/4 27/4/10 29/106/10 
s 4
f 33/1/5 27/2/5 32/3/5 
s 2
f 32/2/1 30/14/1 33/4/1 
s 1
f 33/22/7 19/4/9 28/106/9 
f 35/24/9 34/23/10 40/108/10 
s 4
f 38/3/3 37/4/3 26/106/3 
s 1
f 39/22/4 40/4/10 37/106/10 
s 4
f 42/1/5 40/2/5 41/3/5 
s 2
f 41/2/1 38/14/1 42/4/1 
s 1
f 42/22/7 26/4/9 35/106/9 
f 44/27/10 43/26/9 53/109/10 
s 4
f 46/3/3 34/4/3 36/106/3 
s 1
f 47/3/4 44/4/10 34/2/10 
s 4
f 49/1/5 44/2/5 48/3/5 
s 2
f 48/2/1 46/1/1 49/4/1 
s 1
f 49/3/7 36/4/9 45/2/9 
f 51/30/9 50/29/10 56/110/10 
s 4
f 54/3/3 53/4/3 43/106/3 
s 1
f 55/3/4 56/4/10 53/2/10 
s 4
f 58/1/5 56/2/5 57/3/5 
s 2
f 57/2/1 54/1/1 58/4/1 
s 1
f 58/3/7 43/4/9 51/2/9 
f 60/33/10 59/32/1 73/111/1 
s 4
f 62/3/3 50/4/3 52/106/3 
s 1
f 63/22/4 60/4/10 50/106/10 
s 4
f 65/1/5 60/2/5 64/3/5 
s 2
f 63/3/1 65/4/1 64/2/1 
s 1
f 65/22/7 52/4/9 61/106/9 
f 67/36/1 66/35/1 81/112/1 
s 4
f 69/3/5 68/4/5 67/2/5 
s 1
f 71/3/1 70/4/1 69/2/1 
s 2
f 72/3/3 73/4/3 59/2/3 
s 1
f 75/39/1 74/38/1 89/113/1 
s 4
f 77/3/5 76/4/5 75/2/5 
s 1
f 77/2/1 79/1/1 78/4/1 
s 2
f 79/3/3 81/4/3 66/2/3 
s 1
f 83/42/1 82/41/1 97/114/1 
s 4
f 85/3/5 84/4/5 83/2/5 
s 1
f 85/2/1 87/1/1 86/4/1 
s 2
f 87/3/3 89/4/3 74/2/3 
s 1
f 91/45/1 90/44/1 105/115/1 
s 4
f 93/3/5 92/4/5 91/2/5 
s 1
f 93/2/1 95/14/1 94/4/1 
s 2
f 95/3/3 97/4/3 82/2/3 
s 1
f 99/48/1 98/47/1 114/116/1 
s 4
f 101/3/5 100/4/5 99/2/5 
s 1
f 101/2/1 103/14/1 102/4/1 
s 2
f 103/3/3 105/4/3 90/2/3 
s 1
f 107/51/1 106/50/1 109/117/1 
s 4
f 110/1/5 109/2/5 112/3/5 
s 1
f 112/2/1 111/14/1 110/4/1 
s 2
f 111/3/3 114/4/3 98/106/3 
s 4
f 14/53/5 115/1/5 120/12/5 
s 1
f 116/2/1 117/14/1 115/4/1 
s 2
f 117/3/3 106/4/3 108/106/3 
# 232 faces

