# 3ds Max Wavefront OBJ Exporter v0.97b - (c)2007 guruware
# File Created: 20.01.2016 00:45:52

#
# object B4L3T0N005
#

v  51.7942 46.0255 0.9897
v  12.7942 46.2255 0.9897
v  51.7942 46.2255 0.9897
v  12.7942 46.0255 1.0397
v  15.7442 46.0755 1.0397
v  14.3442 46.0755 1.0397
v  51.7942 46.0755 1.0397
v  51.7942 46.0255 1.0397
v  51.7942 46.2255 1.0397
v  12.7942 46.0255 0.9897
v  23.3442 46.0755 1.0397
v  23.3442 46.1755 2.5397
v  23.3442 46.0755 2.5397
v  23.2442 46.0755 1.0397
v  23.2442 46.0755 2.5397
v  23.2442 46.1755 1.0397
v  23.2442 46.1755 2.5397
v  23.3442 46.1755 1.0397
v  24.8442 46.0755 1.0397
v  24.8442 46.1755 2.5397
v  24.8442 46.0755 2.5397
v  24.7442 46.0755 1.0397
v  24.7442 46.0755 2.5397
v  24.7442 46.1755 1.0397
v  24.7442 46.1755 2.5397
v  24.8442 46.1755 1.0397
v  26.3442 46.0755 1.0397
v  26.3442 46.1755 2.5397
v  26.3442 46.0755 2.5397
v  26.2442 46.0755 1.0397
v  26.2442 46.0755 2.5397
v  26.2442 46.1755 1.0397
v  26.2442 46.1755 2.5397
v  26.3442 46.1755 1.0397
v  27.8442 46.0755 1.0397
v  27.8442 46.1755 2.5397
v  27.8442 46.0755 2.5397
v  27.7442 46.0755 1.0397
v  27.7442 46.0755 2.5397
v  27.7442 46.1755 1.0397
v  27.7442 46.1755 2.5397
v  27.8442 46.1755 1.0397
v  29.3442 46.0755 1.0397
v  29.3442 46.1755 2.5397
v  29.3442 46.0755 2.5397
v  29.2442 46.0755 2.5397
v  29.2442 46.0755 1.0397
v  29.2442 46.1755 1.0397
v  29.2442 46.1755 2.5397
v  29.3442 46.1755 1.0397
v  30.8442 46.0755 1.0397
v  30.8442 46.1755 2.5397
v  30.8442 46.0755 2.5397
v  30.7442 46.0755 2.5397
v  30.7442 46.0755 1.0397
v  30.7442 46.1755 1.0397
v  30.7442 46.1755 2.5397
v  30.8442 46.1755 1.0397
v  32.3442 46.0755 1.0397
v  32.3442 46.1755 2.5397
v  32.3442 46.0755 2.5397
v  32.2442 46.0755 1.0397
v  32.2442 46.0755 2.5397
v  32.2442 46.1755 1.0397
v  32.2442 46.1755 2.5397
v  32.3442 46.1755 1.0397
v  33.8442 46.0755 1.0397
v  33.8442 46.1755 2.5397
v  33.8442 46.0755 2.5397
v  33.7442 46.0755 2.5397
v  33.7442 46.0755 1.0397
v  33.7442 46.1755 1.0397
v  33.7442 46.1755 2.5397
v  33.8442 46.1755 1.0397
v  35.3442 46.0755 1.0397
v  35.3442 46.1755 2.5397
v  35.3442 46.0755 2.5397
v  35.2442 46.0755 2.5397
v  35.2442 46.0755 1.0397
v  35.2442 46.1755 1.0397
v  35.2442 46.1755 2.5397
v  35.3442 46.1755 1.0397
v  36.8442 46.0755 1.0397
v  36.8442 46.1755 2.5397
v  36.8442 46.0755 2.5397
v  36.7442 46.0755 1.0397
v  36.7442 46.0755 2.5397
v  36.7442 46.1755 1.0397
v  36.7442 46.1755 2.5397
v  36.8442 46.1755 1.0397
v  38.3442 46.0755 1.0397
v  38.3442 46.1755 2.5397
v  38.3442 46.0755 2.5397
v  38.2442 46.0755 1.0397
v  38.2442 46.0755 2.5397
v  38.2442 46.1755 1.0397
v  38.2442 46.1755 2.5397
v  38.3442 46.1755 1.0397
v  39.8442 46.0755 1.0397
v  39.8442 46.1755 2.5397
v  39.8442 46.0755 2.5397
v  39.7442 46.0755 1.0397
v  39.7442 46.0755 2.5397
v  39.7442 46.1755 1.0397
v  39.7442 46.1755 2.5397
v  39.8442 46.1755 1.0397
v  41.3442 46.0755 1.0397
v  41.3442 46.1755 2.5397
v  41.3442 46.0755 2.5397
v  41.2442 46.0755 1.0397
v  41.2442 46.0755 2.5397
v  41.2442 46.1755 1.0397
v  41.2442 46.1755 2.5397
v  41.3442 46.1755 1.0397
v  42.7442 46.1755 1.0397
v  42.7442 46.0755 2.5397
v  42.7442 46.1755 2.5397
v  42.8442 46.1755 1.0397
v  42.8442 46.1755 2.5397
v  42.8442 46.0755 1.0397
v  42.8442 46.0755 2.5397
v  42.7442 46.0755 1.0397
v  44.2442 46.1755 1.0397
v  44.2442 46.0755 2.5397
v  44.2442 46.1755 2.5397
v  44.3442 46.1755 1.0397
v  44.3442 46.1755 2.5397
v  44.3442 46.0755 1.0397
v  44.3442 46.0755 2.5397
v  44.2442 46.0755 1.0397
v  45.7442 46.1755 1.0397
v  45.7442 46.0755 2.5397
v  45.7442 46.1755 2.5397
v  45.8442 46.1755 1.0397
v  45.8442 46.1755 2.5397
v  45.8442 46.0755 1.0397
v  45.8442 46.0755 2.5397
v  45.7442 46.0755 1.0397
v  47.2442 46.1755 1.0397
v  47.2442 46.0755 2.5397
v  47.2442 46.1755 2.5397
v  47.3442 46.1755 1.0397
v  47.3442 46.1755 2.5397
v  47.3442 46.0755 1.0397
v  47.3442 46.0755 2.5397
v  47.2442 46.0755 1.0397
v  48.7442 46.1755 1.0397
v  48.7442 46.0755 2.5397
v  48.7442 46.1755 2.5397
v  48.8442 46.1755 2.5397
v  48.8442 46.1755 1.0397
v  48.8442 46.0755 1.0397
v  48.8442 46.0755 2.5397
v  48.7442 46.0755 1.0397
v  50.2442 46.1755 1.0397
v  50.2442 46.0755 2.5397
v  50.2442 46.1755 2.5397
v  50.3442 46.1755 2.5397
v  50.3442 46.1755 1.0397
v  50.3442 46.0755 1.0397
v  50.3442 46.0755 2.5397
v  50.2442 46.0755 1.0397
v  51.6942 46.1755 1.0397
v  51.6942 46.0755 2.5397
v  51.6942 46.1755 2.5397
v  51.7942 46.1755 2.5397
v  51.7942 46.1755 1.0397
v  51.7942 46.0755 2.5397
v  51.6942 46.0755 1.0397
v  21.8442 46.0755 1.0397
v  21.8442 46.1755 2.5397
v  21.8442 46.0755 2.5397
v  21.7442 46.0755 1.0397
v  21.7442 46.0755 2.5397
v  21.7442 46.1755 1.0397
v  21.7442 46.1755 2.5397
v  21.8442 46.1755 1.0397
v  20.3442 46.0755 1.0397
v  20.3442 46.1755 2.5397
v  20.3442 46.0755 2.5397
v  20.2442 46.0755 1.0397
v  20.2442 46.0755 2.5397
v  20.2442 46.1755 1.0397
v  20.2442 46.1755 2.5397
v  20.3442 46.1755 1.0397
v  18.8442 46.0755 1.0397
v  18.8442 46.1755 2.5397
v  18.8442 46.0755 2.5397
v  18.7442 46.0755 1.0397
v  18.7442 46.0755 2.5397
v  18.7442 46.1755 1.0397
v  18.7442 46.1755 2.5397
v  18.8442 46.1755 1.0397
v  17.3442 46.0755 1.0397
v  17.3442 46.1755 2.5397
v  17.3442 46.0755 2.5397
v  17.2442 46.0755 1.0397
v  17.2442 46.0755 2.5397
v  17.2442 46.1755 1.0397
v  17.2442 46.1755 2.5397
v  17.3442 46.1755 1.0397
v  15.8442 46.0755 1.0397
v  15.8442 46.1755 2.5397
v  15.8442 46.0755 2.5397
v  15.7442 46.0755 2.5397
v  15.7442 46.1755 1.0397
v  15.7442 46.1755 2.5397
v  15.8442 46.1755 1.0397
v  14.3442 46.1755 2.5397
v  14.3442 46.0755 2.5397
v  14.2442 46.0755 2.5397
v  14.2442 46.0755 1.0397
v  14.2442 46.1755 1.0397
v  14.2442 46.1755 2.5397
v  14.3442 46.1755 1.0397
v  12.8942 46.0755 1.0397
v  12.8942 46.1755 2.5397
v  12.8942 46.0755 2.5397
v  12.7942 46.0755 1.0397
v  12.7942 46.0755 2.5397
v  12.7942 46.1755 1.0397
v  12.7942 46.1755 2.5397
v  12.8942 46.1755 1.0397
v  12.7942 46.2255 1.0397
v  51.7942 46.0755 2.5497
v  12.7942 46.1755 2.5497
v  51.7942 46.1755 2.5497
v  51.7942 46.1755 2.5997
v  12.7942 46.1755 2.5997
v  51.7942 46.0755 2.5997
v  12.7942 46.0755 2.5497
v  12.7942 46.0755 2.5997
# 232 vertices

vn 0.0000 0.0000 -1.0000
vn 0.0000 0.0000 1.0000
vn 1.0000 0.0000 0.0000
vn -0.0000 1.0000 0.0000
vn 0.0000 -1.0000 0.0000
vn -1.0000 -0.0000 0.0000
vn -0.0000 1.0000 -0.0000
vn -1.0000 -0.0000 -0.0000
# 8 vertex normals

vt 1.0000 0.0000 0.0000
vt 0.0000 1.0000 0.0000
vt 0.0000 0.0000 0.0000
vt 0.2500 0.9244 0.0000
vt 0.2500 0.9603 0.0000
vt 0.2500 1.0000 0.0000
vt 1.0000 1.0000 0.0000
vt -0.0000 0.0000 0.0000
vt -0.0000 1.0000 0.0000
vt 0.0000 -0.0000 0.0000
vt 1.0000 -0.0000 0.0000
vt -0.0000 -0.0000 0.0000
vt -0.0002 0.0000 0.0000
vt 0.2500 0.0026 0.0000
vt 0.2500 0.0000 0.0000
vt 0.2500 0.0372 0.0000
vt 0.7500 0.0026 0.0000
vt 0.7500 0.0372 0.0000
vt 0.2500 0.0397 0.0000
vt 0.7500 0.9244 0.0000
vt 0.7500 0.9603 0.0000
vt 0.2500 0.2679 0.0000
vt 0.7500 0.2321 0.0000
vt 0.7500 0.2679 0.0000
vt 0.2500 0.2321 0.0000
vt 0.7500 0.7679 0.0000
vt 0.2500 0.7321 0.0000
vt 0.7500 0.7321 0.0000
vt 0.2500 0.7679 0.0000
vt 0.7500 0.1551 0.0000
vt 0.2500 0.1910 0.0000
vt 0.2500 0.1551 0.0000
vt 0.7500 0.1910 0.0000
vt 0.7500 0.1167 0.0000
vt 0.2500 0.1526 0.0000
vt 0.2500 0.1167 0.0000
vt 0.7500 0.1526 0.0000
vt 0.2500 0.2295 0.0000
vt 0.7500 0.1936 0.0000
vt 0.7500 0.2295 0.0000
vt 0.2500 0.1936 0.0000
vt 0.7500 0.0782 0.0000
vt 0.2500 0.1141 0.0000
vt 0.2500 0.0782 0.0000
vt 0.7500 0.1141 0.0000
vt 0.2500 0.9974 0.0000
vt 0.7500 0.9974 0.0000
vt 0.7500 1.0000 0.0000
vt 0.7500 0.0000 0.0000
vt 0.2500 0.9628 0.0000
vt 0.7500 0.9628 0.0000
vt 0.7500 0.9218 0.0000
vt 0.2500 0.7705 0.0000
vt 0.7500 0.8064 0.0000
vt 0.2500 0.8064 0.0000
vt 0.7500 0.7705 0.0000
vt 0.2500 0.2705 0.0000
vt 0.7500 0.3064 0.0000
vt 0.2500 0.3064 0.0000
vt 0.7500 0.2705 0.0000
vt 0.7500 0.3449 0.0000
vt 0.2500 0.3090 0.0000
vt 0.7500 0.3090 0.0000
vt 0.2500 0.3449 0.0000
vt 0.7500 0.3833 0.0000
vt 0.2500 0.3474 0.0000
vt 0.7500 0.3474 0.0000
vt 0.2500 0.3833 0.0000
vt 0.7500 0.6526 0.0000
vt 0.2500 0.6167 0.0000
vt 0.7500 0.6167 0.0000
vt 0.2500 0.6526 0.0000
vt 0.7500 0.6910 0.0000
vt 0.2500 0.6551 0.0000
vt 0.7500 0.6551 0.0000
vt 0.2500 0.6910 0.0000
vt 0.7500 0.7295 0.0000
vt 0.2500 0.6936 0.0000
vt 0.7500 0.6936 0.0000
vt 0.2500 0.7295 0.0000
vt 0.7500 0.8449 0.0000
vt 0.2500 0.8090 0.0000
vt 0.7500 0.8090 0.0000
vt 0.2500 0.8449 0.0000
vt 0.7500 0.8833 0.0000
vt 0.2500 0.8474 0.0000
vt 0.7500 0.8474 0.0000
vt 0.2500 0.8833 0.0000
vt 0.2500 0.5782 0.0000
vt 0.7500 0.6141 0.0000
vt 0.2500 0.6141 0.0000
vt 0.7500 0.5782 0.0000
vt 0.7500 0.4218 0.0000
vt 0.2500 0.3859 0.0000
vt 0.7500 0.3859 0.0000
vt 0.2500 0.4218 0.0000
vt 0.7500 0.5372 0.0000
vt 0.2500 0.5013 0.0000
vt 0.7500 0.5013 0.0000
vt 0.2500 0.5372 0.0000
vt 0.2500 0.4628 0.0000
vt 0.7500 0.4987 0.0000
vt 0.2500 0.4987 0.0000
vt 0.7500 0.4628 0.0000
vt 0.2500 0.4244 0.0000
vt 0.7500 0.4603 0.0000
vt 0.2500 0.4603 0.0000
vt 0.7500 0.4244 0.0000
vt 0.2500 0.5397 0.0000
vt 0.7500 0.5756 0.0000
vt 0.2500 0.5756 0.0000
vt 0.7500 0.5397 0.0000
vt 0.2500 0.8859 0.0000
vt 0.2500 0.9218 0.0000
vt 0.7500 0.8859 0.0000
vt 0.7500 0.0756 0.0000
vt 0.7500 0.0397 0.0000
vt 0.2500 0.0756 0.0000
vt 1.0002 0.0000 0.0000
vt -0.5000 -0.0333 0.0000
vt -0.5000 0.0000 0.0000
vt 1.5000 -0.0333 0.0000
vt 1.5000 0.0000 0.0000
# 123 texture coords

g B4L3T0N005
s 2
f 1/1/1 2/2/1 3/3/1 
s 4
f 4/2/2 5/4/2 6/5/2 
s 8
f 1/3/3 7/6/3 8/2/3 
s 16
f 2/1/4 9/2/4 3/3/4 
s 64
f 1/1/5 4/2/5 10/3/5 
s 1
f 11/3/3 12/7/3 13/2/3 
s 2
f 14/8/5 13/7/5 15/9/5 
s 1
f 16/3/6 15/7/6 17/2/6 
s 4
f 17/7/2 13/10/2 12/11/2 
s 2
f 18/8/4 17/7/4 12/9/4 
s 1
f 19/3/3 20/7/3 21/2/3 
s 2
f 22/8/5 21/7/5 23/9/5 
s 1
f 24/3/6 23/7/6 25/2/6 
s 4
f 25/7/2 21/10/2 20/11/2 
s 2
f 26/8/4 25/7/4 20/9/4 
s 1
f 27/3/3 28/7/3 29/2/3 
s 2
f 30/8/5 29/7/5 31/9/5 
s 1
f 32/3/6 31/7/6 33/2/6 
s 4
f 33/7/2 29/10/2 28/11/2 
s 2
f 34/8/4 33/7/4 28/9/4 
s 1
f 35/3/3 36/7/3 37/2/3 
s 2
f 38/8/5 37/7/5 39/9/5 
s 1
f 40/3/6 39/7/6 41/2/6 
s 4
f 41/7/2 37/10/2 36/11/2 
s 2
f 42/8/4 41/7/4 36/9/4 
s 1
f 43/3/3 44/7/3 45/2/3 
s 2
f 43/1/5 46/2/5 47/3/5 
s 1
f 48/3/6 46/7/6 49/2/6 
s 4
f 46/2/2 44/1/2 49/7/2 
s 2
f 48/1/4 44/2/4 50/3/4 
s 1
f 51/3/3 52/7/3 53/2/3 
s 2
f 51/1/5 54/2/5 55/3/5 
s 1
f 56/3/6 54/7/6 57/2/6 
s 4
f 54/2/2 52/1/2 57/7/2 
s 2
f 56/1/4 52/2/4 58/3/4 
s 1
f 59/3/3 60/7/3 61/2/3 
s 2
f 62/3/5 61/7/5 63/2/5 
s 1
f 64/3/6 63/7/6 65/2/6 
s 4
f 65/7/2 61/3/2 60/1/2 
s 2
f 66/3/4 65/7/4 60/2/4 
s 1
f 67/3/3 68/7/3 69/2/3 
s 2
f 67/1/5 70/2/5 71/3/5 
s 1
f 72/3/6 70/7/6 73/2/6 
s 4
f 70/2/2 68/1/2 73/7/2 
s 2
f 72/1/4 68/2/4 74/3/4 
s 1
f 75/3/3 76/7/3 77/2/3 
s 2
f 75/1/5 78/2/5 79/3/5 
s 1
f 80/3/6 78/7/6 81/2/6 
s 4
f 78/2/2 76/1/2 81/7/2 
s 2
f 80/1/4 76/2/4 82/3/4 
s 1
f 83/3/3 84/7/3 85/2/3 
s 2
f 86/8/5 85/7/5 87/9/5 
s 1
f 88/3/6 87/7/6 89/2/6 
s 4
f 89/7/2 85/10/2 84/11/2 
s 2
f 90/8/4 89/7/4 84/9/4 
s 1
f 91/3/3 92/7/3 93/2/3 
s 2
f 94/8/5 93/7/5 95/9/5 
s 1
f 96/3/6 95/7/6 97/2/6 
s 4
f 97/7/2 93/10/2 92/11/2 
s 2
f 98/8/4 97/7/4 92/9/4 
s 1
f 99/3/3 100/7/3 101/2/3 
s 2
f 102/8/5 101/7/5 103/9/5 
s 1
f 104/3/6 103/7/6 105/2/6 
s 4
f 105/7/2 101/10/2 100/11/2 
s 2
f 106/8/4 105/7/4 100/9/4 
s 1
f 107/3/3 108/7/3 109/2/3 
s 2
f 110/8/5 109/7/5 111/9/5 
s 1
f 112/3/6 111/7/6 113/2/6 
s 4
f 113/7/2 109/10/2 108/11/2 
s 2
f 114/8/4 113/7/4 108/9/4 
s 1
f 115/3/6 116/7/6 117/2/6 
s 2
f 118/8/4 117/7/4 119/9/4 
s 1
f 120/3/3 119/7/3 121/2/3 
s 4
f 121/7/2 117/10/2 116/11/2 
s 2
f 122/8/5 121/7/5 116/9/5 
s 1
f 123/3/6 124/7/6 125/2/6 
s 2
f 126/8/4 125/7/4 127/9/4 
s 1
f 128/3/3 127/7/3 129/2/3 
s 4
f 129/7/2 125/12/2 124/11/2 
s 2
f 130/8/5 129/7/5 124/9/5 
s 1
f 131/3/6 132/7/6 133/2/6 
s 2
f 134/8/4 133/7/4 135/9/4 
s 1
f 136/3/3 135/7/3 137/2/3 
s 4
f 137/7/2 133/10/2 132/11/2 
s 2
f 138/8/5 137/7/5 132/9/5 
s 1
f 139/3/6 140/7/6 141/2/6 
s 2
f 142/8/4 141/7/4 143/9/4 
s 1
f 144/3/3 143/7/3 145/2/3 
s 4
f 145/7/2 141/10/2 140/11/2 
s 2
f 146/8/5 145/7/5 140/9/5 
s 1
f 147/3/6 148/7/6 149/2/6 
s 2
f 147/1/4 150/2/4 151/3/4 
s 1
f 152/3/3 150/7/3 153/2/3 
s 4
f 153/7/2 149/3/2 148/1/2 
s 2
f 152/1/5 148/2/5 154/3/5 
s 1
f 155/3/6 156/7/6 157/2/6 
s 2
f 155/1/4 158/2/4 159/3/4 
s 1
f 160/3/3 158/7/3 161/2/3 
s 4
f 161/7/2 157/3/2 156/1/2 
s 2
f 160/1/5 156/2/5 162/3/5 
s 1
f 163/3/6 164/7/6 165/2/6 
s 2
f 163/1/7 166/2/7 167/13/7 
s 1
f 167/1/3 168/2/3 7/3/3 
s 2
f 169/3/5 168/7/5 164/2/5 
s 4
f 168/7/2 165/3/2 164/1/2 
s 1
f 170/3/3 171/7/3 172/2/3 
s 2
f 173/8/5 172/7/5 174/9/5 
s 1
f 175/3/6 174/7/6 176/2/6 
s 4
f 176/7/2 172/10/2 171/11/2 
s 2
f 177/8/4 176/7/4 171/9/4 
s 1
f 178/3/3 179/7/3 180/2/3 
s 2
f 181/8/5 180/7/5 182/9/5 
s 1
f 183/3/6 182/7/6 184/2/6 
s 4
f 184/7/2 180/10/2 179/11/2 
s 2
f 185/8/4 184/7/4 179/9/4 
s 1
f 186/3/3 187/7/3 188/2/3 
s 2
f 189/8/5 188/7/5 190/9/5 
s 1
f 191/3/6 190/7/6 192/2/6 
s 4
f 192/7/2 188/10/2 187/11/2 
s 2
f 193/8/4 192/7/4 187/9/4 
s 1
f 194/3/3 195/7/3 196/2/3 
s 2
f 197/8/5 196/7/5 198/9/5 
s 1
f 199/3/6 198/7/6 200/2/6 
s 4
f 200/7/2 196/10/2 195/11/2 
s 2
f 201/8/4 200/7/4 195/9/4 
s 1
f 202/3/3 203/7/3 204/2/3 
s 2
f 202/1/5 205/2/5 5/3/5 
s 1
f 206/3/6 205/7/6 207/2/6 
s 4
f 207/7/2 204/3/2 203/1/2 
s 2
f 206/1/4 203/2/4 208/3/4 
s 1
f 6/3/3 209/7/3 210/2/3 
s 2
f 6/1/5 211/2/5 212/3/5 
s 1
f 213/3/6 211/7/6 214/2/6 
s 4
f 214/7/2 210/3/2 209/1/2 
s 2
f 213/1/4 209/2/4 215/3/4 
s 1
f 216/3/3 217/7/3 218/2/3 
s 2
f 219/3/5 218/7/5 220/2/5 
s 1
f 221/3/8 220/7/8 222/2/8 
s 4
f 222/7/2 218/3/2 217/1/2 
s 2
f 221/1/4 217/2/4 223/3/4 
f 2/2/1 1/1/1 10/7/1 
s 4
f 169/14/2 8/3/2 7/15/2 
f 169/14/2 4/2/2 8/3/2 
f 160/16/2 163/17/2 159/18/2 
f 160/16/2 169/14/2 163/17/2 
f 160/16/2 4/2/2 169/14/2 
f 162/19/2 4/2/2 160/16/2 
f 206/20/2 6/5/2 5/4/2 
f 206/20/2 215/21/2 6/5/2 
f 107/22/2 115/23/2 114/24/2 
f 107/22/2 122/25/2 115/23/2 
f 177/26/2 14/27/2 16/28/2 
f 170/29/2 14/27/2 177/26/2 
f 131/30/2 128/31/2 138/32/2 
f 131/30/2 126/33/2 128/31/2 
f 139/34/2 136/35/2 146/36/2 
f 139/34/2 134/37/2 136/35/2 
f 120/38/2 123/39/2 118/40/2 
f 120/38/2 130/41/2 123/39/2 
f 147/42/2 144/43/2 154/44/2 
f 147/42/2 142/45/2 144/43/2 
f 4/2/2 216/46/2 219/6/2 
f 223/47/2 224/7/2 221/48/2 
f 223/47/2 9/1/2 224/7/2 
f 9/1/2 163/17/2 167/49/2 
f 212/50/2 223/47/2 216/46/2 
f 213/51/2 223/47/2 212/50/2 
f 213/51/2 9/1/2 223/47/2 
f 215/21/2 9/1/2 213/51/2 
f 206/20/2 9/1/2 215/21/2 
f 208/52/2 9/1/2 206/20/2 
f 173/53/2 185/54/2 178/55/2 
f 175/56/2 185/54/2 173/53/2 
f 110/57/2 106/58/2 99/59/2 
f 112/60/2 106/58/2 110/57/2 
f 98/61/2 102/62/2 104/63/2 
f 91/64/2 102/62/2 98/61/2 
f 90/65/2 94/66/2 96/67/2 
f 83/68/2 94/66/2 90/65/2 
f 34/69/2 38/70/2 40/71/2 
f 27/72/2 38/70/2 34/69/2 
f 26/73/2 30/74/2 32/75/2 
f 19/76/2 30/74/2 26/73/2 
f 18/77/2 22/78/2 24/79/2 
f 11/80/2 22/78/2 18/77/2 
f 193/81/2 181/82/2 183/83/2 
f 186/84/2 181/82/2 193/81/2 
f 201/85/2 189/86/2 191/87/2 
f 194/88/2 189/86/2 201/85/2 
f 47/89/2 42/90/2 35/91/2 
f 48/92/2 42/90/2 47/89/2 
f 82/93/2 86/94/2 88/95/2 
f 75/96/2 86/94/2 82/93/2 
f 58/97/2 62/98/2 64/99/2 
f 51/100/2 62/98/2 58/97/2 
f 71/101/2 66/102/2 59/103/2 
f 72/104/2 66/102/2 71/101/2 
f 79/105/2 74/106/2 67/107/2 
f 80/108/2 74/106/2 79/105/2 
f 55/109/2 50/110/2 43/111/2 
f 56/112/2 50/110/2 55/109/2 
f 197/113/2 208/52/2 202/114/2 
f 199/115/2 208/52/2 197/113/2 
f 199/115/2 9/1/2 208/52/2 
f 201/85/2 9/1/2 199/115/2 
f 191/87/2 9/1/2 201/85/2 
f 193/81/2 9/1/2 191/87/2 
f 183/83/2 9/1/2 193/81/2 
f 185/54/2 9/1/2 183/83/2 
f 175/56/2 9/1/2 185/54/2 
f 177/26/2 9/1/2 175/56/2 
f 16/28/2 9/1/2 177/26/2 
f 18/77/2 9/1/2 16/28/2 
f 24/79/2 9/1/2 18/77/2 
f 26/73/2 9/1/2 24/79/2 
f 32/75/2 9/1/2 26/73/2 
f 34/69/2 9/1/2 32/75/2 
f 40/71/2 9/1/2 34/69/2 
f 42/90/2 9/1/2 40/71/2 
f 48/92/2 9/1/2 42/90/2 
f 50/110/2 9/1/2 48/92/2 
f 56/112/2 9/1/2 50/110/2 
f 58/97/2 9/1/2 56/112/2 
f 64/99/2 9/1/2 58/97/2 
f 66/102/2 9/1/2 64/99/2 
f 72/104/2 9/1/2 66/102/2 
f 74/106/2 9/1/2 72/104/2 
f 80/108/2 9/1/2 74/106/2 
f 82/93/2 9/1/2 80/108/2 
f 88/95/2 9/1/2 82/93/2 
f 90/65/2 9/1/2 88/95/2 
f 96/67/2 9/1/2 90/65/2 
f 98/61/2 9/1/2 96/67/2 
f 104/63/2 9/1/2 98/61/2 
f 106/58/2 9/1/2 104/63/2 
f 112/60/2 9/1/2 106/58/2 
f 114/24/2 9/1/2 112/60/2 
f 115/23/2 9/1/2 114/24/2 
f 118/40/2 9/1/2 115/23/2 
f 123/39/2 9/1/2 118/40/2 
f 126/33/2 9/1/2 123/39/2 
f 131/30/2 9/1/2 126/33/2 
f 134/37/2 9/1/2 131/30/2 
f 139/34/2 9/1/2 134/37/2 
f 142/45/2 9/1/2 139/34/2 
f 147/42/2 9/1/2 142/45/2 
f 151/116/2 9/1/2 147/42/2 
f 4/2/2 212/50/2 216/46/2 
f 9/1/2 159/18/2 163/17/2 
f 4/2/2 6/5/2 212/50/2 
f 9/1/2 155/117/2 159/18/2 
f 151/116/2 155/117/2 9/1/2 
f 151/116/2 162/19/2 155/117/2 
f 152/118/2 162/19/2 151/116/2 
f 152/118/2 4/2/2 162/19/2 
f 154/44/2 4/2/2 152/118/2 
f 144/43/2 4/2/2 154/44/2 
f 146/36/2 4/2/2 144/43/2 
f 136/35/2 4/2/2 146/36/2 
f 138/32/2 4/2/2 136/35/2 
f 128/31/2 4/2/2 138/32/2 
f 130/41/2 4/2/2 128/31/2 
f 120/38/2 4/2/2 130/41/2 
f 122/25/2 4/2/2 120/38/2 
f 107/22/2 4/2/2 122/25/2 
f 110/57/2 4/2/2 107/22/2 
f 99/59/2 4/2/2 110/57/2 
f 102/62/2 4/2/2 99/59/2 
f 91/64/2 4/2/2 102/62/2 
f 94/66/2 4/2/2 91/64/2 
f 83/68/2 4/2/2 94/66/2 
f 86/94/2 4/2/2 83/68/2 
f 75/96/2 4/2/2 86/94/2 
f 79/105/2 4/2/2 75/96/2 
f 67/107/2 4/2/2 79/105/2 
f 71/101/2 4/2/2 67/107/2 
f 59/103/2 4/2/2 71/101/2 
f 62/98/2 4/2/2 59/103/2 
f 51/100/2 4/2/2 62/98/2 
f 55/109/2 4/2/2 51/100/2 
f 43/111/2 4/2/2 55/109/2 
f 47/89/2 4/2/2 43/111/2 
f 35/91/2 4/2/2 47/89/2 
f 38/70/2 4/2/2 35/91/2 
f 27/72/2 4/2/2 38/70/2 
f 30/74/2 4/2/2 27/72/2 
f 19/76/2 4/2/2 30/74/2 
f 22/78/2 4/2/2 19/76/2 
f 11/80/2 4/2/2 22/78/2 
f 14/27/2 4/2/2 11/80/2 
f 170/29/2 4/2/2 14/27/2 
f 173/53/2 4/2/2 170/29/2 
f 178/55/2 4/2/2 173/53/2 
f 181/82/2 4/2/2 178/55/2 
f 186/84/2 4/2/2 181/82/2 
f 189/86/2 4/2/2 186/84/2 
f 194/88/2 4/2/2 189/86/2 
f 197/113/2 4/2/2 194/88/2 
f 202/114/2 4/2/2 197/113/2 
f 5/4/2 4/2/2 202/114/2 
s 8
f 167/48/3 3/1/3 9/7/3 
f 167/48/3 1/3/3 3/1/3 
f 7/6/3 1/3/3 167/48/3 
s 16
f 9/2/4 2/1/4 224/7/4 
s 64
f 4/2/5 1/1/5 8/7/5 
s 1
f 12/7/3 11/3/3 18/1/3 
s 2
f 13/7/5 14/8/5 11/1/5 
s 1
f 15/7/6 16/3/6 14/1/6 
s 4
f 13/10/2 17/7/2 15/2/2 
s 2
f 17/7/4 18/8/4 16/1/4 
s 1
f 20/7/3 19/3/3 26/1/3 
s 2
f 21/7/5 22/8/5 19/1/5 
s 1
f 23/7/6 24/3/6 22/1/6 
s 4
f 21/10/2 25/7/2 23/2/2 
s 2
f 25/7/4 26/8/4 24/1/4 
s 1
f 28/7/3 27/3/3 34/1/3 
s 2
f 29/7/5 30/8/5 27/1/5 
s 1
f 31/7/6 32/3/6 30/1/6 
s 4
f 29/10/2 33/7/2 31/2/2 
s 2
f 33/7/4 34/8/4 32/1/4 
s 1
f 36/7/3 35/3/3 42/1/3 
s 2
f 37/7/5 38/8/5 35/1/5 
s 1
f 39/7/6 40/3/6 38/1/6 
s 4
f 37/10/2 41/7/2 39/2/2 
s 2
f 41/7/4 42/8/4 40/1/4 
s 1
f 44/7/3 43/3/3 50/1/3 
s 2
f 46/2/5 43/1/5 45/7/5 
s 1
f 46/7/6 48/3/6 47/1/6 
s 4
f 44/1/2 46/2/2 45/3/2 
s 2
f 44/2/4 48/1/4 49/7/4 
s 1
f 52/7/3 51/3/3 58/1/3 
s 2
f 54/2/5 51/1/5 53/7/5 
s 1
f 54/7/6 56/3/6 55/1/6 
s 4
f 52/1/2 54/2/2 53/3/2 
s 2
f 52/2/4 56/1/4 57/7/4 
s 1
f 60/7/3 59/3/3 66/1/3 
s 2
f 61/7/5 62/3/5 59/1/5 
s 1
f 63/7/6 64/3/6 62/1/6 
s 4
f 61/3/2 65/7/2 63/2/2 
s 2
f 65/7/4 66/3/4 64/1/4 
s 1
f 68/7/3 67/3/3 74/1/3 
s 2
f 70/2/5 67/1/5 69/7/5 
s 1
f 70/7/6 72/3/6 71/1/6 
s 4
f 68/1/2 70/2/2 69/3/2 
s 2
f 68/2/4 72/1/4 73/7/4 
s 1
f 76/7/3 75/3/3 82/1/3 
s 2
f 78/2/5 75/1/5 77/7/5 
s 1
f 78/7/6 80/3/6 79/1/6 
s 4
f 76/1/2 78/2/2 77/3/2 
s 2
f 76/2/4 80/1/4 81/7/4 
s 1
f 84/7/3 83/3/3 90/1/3 
s 2
f 85/7/5 86/8/5 83/1/5 
s 1
f 87/7/6 88/3/6 86/1/6 
s 4
f 85/10/2 89/7/2 87/2/2 
s 2
f 89/7/4 90/8/4 88/1/4 
s 1
f 92/7/3 91/3/3 98/1/3 
s 2
f 93/7/5 94/8/5 91/1/5 
s 1
f 95/7/6 96/3/6 94/1/6 
s 4
f 93/10/2 97/7/2 95/2/2 
s 2
f 97/7/4 98/8/4 96/1/4 
s 1
f 100/7/3 99/3/3 106/1/3 
s 2
f 101/7/5 102/8/5 99/1/5 
s 1
f 103/7/6 104/3/6 102/1/6 
s 4
f 101/10/2 105/7/2 103/2/2 
s 2
f 105/7/4 106/8/4 104/1/4 
s 1
f 108/7/3 107/3/3 114/1/3 
s 2
f 109/7/5 110/8/5 107/1/5 
s 1
f 111/7/6 112/3/6 110/1/6 
s 4
f 109/10/2 113/7/2 111/2/2 
s 2
f 113/7/4 114/8/4 112/1/4 
s 1
f 116/7/6 115/3/6 122/1/6 
s 2
f 117/7/4 118/8/4 115/1/4 
s 1
f 119/7/3 120/3/3 118/1/3 
s 4
f 117/10/2 121/7/2 119/2/2 
s 2
f 121/7/5 122/8/5 120/1/5 
s 1
f 124/7/6 123/3/6 130/1/6 
s 2
f 125/7/4 126/8/4 123/1/4 
s 1
f 127/7/3 128/3/3 126/1/3 
s 4
f 125/12/2 129/7/2 127/2/2 
s 2
f 129/7/5 130/8/5 128/1/5 
s 1
f 132/7/6 131/3/6 138/1/6 
s 2
f 133/7/4 134/8/4 131/1/4 
s 1
f 135/7/3 136/3/3 134/1/3 
s 4
f 133/10/2 137/7/2 135/2/2 
s 2
f 137/7/5 138/8/5 136/1/5 
s 1
f 140/7/6 139/3/6 146/1/6 
s 2
f 141/7/4 142/8/4 139/1/4 
s 1
f 143/7/3 144/3/3 142/1/3 
s 4
f 141/10/2 145/7/2 143/2/2 
s 2
f 145/7/5 146/8/5 144/1/5 
s 1
f 148/7/6 147/3/6 154/1/6 
s 2
f 150/2/4 147/1/4 149/7/4 
s 1
f 150/7/3 152/3/3 151/1/3 
s 4
f 149/3/2 153/7/2 150/2/2 
s 2
f 148/2/5 152/1/5 153/7/5 
s 1
f 156/7/6 155/3/6 162/1/6 
s 2
f 158/2/4 155/1/4 157/7/4 
s 1
f 158/7/3 160/3/3 159/1/3 
s 4
f 157/3/2 161/7/2 158/2/2 
s 2
f 156/2/5 160/1/5 161/7/5 
s 1
f 164/7/6 163/3/6 169/1/6 
s 2
f 166/2/7 163/1/7 165/7/4 
s 1
f 168/2/3 167/1/3 166/7/3 
s 2
f 168/7/5 169/3/5 7/119/5 
s 4
f 165/3/2 168/7/2 166/2/2 
s 1
f 171/7/3 170/3/3 177/1/3 
s 2
f 172/7/5 173/8/5 170/1/5 
s 1
f 174/7/6 175/3/6 173/1/6 
s 4
f 172/10/2 176/7/2 174/2/2 
s 2
f 176/7/4 177/8/4 175/1/4 
s 1
f 179/7/3 178/3/3 185/1/3 
s 2
f 180/7/5 181/8/5 178/1/5 
s 1
f 182/7/6 183/3/6 181/1/6 
s 4
f 180/10/2 184/7/2 182/2/2 
s 2
f 184/7/4 185/8/4 183/1/4 
s 1
f 187/7/3 186/3/3 193/1/3 
s 2
f 188/7/5 189/8/5 186/1/5 
s 1
f 190/7/6 191/3/6 189/1/6 
s 4
f 188/10/2 192/7/2 190/2/2 
s 2
f 192/7/4 193/8/4 191/1/4 
s 1
f 195/7/3 194/3/3 201/1/3 
s 2
f 196/7/5 197/8/5 194/1/5 
s 1
f 198/7/6 199/3/6 197/1/6 
s 4
f 196/10/2 200/7/2 198/2/2 
s 2
f 200/7/4 201/8/4 199/1/4 
s 1
f 203/7/3 202/3/3 208/1/3 
s 2
f 205/2/5 202/1/5 204/7/5 
s 1
f 205/7/6 206/3/6 5/1/6 
s 4
f 204/3/2 207/7/2 205/2/2 
s 2
f 203/2/4 206/1/4 207/7/4 
s 1
f 209/7/3 6/3/3 215/1/3 
s 2
f 211/2/5 6/1/5 210/7/5 
s 1
f 211/7/6 213/3/6 212/1/6 
s 4
f 210/3/2 214/7/2 211/2/2 
s 2
f 209/2/4 213/1/4 214/7/4 
s 1
f 217/7/3 216/3/3 223/1/3 
s 2
f 218/7/5 219/3/5 216/1/5 
s 1
f 2/120/6 221/3/8 224/121/6 
f 10/122/6 221/3/8 2/120/6 
f 219/1/8 10/122/6 4/123/6 
f 219/1/8 221/3/8 10/122/6 
f 220/7/8 221/3/8 219/1/8 
s 4
f 218/3/2 222/7/2 220/2/2 
s 2
f 217/2/4 221/1/4 222/7/4 
s 1
f 225/1/1 226/2/1 227/3/1 
s 4
f 228/3/4 226/7/4 229/1/4 
s 8
f 227/7/3 230/3/3 225/2/3 
f 231/7/6 229/3/6 226/2/6 
s 1
f 229/7/2 230/3/2 228/1/2 
s 2
f 232/3/5 225/7/5 230/1/5 
s 1
f 226/2/1 225/1/1 231/7/1 
s 4
f 226/7/4 228/3/4 227/2/4 
s 8
f 230/3/3 227/7/3 228/1/3 
f 229/3/6 231/7/6 232/1/6 
s 1
f 230/3/2 229/7/2 232/2/2 
s 2
f 225/7/5 232/3/5 231/2/5 
# 456 faces

