# 3ds Max Wavefront OBJ Exporter v0.97b - (c)2007 guruware
# File Created: 20.01.2016 00:34:51

#
# object Box026
#

v  -1.4997 153.1660 1.0000
v  -1.4997 172.6660 1.0000
v  3.5003 172.6660 1.0000
v  3.5003 153.1660 1.0000
v  -1.4997 153.1660 1.3000
v  3.5003 153.1660 1.3000
v  3.5003 172.6660 1.3000
v  -1.4997 172.6660 1.3000
# 8 vertices

vn 0.0000 0.0000 -1.0000
vn 0.0000 0.0000 1.0000
vn -0.0000 -1.0000 0.0000
vn 1.0000 -0.0000 0.0000
vn 0.0000 1.0000 0.0000
vn -1.0000 0.0000 0.0000
# 6 vertex normals

vt 5.0000 0.0000 0.0000
vt 5.0000 19.5000 0.0000
vt 0.0000 19.5000 0.0000
vt 0.0000 0.0000 0.0000
vt 5.0000 0.3000 0.0000
vt 0.0000 0.3000 0.0000
vt 19.5000 0.0000 0.0000
vt 19.5000 0.3000 0.0000
# 8 texture coords

g Box026
s 2
f 1/1/1 2/2/1 3/3/1 4/4/1 
s 4
f 5/4/2 6/1/2 7/2/2 8/3/2 
s 8
f 1/4/3 4/1/3 6/5/3 5/6/3 
s 16
f 4/4/4 3/7/4 7/8/4 6/6/4 
s 32
f 3/4/5 2/1/5 8/5/5 7/6/5 
s 64
f 2/4/6 1/7/6 5/8/6 8/6/6 
# 6 polygons

#
# object Box025
#

v  3.5003 170.6660 1.0000
v  3.5003 172.6660 1.0000
v  11.8003 172.6660 1.0000
v  11.8003 170.6660 1.0000
v  3.5003 170.6660 1.3000
v  11.8003 170.6660 1.3000
v  11.8003 172.6660 1.3000
v  3.5003 172.6660 1.3000
# 8 vertices

vn 0.0000 0.0000 -1.0000
vn 0.0000 0.0000 1.0000
vn -0.0000 -1.0000 0.0000
vn 1.0000 -0.0000 0.0000
vn 0.0000 1.0000 0.0000
vn -1.0000 0.0000 0.0000
# 6 vertex normals

vt 8.3000 0.0000 0.0000
vt 8.3000 2.0000 0.0000
vt 0.0000 2.0000 0.0000
vt 0.0000 0.0000 0.0000
vt 8.3000 0.3000 0.0000
vt 0.0000 0.3000 0.0000
vt 2.0000 0.0000 0.0000
vt 2.0000 0.3000 0.0000
# 8 texture coords

g Box025
s 2
f 9/9/7 10/10/7 11/11/7 12/12/7 
s 4
f 13/12/8 14/9/8 15/10/8 16/11/8 
s 8
f 9/12/9 12/9/9 14/13/9 13/14/9 
s 16
f 12/12/10 11/15/10 15/16/10 14/14/10 
s 32
f 11/12/11 10/9/11 16/13/11 15/14/11 
s 64
f 10/12/12 9/15/12 13/16/12 16/14/12 
# 6 polygons

#
# object Box024
#

v  3.5003 153.1660 1.0000
v  3.5003 155.1660 1.0000
v  11.8003 155.1660 1.0000
v  11.8003 153.1660 1.0000
v  3.5003 153.1660 1.3000
v  11.8003 153.1660 1.3000
v  11.8003 155.1660 1.3000
v  3.5003 155.1660 1.3000
# 8 vertices

vn 0.0000 0.0000 -1.0000
vn 0.0000 0.0000 1.0000
vn -0.0000 -1.0000 0.0000
vn 1.0000 -0.0000 0.0000
vn 0.0000 1.0000 0.0000
vn -1.0000 0.0000 0.0000
# 6 vertex normals

vt 8.3000 0.0000 0.0000
vt 8.3000 2.0000 0.0000
vt 0.0000 2.0000 0.0000
vt 0.0000 0.0000 0.0000
vt 8.3000 0.3000 0.0000
vt 0.0000 0.3000 0.0000
vt 2.0000 0.0000 0.0000
vt 2.0000 0.3000 0.0000
# 8 texture coords

g Box024
s 2
f 17/17/13 18/18/13 19/19/13 20/20/13 
s 4
f 21/20/14 22/17/14 23/18/14 24/19/14 
s 8
f 17/20/15 20/17/15 22/21/15 21/22/15 
s 16
f 20/20/16 19/23/16 23/24/16 22/22/16 
s 32
f 19/20/17 18/17/17 24/21/17 23/22/17 
s 64
f 18/20/18 17/23/18 21/24/18 24/22/18 
# 6 polygons

#
# object Box027
#

v  13.5003 153.1660 6.0000
v  13.5003 172.6660 6.0000
v  15.5003 172.6660 6.0000
v  15.5003 153.1660 6.0000
v  13.5003 153.1660 6.3000
v  15.5003 153.1660 6.3000
v  15.5003 172.6660 6.3000
v  13.5003 172.6660 6.3000
# 8 vertices

vn 0.0000 0.0000 -1.0000
vn 0.0000 0.0000 1.0000
vn -0.0000 -1.0000 0.0000
vn 1.0000 -0.0000 0.0000
vn 0.0000 1.0000 0.0000
vn -1.0000 0.0000 0.0000
# 6 vertex normals

vt 2.0000 0.0000 0.0000
vt 2.0000 19.5000 0.0000
vt 0.0000 19.5000 0.0000
vt 0.0000 0.0000 0.0000
vt 2.0000 0.3000 0.0000
vt 0.0000 0.3000 0.0000
vt 19.5000 0.0000 0.0000
vt 19.5000 0.3000 0.0000
# 8 texture coords

g Box027
s 2
f 25/25/19 26/26/19 27/27/19 28/28/19 
s 4
f 29/28/20 30/25/20 31/26/20 32/27/20 
s 8
f 25/28/21 28/25/21 30/29/21 29/30/21 
s 16
f 28/28/22 27/31/22 31/32/22 30/30/22 
s 32
f 27/28/23 26/25/23 32/29/23 31/30/23 
s 64
f 26/28/24 25/31/24 29/32/24 32/30/24 
# 6 polygons

#
# object B1L3
#

v  16.0000 188.0000 1.3000
v  16.0000 188.0000 1.0000
v  15.8456 192.3015 1.0000
v  15.8456 192.3015 1.3000
v  15.3832 196.5808 1.3000
v  15.3832 196.5808 1.0000
v  14.6153 200.8159 1.3000
v  14.6153 200.8159 1.0000
v  13.5457 204.9851 1.3000
v  13.5457 204.9851 1.0000
v  12.1799 209.0669 1.3000
v  12.1799 209.0669 1.0000
v  10.5251 213.0403 1.3000
v  10.5251 213.0403 1.0000
v  8.5896 216.8848 1.3000
v  8.5896 216.8848 1.0000
v  6.3835 220.5807 1.3000
v  6.3835 220.5807 1.0000
v  3.9181 224.1089 1.3000
v  3.9181 224.1089 1.0000
v  -2.9693 196.9711 1.0000
v  -2.4317 194.0065 1.0000
v  -2.0000 188.0000 1.3000
v  -2.0000 188.0000 1.0000
v  -2.9693 196.9711 1.3000
v  -2.4317 194.0065 1.3000
v  -10.4573 213.2762 1.0000
v  -10.4573 213.2762 1.3000
v  -2.1081 191.0110 1.3000
v  -2.1081 191.0110 1.0000
v  -3.7180 199.8896 1.3000
v  -3.7180 199.8896 1.0000
v  -4.6740 202.7468 1.3000
v  -4.6740 202.7468 1.0000
v  -5.8325 205.5282 1.3000
v  -5.8325 205.5282 1.0000
v  -7.1873 208.2194 1.3000
v  -7.1873 208.2194 1.0000
v  -8.7315 210.8065 1.3000
v  -8.7315 210.8065 1.0000
# 40 vertices

vn 0.9994 0.0359 0.0000
vn 0.9974 0.0717 0.0000
vn 0.9897 0.1430 0.0000
vn 0.9769 0.2136 0.0000
vn 0.9591 0.2831 0.0000
vn 0.9363 0.3511 0.0000
vn 0.9088 0.4173 0.0000
vn 0.8765 0.4814 0.0000
vn 0.8397 0.5430 0.0000
vn 0.8197 0.5728 0.0000
vn 0.0000 0.0000 -1.0000
vn 0.0000 -1.0000 0.0000
vn 0.0000 0.0000 1.0000
vn -0.6018 0.7986 0.0000
vn -0.9974 -0.0717 0.0000
vn -0.9994 -0.0359 0.0000
vn -0.9897 -0.1430 0.0000
vn -0.9769 -0.2136 0.0000
vn -0.9591 -0.2831 0.0000
vn -0.9363 -0.3511 0.0000
vn -0.9088 -0.4173 0.0000
vn -0.8765 -0.4814 0.0000
vn -0.8397 -0.5430 0.0000
vn -0.8197 -0.5728 0.0000
# 24 vertex normals

vt 282.7433 0.3000 1.0000
vt 282.7433 0.0000 1.0000
vt 287.0485 0.0000 1.0000
vt 287.0485 0.3000 1.0000
vt 291.3536 0.3000 1.0000
vt 291.3536 0.0000 1.0000
vt 295.6588 0.3000 1.0000
vt 295.6588 0.0000 1.0000
vt 299.9639 0.3000 1.0000
vt 299.9639 0.0000 1.0000
vt 304.2691 0.3000 1.0000
vt 304.2691 0.0000 1.0000
vt 308.5742 0.3000 1.0000
vt 308.5742 0.0000 1.0000
vt 312.8793 0.3000 1.0000
vt 312.8793 0.0000 1.0000
vt 317.1845 0.3000 1.0000
vt 317.1845 0.0000 1.0000
vt 321.4897 0.3000 1.0000
vt 321.4897 0.0000 1.0000
vt 41.0307 27.1378 0.0000
vt 58.6153 23.2930 0.0000
vt 59.3832 27.5281 0.0000
vt 41.5683 30.1024 0.0000
vt 60.0000 0.3000 0.0000
vt 42.0000 0.3000 0.0000
vt 42.0000 0.0000 0.0000
vt 60.0000 0.0000 0.0000
vt 41.0307 8.9711 0.0000
vt 41.5683 6.0065 0.0000
vt 59.3832 8.5808 0.0000
vt 58.6153 12.8159 0.0000
vt 17.9537 0.0000 0.0000
vt 17.9537 0.3000 0.0000
vt 0.0000 0.3000 0.0000
vt 0.0000 0.0000 0.0000
vt 200.9340 0.3000 1.0000
vt 200.9340 0.0000 1.0000
vt 197.9203 0.0000 1.0000
vt 197.9203 0.3000 1.0000
vt 200.9339 0.3000 1.0000
vt 203.9476 0.3000 1.0000
vt 203.9476 0.0000 1.0000
vt 206.9612 0.3000 1.0000
vt 206.9612 0.0000 1.0000
vt 209.9747 0.3000 1.0000
vt 209.9747 0.0000 1.0000
vt 212.9884 0.3000 1.0000
vt 212.9884 0.0000 1.0000
vt 216.0020 0.3000 1.0000
vt 216.0020 0.0000 1.0000
vt 219.0155 0.3000 1.0000
vt 219.0156 0.0000 1.0000
vt 222.0292 0.3000 1.0000
vt 222.0292 0.0000 1.0000
vt 219.0155 0.0000 1.0000
vt 225.0428 0.3000 1.0000
vt 225.0428 0.0000 1.0000
vt 50.3835 3.5282 0.0000
vt 35.2685 13.3024 0.0000
vt 33.5427 10.8327 0.0000
vt 47.9182 0.0000 0.0000
vt 52.5896 7.2241 0.0000
vt 36.8127 15.8895 0.0000
vt 54.5250 11.0686 0.0000
vt 38.1675 18.5807 0.0000
vt 56.1799 15.0420 0.0000
vt 39.3259 21.3621 0.0000
vt 42.0000 36.1089 0.0000
vt 41.8919 33.0979 0.0000
vt 59.8456 31.8074 0.0000
vt 60.0000 36.1089 0.0000
vt 57.5457 19.1238 0.0000
vt 40.2820 24.2193 0.0000
vt 33.5427 25.2762 0.0000
vt 35.2685 22.8065 0.0000
vt 50.3835 32.5807 0.0000
vt 47.9182 36.1089 0.0000
vt 36.8127 20.2194 0.0000
vt 52.5896 28.8848 0.0000
vt 38.1675 17.5282 0.0000
vt 54.5250 25.0403 0.0000
vt 39.3259 14.7468 0.0000
vt 56.1799 21.0669 0.0000
vt 59.8456 4.3015 0.0000
vt 41.8919 3.0110 0.0000
vt 42.0000 -0.0000 0.0000
vt 40.2820 11.8896 0.0000
vt 57.5457 16.9851 0.0000
# 89 texture coords

g B1L3
s 8
f 33/33/25 34/34/25 35/35/26 36/36/26 
f 37/37/27 36/36/26 35/35/26 38/38/27 
f 39/39/28 37/37/27 38/38/27 40/40/28 
f 41/41/29 39/39/28 40/40/28 42/42/29 
f 43/43/30 41/41/29 42/42/29 44/44/30 
f 45/45/31 43/43/30 44/44/30 46/46/31 
f 47/47/32 45/45/31 46/46/31 48/48/32 
f 49/49/33 47/47/32 48/48/32 50/50/33 
f 51/51/34 49/49/33 50/50/33 52/52/34 
s 1
f 53/53/35 40/54/35 38/55/35 54/56/35 
s 2
f 33/57/36 55/58/36 56/59/36 34/60/36 
s 1
f 57/61/37 58/62/37 37/63/37 39/64/37 
s 4
f 59/65/38 60/66/38 51/67/38 52/68/38 
s 8
f 61/69/39 62/70/39 56/71/40 55/72/40 
f 61/73/39 58/74/41 54/75/41 62/70/39 
f 58/74/41 57/76/42 53/77/42 54/75/41 
f 57/76/42 63/78/43 64/79/43 53/77/42 
f 64/79/43 63/78/43 65/80/44 66/81/44 
f 65/80/44 67/82/45 68/83/45 66/81/44 
f 68/83/45 67/82/45 69/84/46 70/85/46 
f 69/84/46 71/86/47 72/87/47 70/88/46 
f 72/87/47 71/86/47 60/89/48 59/90/48 
s 1
f 50/91/35 72/92/35 59/93/35 52/94/35 
f 48/95/35 70/96/35 72/92/35 50/91/35 
f 46/97/35 68/98/35 70/96/35 48/95/35 
f 44/99/35 66/100/35 68/98/35 46/97/35 
f 56/101/35 62/102/35 35/103/35 34/104/35 
f 62/102/35 54/56/35 38/55/35 35/103/35 
f 42/105/35 64/106/35 66/100/35 44/99/35 
f 40/54/35 53/53/35 64/106/35 42/105/35 
f 60/107/37 71/108/37 49/109/37 51/110/37 
f 71/108/37 69/111/37 47/112/37 49/109/37 
f 69/111/37 67/113/37 45/114/37 47/112/37 
f 67/113/37 65/115/37 43/116/37 45/114/37 
f 36/117/37 61/118/37 55/119/37 33/60/37 
f 37/63/37 58/62/37 61/118/37 36/117/37 
f 65/115/37 63/120/37 41/121/37 43/116/37 
f 63/120/37 57/61/37 39/64/37 41/121/37 
# 38 polygons

#
# object Box006
#

v  -88.3427 319.8672 0.0000
v  -122.0444 364.5908 0.0000
v  -109.2662 374.2198 0.0000
v  -75.5646 329.4962 0.0000
v  -88.3427 319.8672 4.0000
v  -75.5646 329.4962 4.0000
v  -109.2662 374.2198 4.0000
v  -122.0444 364.5908 4.0000
# 8 vertices

vn 0.0000 0.0000 -1.0000
vn 0.0000 0.0000 1.0000
vn 0.6018 -0.7986 0.0000
vn 0.7986 0.6018 0.0000
vn -0.6018 0.7986 0.0000
vn -0.7986 -0.6018 0.0000
# 6 vertex normals

vt 16.0000 0.0000 0.0000
vt 16.0000 56.0000 0.0000
vt 0.0000 56.0000 0.0000
vt 0.0000 0.0000 0.0000
vt 16.0000 4.0000 0.0000
vt 0.0000 4.0000 0.0000
vt 56.0000 0.0000 0.0000
vt 56.0000 4.0000 0.0000
# 8 texture coords

g Box006
s 2
f 73/122/49 74/123/49 75/124/49 76/125/49 
s 4
f 77/125/50 78/122/50 79/123/50 80/124/50 
s 8
f 73/125/51 76/122/51 78/126/51 77/127/51 
s 16
f 76/125/52 75/128/52 79/129/52 78/127/52 
s 32
f 75/125/53 74/122/53 80/126/53 79/127/53 
s 64
f 74/125/54 73/128/54 77/129/54 80/127/54 
# 6 polygons

#
# object Box008
#

v  0.0000 0.0000 0.0000
v  0.0000 56.0000 0.0000
v  16.0000 56.0000 0.0000
v  16.0000 0.0000 0.0000
v  0.0000 0.0000 4.0000
v  16.0000 0.0000 4.0000
v  16.0000 56.0000 4.0000
v  0.0000 56.0000 4.0000
# 8 vertices

vn 0.0000 0.0000 -1.0000
vn 0.0000 0.0000 1.0000
vn 0.0000 -1.0000 0.0000
vn 1.0000 0.0000 0.0000
vn 0.0000 1.0000 0.0000
vn -1.0000 0.0000 0.0000
# 6 vertex normals

vt 16.0000 0.0000 0.0000
vt 16.0000 56.0000 0.0000
vt 0.0000 56.0000 0.0000
vt 0.0000 0.0000 0.0000
vt 16.0000 4.0000 0.0000
vt 0.0000 4.0000 0.0000
vt 56.0000 0.0000 0.0000
vt 56.0000 4.0000 0.0000
# 8 texture coords

g Box008
s 2
f 81/130/55 82/131/55 83/132/55 84/133/55 
s 4
f 85/133/56 86/130/56 87/131/56 88/132/56 
s 8
f 81/133/57 84/130/57 86/134/57 85/135/57 
s 16
f 84/133/58 83/136/58 87/137/58 86/135/58 
s 32
f 83/133/59 82/130/59 88/134/59 87/135/59 
s 64
f 82/133/60 81/136/60 85/137/60 88/135/60 
# 6 polygons

#
# object Box018
#

v  -81.5146 307.4827 1.0000
v  -89.9400 318.6635 1.0000
v  -75.5646 329.4962 1.0000
v  -67.1391 318.3153 1.0000
v  -81.5146 307.4827 1.3000
v  -67.1391 318.3153 1.3000
v  -75.5646 329.4962 1.3000
v  -89.9400 318.6635 1.3000
# 8 vertices

vn 0.0000 0.0000 -1.0000
vn 0.0000 0.0000 1.0000
vn 0.6018 -0.7986 0.0000
vn 0.7986 0.6018 0.0000
vn -0.6018 0.7986 0.0000
vn -0.7986 -0.6018 0.0000
# 6 vertex normals

vt 18.0000 0.0000 0.0000
vt 18.0000 14.0000 0.0000
vt 0.0000 14.0000 0.0000
vt 0.0000 0.0000 0.0000
vt 18.0000 0.3000 0.0000
vt 0.0000 0.3000 0.0000
vt 14.0000 0.0000 0.0000
vt 14.0000 0.3000 0.0000
# 8 texture coords

g Box018
s 2
f 89/138/61 90/139/61 91/140/61 92/141/61 
s 4
f 93/141/62 94/138/62 95/139/62 96/140/62 
s 8
f 89/141/63 92/138/63 94/142/63 93/143/63 
s 16
f 92/141/64 91/144/64 95/145/64 94/143/64 
s 32
f 91/141/65 90/138/65 96/142/65 95/143/65 
s 64
f 90/141/66 89/144/66 93/145/66 96/143/66 
# 6 polygons

#
# object Box017
#

v  -68.7166 290.5889 1.0000
v  -77.1420 301.7698 1.0000
v  -62.7666 312.6025 1.0000
v  -54.3411 301.4216 1.0000
v  -68.7166 290.5889 1.3000
v  -54.3411 301.4216 1.3000
v  -62.7666 312.6025 1.3000
v  -77.1420 301.7698 1.3000
# 8 vertices

vn 0.0000 0.0000 -1.0000
vn 0.0000 0.0000 1.0000
vn 0.6018 -0.7986 0.0000
vn 0.7986 0.6018 0.0000
vn -0.6018 0.7986 0.0000
vn -0.7986 -0.6018 0.0000
# 6 vertex normals

vt 18.0000 0.0000 0.0000
vt 18.0000 14.0000 0.0000
vt 0.0000 14.0000 0.0000
vt 0.0000 0.0000 0.0000
vt 18.0000 0.3000 0.0000
vt 0.0000 0.3000 0.0000
vt 14.0000 0.0000 0.0000
vt 14.0000 0.3000 0.0000
# 8 texture coords

g Box017
s 2
f 97/146/67 98/147/67 99/148/67 100/149/67 
s 4
f 101/149/68 102/146/68 103/147/68 104/148/68 
s 8
f 97/149/69 100/146/69 102/150/69 101/151/69 
s 16
f 100/149/70 99/152/70 103/153/70 102/151/70 
s 32
f 99/149/71 98/146/71 104/150/71 103/151/71 
s 64
f 98/149/72 97/152/72 101/153/72 104/151/72 
# 6 polygons

#
# object Box015
#

v  -49.4713 265.0496 1.0000
v  -57.8967 276.2304 1.0000
v  -43.5213 287.0631 1.0000
v  -35.0958 275.8822 1.0000
v  -49.4713 265.0496 1.3000
v  -35.0958 275.8822 1.3000
v  -43.5213 287.0631 1.3000
v  -57.8967 276.2304 1.3000
# 8 vertices

vn 0.0000 0.0000 -1.0000
vn 0.0000 0.0000 1.0000
vn 0.6018 -0.7986 0.0000
vn 0.7986 0.6018 0.0000
vn -0.6018 0.7986 0.0000
vn -0.7986 -0.6018 0.0000
# 6 vertex normals

vt 18.0000 0.0000 0.0000
vt 18.0000 14.0000 0.0000
vt 0.0000 14.0000 0.0000
vt 0.0000 0.0000 0.0000
vt 18.0000 0.3000 0.0000
vt 0.0000 0.3000 0.0000
vt 14.0000 0.0000 0.0000
vt 14.0000 0.3000 0.0000
# 8 texture coords

g Box015
s 2
f 105/154/73 106/155/73 107/156/73 108/157/73 
s 4
f 109/157/74 110/154/74 111/155/74 112/156/74 
s 8
f 105/157/75 108/154/75 110/158/75 109/159/75 
s 16
f 108/157/76 107/160/76 111/161/76 110/159/76 
s 32
f 107/157/77 106/154/77 112/158/77 111/159/77 
s 64
f 106/157/78 105/160/78 109/161/78 112/159/78 
# 6 polygons

#
# object Box016
#

v  -41.0459 253.8686 1.0000
v  -49.4713 265.0495 1.0000
v  -35.0959 275.8822 1.0000
v  -26.6705 264.7013 1.0000
v  -41.0459 253.8686 1.3000
v  -26.6705 264.7013 1.3000
v  -35.0959 275.8822 1.3000
v  -49.4713 265.0495 1.3000
# 8 vertices

vn 0.0000 0.0000 -1.0000
vn 0.0000 0.0000 1.0000
vn 0.6018 -0.7986 0.0000
vn 0.7986 0.6018 0.0000
vn -0.6018 0.7986 0.0000
vn -0.7986 -0.6018 0.0000
# 6 vertex normals

vt 18.0000 0.0000 0.0000
vt 18.0000 14.0000 0.0000
vt 0.0000 14.0000 0.0000
vt 0.0000 0.0000 0.0000
vt 18.0000 0.3000 0.0000
vt 0.0000 0.3000 0.0000
vt 14.0000 0.0000 0.0000
vt 14.0000 0.3000 0.0000
# 8 texture coords

g Box016
s 2
f 113/162/79 114/163/79 115/164/79 116/165/79 
s 4
f 117/165/80 118/162/80 119/163/80 120/164/80 
s 8
f 113/165/81 116/162/81 118/166/81 117/167/81 
s 16
f 116/165/82 115/168/82 119/169/82 118/167/82 
s 32
f 115/165/83 114/162/83 120/166/83 119/167/83 
s 64
f 114/165/84 113/168/84 117/169/84 120/167/84 
# 6 polygons

#
# object Box009
#

v  0.9633 221.8820 1.0000
v  -78.4763 327.3019 1.0000
v  -75.9206 329.2277 1.0000
v  3.5189 223.8078 1.0000
v  0.9633 221.8820 1.3000
v  3.5189 223.8078 1.3000
v  -75.9206 329.2277 1.3000
v  -78.4763 327.3019 1.3000
# 8 vertices

vn 0.0000 0.0000 -1.0000
vn 0.0000 0.0000 1.0000
vn 0.6018 -0.7986 0.0000
vn 0.7986 0.6018 0.0000
vn -0.6018 0.7986 0.0000
vn -0.7986 -0.6018 0.0000
# 6 vertex normals

vt 3.2000 0.0000 0.0000
vt 3.2000 132.0000 0.0000
vt 0.0000 132.0000 0.0000
vt 0.0000 0.0000 0.0000
vt 3.2000 0.3000 0.0000
vt 0.0000 0.3000 0.0000
vt 132.0000 0.0000 0.0000
vt 132.0000 0.3000 0.0000
# 8 texture coords

g Box009
s 2
f 121/170/85 122/171/85 123/172/85 124/173/85 
s 4
f 125/173/86 126/170/86 127/171/86 128/172/86 
s 8
f 121/173/87 124/170/87 126/174/87 125/175/87 
s 16
f 124/173/88 123/176/88 127/177/88 126/175/88 
s 32
f 123/173/89 122/170/89 128/174/89 127/175/89 
s 64
f 122/173/90 121/176/90 125/177/90 128/175/90 
# 6 polygons

#
# object Box022
#

v  -24.9055 241.5887 1.0000
v  -26.1092 243.1860 1.0000
v  -19.4805 248.1811 1.0000
v  -18.2769 246.5838 1.0000
v  -24.9055 241.5887 1.3000
v  -18.2769 246.5838 1.3000
v  -19.4805 248.1811 1.3000
v  -26.1092 243.1860 1.3000
# 8 vertices

vn 0.0000 0.0000 -1.0000
vn 0.0000 0.0000 1.0000
vn 0.6018 -0.7986 0.0000
vn 0.7986 0.6018 0.0000
vn -0.6018 0.7986 0.0000
vn -0.7986 -0.6018 0.0000
# 6 vertex normals

vt 8.3000 0.0000 0.0000
vt 8.3000 2.0000 0.0000
vt 0.0000 2.0000 0.0000
vt 0.0000 0.0000 0.0000
vt 8.3000 0.3000 0.0000
vt 0.0000 0.3000 0.0000
vt 2.0000 0.0000 0.0000
vt 2.0000 0.3000 0.0000
# 8 texture coords

g Box022
s 2
f 129/178/91 130/179/91 131/180/91 132/181/91 
s 4
f 133/181/92 134/178/92 135/179/92 136/180/92 
s 8
f 129/181/93 132/178/93 134/182/93 133/183/93 
s 16
f 132/181/94 131/184/94 135/185/94 134/183/94 
s 32
f 131/181/95 130/178/95 136/182/95 135/183/95 
s 64
f 130/181/96 129/184/96 133/185/96 136/183/96 
# 6 polygons

#
# object Box023
#

v  -14.3738 227.6126 1.0000
v  -15.5774 229.2099 1.0000
v  -8.9487 234.2050 1.0000
v  -7.7451 232.6077 1.0000
v  -14.3738 227.6126 1.3000
v  -7.7451 232.6077 1.3000
v  -8.9487 234.2050 1.3000
v  -15.5774 229.2099 1.3000
# 8 vertices

vn 0.0000 0.0000 -1.0000
vn 0.0000 0.0000 1.0000
vn 0.6018 -0.7986 0.0000
vn 0.7986 0.6018 0.0000
vn -0.6018 0.7986 0.0000
vn -0.7986 -0.6018 0.0000
# 6 vertex normals

vt 8.3000 0.0000 0.0000
vt 8.3000 2.0000 0.0000
vt 0.0000 2.0000 0.0000
vt 0.0000 0.0000 0.0000
vt 8.3000 0.3000 0.0000
vt 0.0000 0.3000 0.0000
vt 2.0000 0.0000 0.0000
vt 2.0000 0.3000 0.0000
# 8 texture coords

g Box023
s 2
f 137/186/97 138/187/97 139/188/97 140/189/97 
s 4
f 141/189/98 142/186/98 143/187/98 144/188/98 
s 8
f 137/189/99 140/186/99 142/190/99 141/191/99 
s 16
f 140/189/100 139/192/100 143/193/100 142/191/100 
s 32
f 139/189/101 138/186/101 144/190/101 143/191/101 
s 64
f 138/189/102 137/192/102 141/193/102 144/191/102 
# 6 polygons

#
# object Box021
#

v  -18.3670 224.6035 1.0000
v  -30.1024 240.1769 1.0000
v  -26.1092 243.1860 1.0000
v  -14.3738 227.6126 1.0000
v  -18.3670 224.6035 1.3000
v  -14.3738 227.6126 1.3000
v  -26.1092 243.1860 1.3000
v  -30.1024 240.1769 1.3000
# 8 vertices

vn 0.0000 0.0000 -1.0000
vn 0.0000 0.0000 1.0000
vn 0.6018 -0.7986 0.0000
vn 0.7986 0.6018 0.0000
vn -0.6018 0.7986 0.0000
vn -0.7986 -0.6018 0.0000
# 6 vertex normals

vt 5.0000 0.0000 0.0000
vt 5.0000 19.5000 0.0000
vt 0.0000 19.5000 0.0000
vt 0.0000 0.0000 0.0000
vt 5.0000 0.3000 0.0000
vt 0.0000 0.3000 0.0000
vt 19.5000 0.0000 0.0000
vt 19.5000 0.3000 0.0000
# 8 texture coords

g Box021
s 2
f 145/194/103 146/195/103 147/196/103 148/197/103 
s 4
f 149/197/104 150/194/104 151/195/104 152/196/104 
s 8
f 145/197/105 148/194/105 150/198/105 149/199/105 
s 16
f 148/197/106 147/200/106 151/201/106 150/199/106 
s 32
f 147/197/107 146/194/107 152/198/107 151/199/107 
s 64
f 146/197/108 145/200/108 149/201/108 152/199/108 
# 6 polygons

#
# object Box020
#

v  -6.3874 233.6307 4.0000
v  -18.1228 249.2041 4.0000
v  -16.5255 250.4078 4.0000
v  -4.7902 234.8344 4.0000
v  -6.3874 233.6307 4.3000
v  -4.7902 234.8344 4.3000
v  -16.5255 250.4078 4.3000
v  -18.1228 249.2041 4.3000
# 8 vertices

vn 0.0000 0.0000 -1.0000
vn 0.0000 0.0000 1.0000
vn 0.6018 -0.7986 0.0000
vn 0.7986 0.6018 0.0000
vn -0.6018 0.7986 0.0000
vn -0.7986 -0.6018 0.0000
# 6 vertex normals

vt 2.0000 0.0000 0.0000
vt 2.0000 19.5000 0.0000
vt 0.0000 19.5000 0.0000
vt 0.0000 0.0000 0.0000
vt 2.0000 0.3000 0.0000
vt 0.0000 0.3000 0.0000
vt 19.5000 0.0000 0.0000
vt 19.5000 0.3000 0.0000
# 8 texture coords

g Box020
s 2
f 153/202/109 154/203/109 155/204/109 156/205/109 
s 4
f 157/205/110 158/202/110 159/203/110 160/204/110 
s 8
f 153/205/111 156/202/111 158/206/111 157/207/111 
s 16
f 156/205/112 155/208/112 159/209/112 158/207/112 
s 32
f 155/205/113 154/202/113 160/206/113 159/207/113 
s 64
f 154/205/114 153/208/114 157/209/114 160/207/114 
# 6 polygons

#
# object Box028
#

v  -77.1420 301.7698 1.0000
v  -85.5674 312.9507 1.0000
v  -71.1920 323.7834 1.0000
v  -62.7666 312.6025 1.0000
v  -77.1420 301.7698 1.3000
v  -62.7666 312.6025 1.3000
v  -71.1920 323.7834 1.3000
v  -85.5674 312.9507 1.3000
# 8 vertices

vn 0.0000 0.0000 -1.0000
vn 0.0000 0.0000 1.0000
vn 0.6018 -0.7986 0.0000
vn 0.7986 0.6018 0.0000
vn -0.6018 0.7986 0.0000
vn -0.7986 -0.6018 0.0000
# 6 vertex normals

vt 18.0000 0.0000 0.0000
vt 18.0000 14.0000 0.0000
vt 0.0000 14.0000 0.0000
vt 0.0000 0.0000 0.0000
vt 18.0000 0.3000 0.0000
vt 0.0000 0.3000 0.0000
vt 14.0000 0.0000 0.0000
vt 14.0000 0.3000 0.0000
# 8 texture coords

g Box028
s 2
f 161/210/115 162/211/115 163/212/115 164/213/115 
s 4
f 165/213/116 166/210/116 167/211/116 168/212/116 
s 8
f 161/213/117 164/210/117 166/214/117 165/215/117 
s 16
f 164/213/118 163/216/118 167/217/118 166/215/118 
s 32
f 163/213/119 162/210/119 168/214/119 167/215/119 
s 64
f 162/213/120 161/216/120 165/217/120 168/215/120 
# 6 polygons

