# 3ds Max Wavefront OBJ Exporter v0.97b - (c)2007 guruware
# File Created: 14.01.2016 23:07:27

#
# object B1L1
#

v  15.9878 189.2110 4.0000
v  16.0000 188.0002 0.0000
v  15.9878 189.2110 0.0000
v  15.9511 190.4212 4.0000
v  15.9511 190.4212 0.0000
v  15.8901 191.6305 4.0000
v  15.8901 191.6305 0.0000
v  15.8046 192.8382 4.0000
v  15.8046 192.8382 0.0000
v  15.6948 194.0441 4.0000
v  15.6948 194.0441 0.0000
v  15.5607 195.2474 4.0000
v  15.5607 195.2474 0.0000
v  15.4023 196.4478 4.0000
v  15.4023 196.4478 0.0000
v  15.2198 197.6448 4.0000
v  15.2198 197.6448 0.0000
v  15.0131 198.8378 4.0000
v  15.0131 198.8378 0.0000
v  14.7824 200.0264 4.0000
v  14.7824 200.0264 0.0000
v  14.5277 201.2101 4.0000
v  14.5277 201.2101 0.0000
v  14.2493 202.3885 4.0000
v  14.2493 202.3885 0.0000
v  13.9471 203.5610 4.0000
v  13.9471 203.5610 0.0000
v  13.6213 204.7271 4.0000
v  13.6213 204.7271 0.0000
v  13.2720 205.8864 4.0000
v  13.2720 205.8864 0.0000
v  12.8994 207.0385 4.0000
v  12.8994 207.0385 0.0000
v  12.5036 208.1828 4.0000
v  12.5036 208.1828 0.0000
v  12.0849 209.3189 4.0000
v  12.0849 209.3189 0.0000
v  11.6433 210.4463 4.0000
v  11.6433 210.4463 0.0000
v  11.1790 211.5645 4.0000
v  11.1790 211.5645 0.0000
v  10.6923 212.6732 4.0000
v  10.6923 212.6732 0.0000
v  10.1832 213.7718 4.0000
v  10.1832 213.7718 0.0000
v  9.6522 214.8599 4.0000
v  9.6522 214.8599 0.0000
v  9.0992 215.9371 4.0000
v  9.0992 215.9371 0.0000
v  8.5247 217.0029 4.0000
v  8.5247 217.0029 0.0000
v  7.9288 218.0569 4.0000
v  7.9288 218.0569 0.0000
v  7.3117 219.0986 4.0000
v  7.3117 219.0986 0.0000
v  6.6737 220.1277 4.0000
v  6.6737 220.1277 0.0000
v  6.0151 221.1437 4.0000
v  6.0151 221.1437 0.0000
v  5.3361 222.1462 4.0000
v  5.3361 222.1462 0.0000
v  4.6370 223.1348 4.0000
v  4.6370 223.1348 0.0000
v  3.9181 224.1091 4.0000
v  3.9181 224.1091 0.0000
v  -0.0090 188.8881 0.0000
v  -0.0000 188.0002 4.0000
v  -0.0090 188.8881 4.0000
v  -0.0358 189.7756 0.0000
v  -0.0806 190.6624 4.0000
v  -0.0806 190.6624 0.0000
v  -0.1433 191.5481 0.0000
v  -0.1433 191.5481 4.0000
v  -0.2238 192.4324 0.0000
v  -0.2238 192.4324 4.0000
v  -0.3222 193.3148 0.0000
v  -0.4383 194.1951 4.0000
v  -0.4383 194.1951 0.0000
v  -0.5722 195.0729 0.0000
v  -0.7237 195.9478 4.0000
v  -0.7237 195.9478 0.0000
v  -0.8929 196.8194 4.0000
v  -0.8929 196.8194 0.0000
v  -1.0797 197.6875 0.0000
v  -1.2839 198.5516 4.0000
v  -1.2839 198.5516 0.0000
v  -1.5055 199.4114 0.0000
v  -1.5055 199.4114 4.0000
v  -1.7444 200.2666 0.0000
v  -2.0005 201.1168 4.0000
v  -2.0005 201.1168 0.0000
v  -2.2738 201.9616 4.0000
v  -2.2738 201.9616 0.0000
v  -2.5640 202.8008 0.0000
v  -2.8711 203.6339 4.0000
v  -2.8711 203.6339 0.0000
v  -3.1949 204.4606 0.0000
v  -3.5354 205.2807 4.0000
v  -3.5354 205.2807 0.0000
v  -3.8923 206.0937 4.0000
v  -3.8923 206.0937 0.0000
v  -4.2656 206.8994 4.0000
v  -4.2656 206.8994 0.0000
v  -4.6551 207.6973 4.0000
v  -4.6551 207.6973 0.0000
v  -5.0606 208.4873 4.0000
v  -5.0606 208.4873 0.0000
v  -5.4819 209.2688 0.0000
v  -5.9189 210.0418 4.0000
v  -5.9189 210.0418 0.0000
v  -6.3714 210.8057 0.0000
v  -6.8393 211.5604 4.0000
v  -6.8393 211.5604 0.0000
v  -7.3223 212.3055 4.0000
v  -7.3223 212.3055 0.0000
v  -7.8202 213.0406 4.0000
v  -7.8202 213.0406 0.0000
v  -8.3329 213.7656 4.0000
v  -8.3329 213.7656 0.0000
v  15.9998 56.0002 0.0000
v  16.0000 188.0002 4.0000
v  15.9998 56.0002 4.0000
v  -0.0002 56.0002 0.0000
v  -0.0002 56.0002 4.0000
v  -0.0000 188.0002 0.0000
v  -8.8601 214.4801 4.0000
v  -109.2662 374.2198 4.0000
v  -122.0444 364.5908 4.0000
v  -8.8601 214.4801 0.0000
v  -109.2662 374.2198 0.0000
v  3.8749 224.0765 0.0000
v  -8.8599 214.4799 0.0135
v  3.8749 224.0765 4.0000
v  -8.9032 214.4473 0.0000
v  -8.9032 214.4473 4.0000
v  -122.0444 364.5908 0.0000
v  -0.0358 189.7756 4.0000
v  -0.3222 193.3148 4.0000
v  -0.5722 195.0729 4.0000
v  -1.0797 197.6875 4.0000
v  -1.7444 200.2666 4.0000
v  -2.5640 202.8008 4.0000
v  -3.1949 204.4606 4.0000
v  -5.4819 209.2688 4.0000
v  -6.3714 210.8057 4.0000
v  0.0000 0.0000 0.0000
v  16.0000 56.0000 0.0000
v  16.0000 0.0000 0.0000
v  0.0000 0.0000 4.0000
v  16.0000 56.0000 4.0000
v  0.0000 56.0000 4.0000
v  16.0000 0.0000 4.0000
v  0.0000 56.0000 0.0000
# 153 vertices

vn 0.9998 0.0202 0.0000
vn 0.9999 0.0101 0.0000
vn 0.9992 0.0404 0.0000
vn 0.9982 0.0605 0.0000
vn 0.9967 0.0806 0.0000
vn 0.9949 0.1007 0.0000
vn 0.9927 0.1208 0.0000
vn 0.9900 0.1408 0.0000
vn 0.9870 0.1607 0.0000
vn 0.9836 0.1806 0.0000
vn 0.9797 0.2004 0.0000
vn 0.9755 0.2202 0.0000
vn 0.9708 0.2398 0.0000
vn 0.9658 0.2593 0.0000
vn 0.9604 0.2788 0.0000
vn 0.9545 0.2981 0.0000
vn 0.9483 0.3173 0.0000
vn 0.9417 0.3364 0.0000
vn 0.9347 0.3553 0.0000
vn 0.9274 0.3741 0.0000
vn 0.9197 0.3927 0.0000
vn 0.9115 0.4112 0.0000
vn 0.9031 0.4295 0.0000
vn 0.8942 0.4477 0.0000
vn 0.8850 0.4656 0.0000
vn 0.8754 0.4834 0.0000
vn 0.8655 0.5009 0.0000
vn 0.8552 0.5183 0.0000
vn 0.8446 0.5355 0.0000
vn 0.8336 0.5524 0.0000
vn 0.8223 0.5691 0.0000
vn 0.8106 0.5856 0.0000
vn 0.8047 0.5937 0.0000
vn -0.9998 -0.0202 0.0000
vn -0.9999 -0.0101 0.0000
vn -0.9992 -0.0404 0.0000
vn -0.9982 -0.0605 0.0000
vn -0.9967 -0.0806 0.0000
vn -0.9949 -0.1007 0.0000
vn -0.9927 -0.1208 0.0000
vn -0.9900 -0.1408 0.0000
vn -0.9870 -0.1607 0.0000
vn -0.9836 -0.1806 0.0000
vn -0.9797 -0.2004 0.0000
vn -0.9755 -0.2202 0.0000
vn -0.9708 -0.2398 0.0000
vn -0.9658 -0.2593 0.0000
vn -0.9604 -0.2788 0.0000
vn -0.9545 -0.2981 0.0000
vn -0.9483 -0.3173 0.0000
vn -0.9417 -0.3364 0.0000
vn -0.9347 -0.3553 0.0000
vn -0.9274 -0.3741 0.0000
vn -0.9197 -0.3927 0.0000
vn -0.9197 -0.3927 -0.0000
vn -0.9115 -0.4112 -0.0000
vn -0.9031 -0.4295 -0.0000
vn -0.9031 -0.4295 0.0000
vn -0.8942 -0.4477 0.0000
vn -0.8850 -0.4656 0.0000
vn -0.8754 -0.4834 0.0000
vn -0.8655 -0.5009 0.0000
vn -0.8552 -0.5183 0.0000
vn -0.8446 -0.5355 0.0000
vn -0.8446 -0.5355 -0.0000
vn -0.8336 -0.5524 -0.0000
vn -0.8223 -0.5691 -0.0000
vn -0.8223 -0.5691 0.0000
vn -0.8106 -0.5856 -0.0000
vn -0.8106 -0.5856 0.0000
vn 1.0000 -0.0000 0.0000
vn 0.0000 -1.0000 0.0000
vn -1.0000 0.0000 0.0000
vn 0.0000 0.0000 1.0000
vn 0.0000 0.0000 -1.0000
vn -0.8047 -0.5937 0.0001
vn -0.8047 -0.5937 -0.0000
vn -0.6018 0.7986 0.0000
vn 0.7986 0.6018 0.0000
vn -0.7986 -0.6018 0.0000
vn 0.6032 -0.7975 -0.0071
vn 0.6051 -0.7961 0.0001
vn 0.6023 -0.7982 -0.0026
vn 0.6051 -0.7960 -0.0168
vn -0.8047 -0.5937 0.0002
vn 0.6052 -0.7961 0.0001
vn 1.0000 0.0000 0.0000
vn 0.0000 1.0000 0.0000
# 88 vertex normals

vt 0.7532 1.0000 1.0000
vt 0.7500 0.0000 1.0000
vt 0.7532 0.0000 1.0000
vt 0.7564 1.0000 1.0000
vt 0.7564 0.0000 1.0000
vt 0.7596 1.0000 1.0000
vt 0.7596 0.0000 1.0000
vt 0.7628 1.0000 1.0000
vt 0.7628 0.0000 1.0000
vt 0.7661 1.0000 1.0000
vt 0.7661 0.0000 1.0000
vt 0.7693 1.0000 1.0000
vt 0.7693 0.0000 1.0000
vt 0.7725 1.0000 1.0000
vt 0.7725 0.0000 1.0000
vt 0.7757 1.0000 1.0000
vt 0.7757 0.0000 1.0000
vt 0.7789 1.0000 1.0000
vt 0.7789 0.0000 1.0000
vt 0.7821 1.0000 1.0000
vt 0.7821 0.0000 1.0000
vt 0.7853 1.0000 1.0000
vt 0.7853 0.0000 1.0000
vt 0.7885 1.0000 1.0000
vt 0.7885 0.0000 1.0000
vt 0.7918 1.0000 1.0000
vt 0.7918 0.0000 1.0000
vt 0.7950 1.0000 1.0000
vt 0.7950 0.0000 1.0000
vt 0.7982 1.0000 1.0000
vt 0.7982 0.0000 1.0000
vt 0.8014 1.0000 1.0000
vt 0.8014 0.0000 1.0000
vt 0.8046 1.0000 1.0000
vt 0.8046 0.0000 1.0000
vt 0.8078 1.0000 1.0000
vt 0.8078 0.0000 1.0000
vt 0.8110 1.0000 1.0000
vt 0.8110 0.0000 1.0000
vt 0.8142 1.0000 1.0000
vt 0.8142 0.0000 1.0000
vt 0.8174 1.0000 1.0000
vt 0.8174 0.0000 1.0000
vt 0.8207 1.0000 1.0000
vt 0.8207 0.0000 1.0000
vt 0.8239 1.0000 1.0000
vt 0.8239 0.0000 1.0000
vt 0.8271 1.0000 1.0000
vt 0.8271 0.0000 1.0000
vt 0.8303 1.0000 1.0000
vt 0.8303 0.0000 1.0000
vt 0.8335 1.0000 1.0000
vt 0.8335 0.0000 1.0000
vt 0.8367 1.0000 1.0000
vt 0.8367 0.0000 1.0000
vt 0.8399 1.0000 1.0000
vt 0.8399 0.0000 1.0000
vt 0.8431 1.0000 1.0000
vt 0.8431 0.0000 1.0000
vt 0.8464 1.0000 1.0000
vt 0.8464 0.0000 1.0000
vt 0.8496 1.0000 1.0000
vt 0.8496 0.0000 1.0000
vt 0.8528 1.0000 1.0000
vt 0.8528 0.0000 1.0000
vt 0.7500 1.0000 1.0000
vt 0.0000 0.0000 0.0000
vt 1.0000 1.0000 0.0000
vt 0.0000 1.0000 0.0000
vt -0.5537 1.2006 0.0000
vt -6.8291 2.4108 0.0000
vt -7.6278 2.3378 0.0000
vt 1.5537 1.2006 0.0000
vt 7.8291 2.4108 0.0000
vt 0.7578 1.2733 0.0000
vt 0.8528 0.0034 1.0000
vt 0.8525 0.0000 0.9991
vt 1.4242 0.0000 0.0000
vt -0.4242 1.0000 0.0000
vt 1.0000 0.0000 0.0000
vt 0.0034 0.0034 0.0000
vt 0.0034 0.0000 0.0000
vt 0.2422 1.2733 0.0000
vt 0.2898 1.2662 0.0000
vt 0.2449 1.2736 0.0000
vt 0.9992 1.0092 0.0000
vt -0.0006 1.0067 0.0000
vt 0.9970 1.0183 0.0000
vt -0.0022 1.0134 0.0000
vt 0.9931 1.0275 0.0000
vt -0.0050 1.0202 0.0000
vt 0.9878 1.0367 0.0000
vt -0.0089 1.0269 0.0000
vt 0.9809 1.0458 0.0000
vt -0.0140 1.0336 0.0000
vt 0.9726 1.0549 0.0000
vt -0.0201 1.0403 0.0000
vt 0.9627 1.0640 0.0000
vt -0.0274 1.0469 0.0000
vt 0.9512 1.0731 0.0000
vt -0.0358 1.0536 0.0000
vt 0.9383 1.0821 0.0000
vt -0.0452 1.0602 0.0000
vt 0.9239 1.0911 0.0000
vt -0.0558 1.0668 0.0000
vt 0.9080 1.1001 0.0000
vt -0.0675 1.0734 0.0000
vt 0.8906 1.1090 0.0000
vt -0.0802 1.0799 0.0000
vt 0.8717 1.1179 0.0000
vt -0.0941 1.0864 0.0000
vt 0.8513 1.1267 0.0000
vt -0.1090 1.0929 0.0000
vt 0.8295 1.1355 0.0000
vt -0.1250 1.0994 0.0000
vt 0.8062 1.1442 0.0000
vt -0.1421 1.1058 0.0000
vt 0.7815 1.1529 0.0000
vt -0.1602 1.1121 0.0000
vt 0.7553 1.1615 0.0000
vt -0.1794 1.1184 0.0000
vt 0.7277 1.1700 0.0000
vt -0.1997 1.1247 0.0000
vt 0.6987 1.1785 0.0000
vt -0.2210 1.1309 0.0000
vt 0.6683 1.1869 0.0000
vt -0.2433 1.1371 0.0000
vt 0.6365 1.1952 0.0000
vt -0.2666 1.1432 0.0000
vt 0.6033 1.2035 0.0000
vt -0.2909 1.1492 0.0000
vt 0.5687 1.2116 0.0000
vt -0.3163 1.1552 0.0000
vt 0.5328 1.2197 0.0000
vt -0.3426 1.1611 0.0000
vt 0.4956 1.2277 0.0000
vt -0.3699 1.1670 0.0000
vt 0.4570 1.2356 0.0000
vt -0.3982 1.1728 0.0000
vt 0.4171 1.2434 0.0000
vt -0.4274 1.1785 0.0000
vt 0.3760 1.2511 0.0000
vt -0.4576 1.1841 0.0000
vt 0.3335 1.2587 0.0000
vt -0.4888 1.1897 0.0000
vt -0.5208 1.1952 0.0000
vt -0.5564 1.2004 0.0000
vt 0.7102 1.2662 0.0000
vt 0.7551 1.2736 0.0000
vt -0.0000 1.0000 0.0000
vt 0.0008 1.0092 0.0000
vt 1.0006 1.0067 0.0000
vt 0.0030 1.0183 0.0000
vt 1.0022 1.0135 0.0000
vt 0.0069 1.0275 0.0000
vt 1.0050 1.0202 0.0000
vt 0.0122 1.0367 0.0000
vt 1.0089 1.0269 0.0000
vt 0.0191 1.0458 0.0000
vt 1.0140 1.0336 0.0000
vt 0.0274 1.0549 0.0000
vt 1.0201 1.0403 0.0000
vt 0.0373 1.0640 0.0000
vt 1.0274 1.0469 0.0000
vt 0.0488 1.0731 0.0000
vt 1.0358 1.0536 0.0000
vt 0.0617 1.0821 0.0000
vt 1.0452 1.0602 0.0000
vt 0.0761 1.0911 0.0000
vt 1.0558 1.0668 0.0000
vt 0.0920 1.1001 0.0000
vt 1.0675 1.0734 0.0000
vt 0.1094 1.1090 0.0000
vt 1.0802 1.0799 0.0000
vt 0.1283 1.1179 0.0000
vt 1.0941 1.0864 0.0000
vt 0.1487 1.1267 0.0000
vt 1.1090 1.0929 0.0000
vt 0.1705 1.1355 0.0000
vt 1.1250 1.0994 0.0000
vt 0.1938 1.1442 0.0000
vt 1.1421 1.1058 0.0000
vt 0.2185 1.1529 0.0000
vt 1.1602 1.1121 0.0000
vt 0.2447 1.1615 0.0000
vt 1.1794 1.1184 0.0000
vt 0.2723 1.1700 0.0000
vt 1.1997 1.1247 0.0000
vt 0.3013 1.1785 0.0000
vt 1.2210 1.1309 0.0000
vt 0.3317 1.1869 0.0000
vt 1.2433 1.1371 0.0000
vt 0.3635 1.1952 0.0000
vt 1.2666 1.1432 0.0000
vt 0.3967 1.2035 0.0000
vt 1.2909 1.1492 0.0000
vt 0.4313 1.2116 0.0000
vt 1.3163 1.1552 0.0000
vt 0.4672 1.2197 0.0000
vt 1.3426 1.1611 0.0000
vt 0.5044 1.2277 0.0000
vt 1.3699 1.1670 0.0000
vt 0.5430 1.2356 0.0000
vt 1.3982 1.1728 0.0000
vt 0.5829 1.2434 0.0000
vt 1.4274 1.1785 0.0000
vt 0.6240 1.2511 0.0000
vt 1.4576 1.1841 0.0000
vt 0.6665 1.2587 0.0000
vt 1.4888 1.1897 0.0000
vt 1.5208 1.1952 0.0000
vt 8.6278 2.3378 0.0000
vt 1.5564 1.2004 0.0000
vt 0.8525 1.0000 0.9991
vt 1.4242 1.0000 0.0000
vt -0.4242 0.0000 0.0000
vt 0.0034 1.0000 0.0000
# 217 texture coords

g B1L1
f 1/1/1 2/2/2 3/3/1 
f 4/4/3 3/3/1 5/5/3 
f 6/6/4 5/5/3 7/7/4 
f 8/8/5 7/7/4 9/9/5 
f 10/10/6 9/9/5 11/11/6 
f 12/12/7 11/11/6 13/13/7 
f 14/14/8 13/13/7 15/15/8 
f 16/16/9 15/15/8 17/17/9 
f 18/18/10 17/17/9 19/19/10 
f 20/20/11 19/19/10 21/21/11 
f 22/22/12 21/21/11 23/23/12 
f 24/24/13 23/23/12 25/25/13 
f 26/26/14 25/25/13 27/27/14 
f 28/28/15 27/27/14 29/29/15 
f 30/30/16 29/29/15 31/31/16 
f 32/32/17 31/31/16 33/33/17 
f 34/34/18 33/33/17 35/35/18 
f 36/36/19 35/35/18 37/37/19 
f 38/38/20 37/37/19 39/39/20 
f 40/40/21 39/39/20 41/41/21 
f 42/42/22 41/41/21 43/43/22 
f 44/44/23 43/43/22 45/45/23 
f 46/46/24 45/45/23 47/47/24 
f 48/48/25 47/47/24 49/49/25 
f 50/50/26 49/49/25 51/51/26 
f 52/52/27 51/51/26 53/53/27 
f 54/54/28 53/53/27 55/55/28 
f 56/56/29 55/55/28 57/57/29 
f 58/58/30 57/57/29 59/59/30 
f 60/60/31 59/59/30 61/61/31 
f 62/62/32 61/61/31 63/63/32 
f 64/64/33 63/63/32 65/65/33 
f 66/3/34 67/66/35 68/1/34 
f 68/1/34 69/5/36 66/3/34 
f 69/5/36 70/6/37 71/7/37 
f 70/6/37 72/9/38 71/7/37 
f 73/8/38 74/11/39 72/9/38 
f 75/10/39 76/13/40 74/11/39 
f 76/13/40 77/14/41 78/15/41 
f 77/14/41 79/17/42 78/15/41 
f 79/17/42 80/18/43 81/19/43 
f 81/19/43 82/20/44 83/21/44 
f 82/20/44 84/23/45 83/21/44 
f 84/23/45 85/24/46 86/25/46 
f 85/24/46 87/27/47 86/25/46 
f 88/26/47 89/29/48 87/27/47 
f 89/29/48 90/30/49 91/31/49 
f 91/31/49 92/32/50 93/33/50 
f 92/32/50 94/35/51 93/33/50 
f 94/35/51 95/36/52 96/37/52 
f 95/36/52 97/39/53 96/37/52 
f 97/39/53 98/40/54 99/41/55 
f 99/41/55 100/42/56 101/43/56 
f 101/43/56 102/44/57 103/45/58 
f 103/45/58 104/46/59 105/47/59 
f 105/47/59 106/48/60 107/49/60 
f 106/48/60 108/51/61 107/49/60 
f 108/51/61 109/52/62 110/53/62 
f 109/52/62 111/55/63 110/53/62 
f 111/55/63 112/56/64 113/57/65 
f 113/57/65 114/58/66 115/59/66 
f 115/59/66 116/60/67 117/61/68 
f 117/61/68 118/62/69 119/63/70 
f 120/67/71 121/68/71 122/69/71 
f 123/67/72 122/68/72 124/69/72 
f 125/67/73 124/68/73 67/69/73 
f 126/70/74 127/71/74 128/72/74 
f 129/73/75 130/74/75 131/75/75 
f 132/76/76 118/62/69 126/64/77 
f 131/77/78 64/64/78 65/65/78 
f 130/78/79 133/69/79 131/67/79 
f 128/79/80 134/80/80 135/68/80 
f 132/81/81 135/69/82 134/67/83 
f 129/82/84 132/81/81 134/67/83 
f 128/68/78 130/67/78 136/80/78 
f 2/2/2 1/1/1 121/66/2 
f 3/3/1 4/4/3 1/1/1 
f 5/5/3 6/6/4 4/4/3 
f 7/7/4 8/8/5 6/6/4 
f 9/9/5 10/10/6 8/8/5 
f 11/11/6 12/12/7 10/10/6 
f 13/13/7 14/14/8 12/12/7 
f 15/15/8 16/16/9 14/14/8 
f 17/17/9 18/18/10 16/16/9 
f 19/19/10 20/20/11 18/18/10 
f 21/21/11 22/22/12 20/20/11 
f 23/23/12 24/24/13 22/22/12 
f 25/25/13 26/26/14 24/24/13 
f 27/27/14 28/28/15 26/26/14 
f 29/29/15 30/30/16 28/28/15 
f 31/31/16 32/32/17 30/30/16 
f 33/33/17 34/34/18 32/32/17 
f 35/35/18 36/36/19 34/34/18 
f 37/37/19 38/38/20 36/36/19 
f 39/39/20 40/40/21 38/38/20 
f 41/41/21 42/42/22 40/40/21 
f 43/43/22 44/44/23 42/42/22 
f 45/45/23 46/46/24 44/44/23 
f 47/47/24 48/48/25 46/46/24 
f 49/49/25 50/50/26 48/48/25 
f 51/51/26 52/52/27 50/50/26 
f 53/53/27 54/54/28 52/52/27 
f 55/55/28 56/56/29 54/54/28 
f 57/57/29 58/58/30 56/56/29 
f 59/59/30 60/60/31 58/58/30 
f 61/61/31 62/62/32 60/60/31 
f 63/63/32 64/64/33 62/62/32 
f 67/66/35 66/3/34 125/2/35 
f 69/5/36 68/1/34 137/4/36 
f 70/6/37 69/5/36 137/4/36 
f 72/9/38 70/6/37 73/8/38 
f 74/11/39 73/8/38 75/10/39 
f 76/13/40 75/10/39 138/12/40 
f 77/14/41 76/13/40 138/12/40 
f 79/17/42 77/14/41 139/16/42 
f 80/18/43 79/17/42 139/16/42 
f 82/20/44 81/19/43 80/18/43 
f 84/23/45 82/20/44 140/22/45 
f 85/24/46 84/23/45 140/22/45 
f 87/27/47 85/24/46 88/26/47 
f 89/29/48 88/26/47 141/28/48 
f 90/30/49 89/29/48 141/28/48 
f 92/32/50 91/31/49 90/30/49 
f 94/35/51 92/32/50 142/34/51 
f 95/36/52 94/35/51 142/34/51 
f 97/39/53 95/36/52 143/38/53 
f 98/40/54 97/39/53 143/38/53 
f 100/42/56 99/41/55 98/40/54 
f 102/44/57 101/43/56 100/42/56 
f 104/46/59 103/45/58 102/44/57 
f 106/48/60 105/47/59 104/46/59 
f 108/51/61 106/48/60 144/50/61 
f 109/52/62 108/51/61 144/50/61 
f 111/55/63 109/52/62 145/54/63 
f 112/56/64 111/55/63 145/54/63 
f 114/58/66 113/57/65 112/56/64 
f 116/60/67 115/59/66 114/58/66 
f 118/62/69 117/61/68 116/60/67 
f 121/68/71 120/67/71 2/80/71 
f 122/68/72 123/67/72 120/80/72 
f 124/68/73 125/67/73 123/80/73 
f 133/83/74 62/84/74 64/85/74 
f 122/80/74 67/69/74 124/67/74 
f 121/68/74 67/69/74 122/80/74 
f 1/86/74 67/69/74 121/68/74 
f 1/86/74 68/87/74 67/69/74 
f 4/88/74 68/87/74 1/86/74 
f 4/88/74 137/89/74 68/87/74 
f 6/90/74 137/89/74 4/88/74 
f 6/90/74 70/91/74 137/89/74 
f 8/92/74 70/91/74 6/90/74 
f 8/92/74 73/93/74 70/91/74 
f 10/94/74 73/93/74 8/92/74 
f 10/94/74 75/95/74 73/93/74 
f 12/96/74 75/95/74 10/94/74 
f 12/96/74 138/97/74 75/95/74 
f 14/98/74 138/97/74 12/96/74 
f 14/98/74 77/99/74 138/97/74 
f 16/100/74 77/99/74 14/98/74 
f 16/100/74 139/101/74 77/99/74 
f 18/102/74 139/101/74 16/100/74 
f 18/102/74 80/103/74 139/101/74 
f 20/104/74 80/103/74 18/102/74 
f 20/104/74 82/105/74 80/103/74 
f 22/106/74 82/105/74 20/104/74 
f 22/106/74 140/107/74 82/105/74 
f 24/108/74 140/107/74 22/106/74 
f 24/108/74 85/109/74 140/107/74 
f 26/110/74 85/109/74 24/108/74 
f 26/110/74 88/111/74 85/109/74 
f 28/112/74 88/111/74 26/110/74 
f 28/112/74 141/113/74 88/111/74 
f 30/114/74 141/113/74 28/112/74 
f 30/114/74 90/115/74 141/113/74 
f 32/116/74 90/115/74 30/114/74 
f 32/116/74 92/117/74 90/115/74 
f 34/118/74 92/117/74 32/116/74 
f 34/118/74 142/119/74 92/117/74 
f 36/120/74 142/119/74 34/118/74 
f 36/120/74 95/121/74 142/119/74 
f 38/122/74 95/121/74 36/120/74 
f 38/122/74 143/123/74 95/121/74 
f 40/124/74 143/123/74 38/122/74 
f 40/124/74 98/125/74 143/123/74 
f 42/126/74 98/125/74 40/124/74 
f 42/126/74 100/127/74 98/125/74 
f 44/128/74 100/127/74 42/126/74 
f 44/128/74 102/129/74 100/127/74 
f 46/130/74 102/129/74 44/128/74 
f 46/130/74 104/131/74 102/129/74 
f 48/132/74 104/131/74 46/130/74 
f 48/132/74 106/133/74 104/131/74 
f 50/134/74 106/133/74 48/132/74 
f 50/134/74 144/135/74 106/133/74 
f 52/136/74 144/135/74 50/134/74 
f 52/136/74 109/137/74 144/135/74 
f 54/138/74 109/137/74 52/136/74 
f 54/138/74 145/139/74 109/137/74 
f 56/140/74 145/139/74 54/138/74 
f 56/140/74 112/141/74 145/139/74 
f 58/142/74 112/141/74 56/140/74 
f 58/142/74 114/143/74 112/141/74 
f 60/144/74 114/143/74 58/142/74 
f 60/144/74 116/145/74 114/143/74 
f 62/84/74 116/145/74 60/144/74 
f 62/84/74 118/146/74 116/145/74 
f 133/83/74 118/146/74 62/84/74 
f 133/83/74 126/70/74 118/146/74 
f 126/70/74 128/72/74 135/147/74 
f 127/71/74 126/70/74 133/83/74 
f 63/148/75 131/75/75 65/149/75 
f 125/68/75 120/67/75 123/80/75 
f 125/68/75 2/150/75 120/67/75 
f 125/68/75 3/151/75 2/150/75 
f 66/152/75 3/151/75 125/68/75 
f 66/152/75 5/153/75 3/151/75 
f 69/154/75 5/153/75 66/152/75 
f 69/154/75 7/155/75 5/153/75 
f 71/156/75 7/155/75 69/154/75 
f 71/156/75 9/157/75 7/155/75 
f 72/158/75 9/157/75 71/156/75 
f 72/158/75 11/159/75 9/157/75 
f 74/160/75 11/159/75 72/158/75 
f 74/160/75 13/161/75 11/159/75 
f 76/162/75 13/161/75 74/160/75 
f 76/162/75 15/163/75 13/161/75 
f 78/164/75 15/163/75 76/162/75 
f 78/164/75 17/165/75 15/163/75 
f 79/166/75 17/165/75 78/164/75 
f 79/166/75 19/167/75 17/165/75 
f 81/168/75 19/167/75 79/166/75 
f 81/168/75 21/169/75 19/167/75 
f 83/170/75 21/169/75 81/168/75 
f 83/170/75 23/171/75 21/169/75 
f 84/172/75 23/171/75 83/170/75 
f 84/172/75 25/173/75 23/171/75 
f 86/174/75 25/173/75 84/172/75 
f 86/174/75 27/175/75 25/173/75 
f 87/176/75 27/175/75 86/174/75 
f 87/176/75 29/177/75 27/175/75 
f 89/178/75 29/177/75 87/176/75 
f 89/178/75 31/179/75 29/177/75 
f 91/180/75 31/179/75 89/178/75 
f 91/180/75 33/181/75 31/179/75 
f 93/182/75 33/181/75 91/180/75 
f 93/182/75 35/183/75 33/181/75 
f 94/184/75 35/183/75 93/182/75 
f 94/184/75 37/185/75 35/183/75 
f 96/186/75 37/185/75 94/184/75 
f 96/186/75 39/187/75 37/185/75 
f 97/188/75 39/187/75 96/186/75 
f 97/188/75 41/189/75 39/187/75 
f 99/190/75 41/189/75 97/188/75 
f 99/190/75 43/191/75 41/189/75 
f 101/192/75 43/191/75 99/190/75 
f 101/192/75 45/193/75 43/191/75 
f 103/194/75 45/193/75 101/192/75 
f 103/194/75 47/195/75 45/193/75 
f 105/196/75 47/195/75 103/194/75 
f 105/196/75 49/197/75 47/195/75 
f 107/198/75 49/197/75 105/196/75 
f 107/198/75 51/199/75 49/197/75 
f 108/200/75 51/199/75 107/198/75 
f 108/200/75 53/201/75 51/199/75 
f 110/202/75 53/201/75 108/200/75 
f 110/202/75 55/203/75 53/201/75 
f 111/204/75 55/203/75 110/202/75 
f 111/204/75 57/205/75 55/203/75 
f 113/206/75 57/205/75 111/204/75 
f 113/206/75 59/207/75 57/205/75 
f 115/208/75 59/207/75 113/206/75 
f 115/208/75 61/209/75 59/207/75 
f 117/210/75 61/209/75 115/208/75 
f 117/210/75 63/148/75 61/209/75 
f 119/211/75 63/148/75 117/210/75 
f 119/211/75 131/75/75 63/148/75 
f 129/73/75 131/75/75 119/211/75 
f 136/212/75 129/73/75 134/213/75 
f 130/74/75 129/73/75 136/212/75 
f 119/63/70 132/76/76 129/65/85 
f 118/62/69 132/76/76 119/63/70 
f 64/64/78 131/77/78 133/214/78 
f 133/69/79 130/78/79 127/215/79 
f 134/80/80 128/79/80 136/216/80 
f 135/69/82 132/81/81 126/217/86 
f 130/67/78 128/68/78 127/69/78 
f 146/80/75 147/69/75 148/67/75 
f 149/67/74 150/68/74 151/69/74 
f 146/67/72 152/68/72 149/69/72 
f 148/67/87 150/68/87 152/69/87 
f 147/67/88 151/68/88 150/69/88 
f 153/67/73 149/68/73 151/69/73 
f 147/69/75 146/80/75 153/68/75 
f 150/68/74 149/67/74 152/80/74 
f 152/68/72 146/67/72 148/80/72 
f 150/68/87 148/67/87 147/80/87 
f 151/68/88 147/67/88 153/80/88 
f 149/68/73 153/67/73 146/80/73 
# 298 faces

