# 3ds Max Wavefront OBJ Exporter v0.97b - (c)2007 guruware
# File Created: 17.01.2016 22:09:25

#
# object Box056
#

v  -88.2996 319.8997 0.0000
v  -122.0012 364.6233 0.0000
v  -109.2231 374.2523 0.0000
v  -75.5214 329.5287 0.0000
v  -88.2996 319.8997 0.3000
v  -75.5214 329.5287 0.3000
v  -109.2231 374.2523 0.3000
v  -122.0012 364.6233 0.3000
# 8 vertices

vn 0.0000 0.0000 -1.0000
vn 0.0000 0.0000 1.0000
vn 0.6018 -0.7986 0.0000
vn 0.7986 0.6018 0.0000
vn -0.6018 0.7986 0.0000
vn -0.7986 -0.6018 0.0000
# 6 vertex normals

vt 1.0000 0.0000 0.0000
vt 1.0000 1.0000 0.0000
vt 0.0000 1.0000 0.0000
vt 0.0000 0.0000 0.0000
# 4 texture coords

g Box056
s 2
f 1/1/1 2/2/1 3/3/1 
f 3/3/1 4/4/1 1/1/1 
s 4
f 5/4/2 6/1/2 7/2/2 
f 7/2/2 8/3/2 5/4/2 
s 8
f 1/4/3 4/1/3 6/2/3 
f 6/2/3 5/3/3 1/4/3 
s 16
f 4/4/4 3/1/4 7/2/4 
f 7/2/4 6/3/4 4/4/4 
s 32
f 3/4/5 2/1/5 8/2/5 
f 8/2/5 7/3/5 3/4/5 
s 64
f 2/4/6 1/1/6 5/2/6 
f 5/2/6 8/3/6 2/4/6 
# 12 faces

#
# object Wall001
#

v  16.0000 0.0000 1.0000
v  15.5000 0.0000 1.0000
v  16.0000 0.0000 0.0000
v  15.5000 0.0000 0.0000
v  15.5000 0.5000 1.0000
v  15.5000 0.5000 0.0000
v  16.0000 0.5000 1.0000
v  16.0000 0.5000 0.0000
v  0.0000 0.0000 1.0000
v  0.0000 0.5000 1.0000
v  0.0000 0.0000 0.0000
v  0.0000 0.5000 0.0000
v  0.5000 0.5000 1.0000
v  0.5000 0.5000 0.0000
v  0.5000 0.0000 1.0000
v  0.5000 0.0000 0.0000
v  16.0000 56.0000 1.0000
v  16.0000 55.5000 1.0000
v  16.0000 56.0000 0.0000
v  16.0000 55.5000 0.0000
v  15.5000 55.5000 1.0000
v  15.5000 55.5000 0.0000
v  15.5000 56.0000 1.0000
v  15.5000 56.0000 0.0000
v  0.0000 56.0000 1.0000
v  0.5000 56.0000 1.0000
v  0.0000 56.0000 0.0000
v  0.5000 56.0000 0.0000
v  0.5000 55.5000 1.0000
v  0.5000 55.5000 0.0000
v  0.0000 55.5000 1.0000
v  0.0000 55.5000 0.0000
# 32 vertices

vn 0.0000 -1.0000 0.0000
vn -1.0000 0.0000 0.0000
vn 0.0000 1.0000 0.0000
vn 1.0000 0.0000 0.0000
vn 0.0000 0.0000 1.0000
vn 0.0000 0.0000 -1.0000
# 6 vertex normals

vt 1.0000 1.5000 0.0000
vt 0.9688 1.5000 0.0000
vt 1.0000 0.5000 0.0000
vt 0.9688 0.5000 0.0000
vt 1.0000 1.5000 0.9688
vt 0.9911 1.5000 0.9688
vt 1.0000 0.5000 0.9688
vt 0.9911 0.5000 0.9688
vt 0.0313 1.5000 0.0089
vt 0.0000 1.5000 0.0089
vt 0.0313 0.5000 0.0089
vt 0.0000 0.5000 0.0089
vt 0.0089 1.5000 1.0000
vt 0.0000 1.5000 1.0000
vt 0.0089 0.5000 1.0000
vt 0.0000 0.5000 1.0000
vt 0.9688 0.0000 1.5000
vt 1.0000 0.0000 1.5000
vt 0.9688 0.0089 1.5000
vt 1.0000 0.0089 1.5000
vt 0.0313 0.0000 0.5000
vt 0.0313 0.0089 0.5000
vt 0.0000 0.0000 0.5000
vt 0.0000 0.0089 0.5000
vt 0.9911 1.5000 0.0000
vt 0.9911 0.5000 0.0000
vt 1.0000 1.5000 0.0089
vt 0.9688 1.5000 0.0089
vt 1.0000 0.5000 0.0089
vt 0.9688 0.5000 0.0089
vt 0.0089 1.5000 0.0313
vt 0.0000 1.5000 0.0313
vt 0.0089 0.5000 0.0313
vt 0.0000 0.5000 0.0313
vt 0.0313 1.5000 0.0000
vt 0.0000 1.5000 0.0000
vt 0.0313 0.5000 0.0000
vt 0.0000 0.5000 0.0000
vt 0.0000 0.0089 1.5000
vt 0.0000 0.0000 1.5000
vt 0.0313 0.0089 1.5000
vt 0.0313 0.0000 1.5000
vt 1.0000 0.0089 0.5000
vt 0.9688 0.0089 0.5000
vt 1.0000 0.0000 0.5000
vt 0.9688 0.0000 0.5000
vt 1.0000 1.5000 1.0000
vt 0.9911 1.5000 1.0000
vt 1.0000 0.5000 1.0000
vt 0.9911 0.5000 1.0000
vt 1.0000 1.5000 0.9911
vt 0.9688 1.5000 0.9911
vt 1.0000 0.5000 0.9911
vt 0.9688 0.5000 0.9911
vt 0.0089 1.5000 0.9688
vt 0.0000 1.5000 0.9688
vt 0.0089 0.5000 0.9688
vt 0.0000 0.5000 0.9688
vt 0.0313 1.5000 1.0000
vt 0.0313 0.5000 1.0000
vt 1.0000 0.9911 1.5000
vt 1.0000 1.0000 1.5000
vt 0.9688 0.9911 1.5000
vt 0.9688 1.0000 1.5000
vt 0.0000 0.9911 0.5000
vt 0.0313 0.9911 0.5000
vt 0.0000 1.0000 0.5000
vt 0.0313 1.0000 0.5000
vt 0.9688 1.5000 1.0000
vt 0.9688 0.5000 1.0000
vt 1.0000 1.5000 0.0313
vt 0.9911 1.5000 0.0313
vt 1.0000 0.5000 0.0313
vt 0.9911 0.5000 0.0313
vt 0.0313 1.5000 0.9911
vt 0.0000 1.5000 0.9911
vt 0.0313 0.5000 0.9911
vt 0.0000 0.5000 0.9911
vt 0.0089 1.5000 0.0000
vt 0.0089 0.5000 0.0000
vt 0.0313 1.0000 1.5000
vt 0.0000 1.0000 1.5000
vt 0.0313 0.9911 1.5000
vt 0.0000 0.9911 1.5000
vt 0.9688 1.0000 0.5000
vt 0.9688 0.9911 0.5000
vt 1.0000 1.0000 0.5000
vt 1.0000 0.9911 0.5000
# 88 texture coords

g Wall001
s off
f 9/5/7 10/6/7 11/7/7 
f 11/7/7 10/6/7 12/8/7 
f 10/9/8 13/10/8 12/11/8 
f 12/11/8 13/10/8 14/12/8 
f 13/13/9 15/14/9 14/15/9 
f 14/15/9 15/14/9 16/16/9 
f 15/17/10 9/18/10 16/19/10 
f 16/19/10 9/18/10 11/20/10 
f 10/21/11 9/22/11 13/23/11 
f 9/22/11 15/24/11 13/23/11 
f 12/25/12 14/26/12 11/27/12 
f 14/26/12 16/28/12 11/27/12 
f 17/5/8 18/29/8 19/7/8 
f 19/7/8 18/29/8 20/30/8 
f 18/31/9 21/32/9 20/33/9 
f 20/33/9 21/32/9 22/34/9 
f 21/35/10 23/36/10 22/37/10 
f 22/37/10 23/36/10 24/38/10 
f 23/39/7 17/40/7 24/41/7 
f 24/41/7 17/40/7 19/42/7 
f 18/43/11 17/44/11 21/45/11 
f 17/44/11 23/46/11 21/45/11 
f 20/47/12 22/48/12 19/49/12 
f 22/48/12 24/50/12 19/49/12 
f 25/51/10 26/52/10 27/53/10 
f 27/53/10 26/52/10 28/54/10 
f 26/55/7 29/56/7 28/57/7 
f 28/57/7 29/56/7 30/58/7 
f 29/59/8 31/60/8 30/61/8 
f 30/61/8 31/60/8 32/62/8 
f 31/63/9 25/18/9 32/64/9 
f 32/64/9 25/18/9 27/20/9 
f 26/65/11 25/66/11 29/67/11 
f 25/66/11 31/68/11 29/67/11 
f 28/69/12 30/70/12 27/71/12 
f 30/70/12 32/72/12 27/71/12 
f 33/51/9 34/73/9 35/53/9 
f 35/53/9 34/73/9 36/74/9 
f 34/75/10 37/76/10 36/77/10 
f 36/77/10 37/76/10 38/78/10 
f 37/79/7 39/80/7 38/81/7 
f 38/81/7 39/80/7 40/82/7 
f 39/83/8 33/40/8 40/84/8 
f 40/84/8 33/40/8 35/42/8 
f 34/85/11 33/86/11 37/87/11 
f 33/86/11 39/88/11 37/87/11 
f 36/89/12 38/90/12 35/91/12 
f 38/90/12 40/92/12 35/91/12 
s 1
f 30/61/8 14/12/8 29/59/8 
f 14/12/8 13/10/8 29/59/8 
s 2
f 29/67/11 13/23/11 26/65/11 
f 13/23/11 15/24/11 26/65/11 
s 1
f 26/52/10 15/17/10 28/54/10 
f 15/17/10 16/19/10 28/54/10 
s 2
f 28/69/12 16/28/12 30/70/12 
f 16/28/12 14/26/12 30/70/12 
s 4
f 29/79/9 26/80/9 30/81/9 
f 26/80/9 28/82/9 30/81/9 
f 13/32/7 14/34/7 15/31/7 
f 14/34/7 16/33/7 15/31/7 
s 1
f 21/32/9 13/13/9 22/34/9 
f 13/13/9 14/15/9 22/34/9 
s 2
f 22/48/12 14/26/12 24/50/12 
f 14/26/12 12/25/12 24/50/12 
s 1
f 24/41/7 12/8/7 23/39/7 
f 12/8/7 10/6/7 23/39/7 
s 2
f 23/46/11 10/21/11 21/45/11 
f 10/21/11 13/23/11 21/45/11 
s 4
f 22/78/8 24/77/8 21/76/8 
f 24/77/8 23/75/8 21/76/8 
f 10/60/10 12/62/10 13/59/10 
f 12/62/10 14/61/10 13/59/10 
s 1
f 37/76/10 21/35/10 38/78/10 
f 21/35/10 22/37/10 38/78/10 
s 2
f 38/90/12 22/48/12 40/92/12 
f 22/48/12 20/47/12 40/92/12 
s 1
f 40/84/8 20/30/8 39/83/8 
f 20/30/8 18/29/8 39/83/8 
s 2
f 39/88/11 18/43/11 37/87/11 
f 18/43/11 21/45/11 37/87/11 
s 4
f 38/58/9 40/57/9 37/56/9 
f 40/57/9 39/55/9 37/56/9 
f 18/14/7 20/16/7 21/13/7 
f 20/16/7 22/15/7 21/13/7 
s 1
f 38/81/7 30/58/7 37/79/7 
f 30/58/7 29/56/7 37/79/7 
s 2
f 37/87/11 29/67/11 34/85/11 
f 29/67/11 31/68/11 34/85/11 
s 1
f 34/73/9 31/63/9 36/74/9 
f 31/63/9 32/64/9 36/74/9 
s 2
f 36/89/12 32/72/12 38/90/12 
f 32/72/12 30/70/12 38/90/12 
s 4
f 37/35/8 34/36/8 38/37/8 
f 34/36/8 36/38/8 38/37/8 
f 29/10/10 30/12/10 31/9/10 
f 30/12/10 32/11/10 31/9/10 
# 96 faces

#
# object Wall002
#

v  -75.5214 329.5287 1.0000
v  -75.9207 329.2278 1.0000
v  -75.5214 329.5287 0.0000
v  -75.9207 329.2278 0.0000
v  -76.2217 329.6272 1.0000
v  -76.2217 329.6272 0.0000
v  -75.8223 329.9281 1.0000
v  -75.8223 329.9281 0.0000
v  -88.2996 319.8997 1.0000
v  -88.6005 320.2990 1.0000
v  -88.2996 319.8997 0.0000
v  -88.6005 320.2990 0.0000
v  -88.2012 320.5999 1.0000
v  -88.2012 320.5999 0.0000
v  -87.9003 320.2006 1.0000
v  -87.9003 320.2006 0.0000
v  -109.2231 374.2523 1.0000
v  -108.9221 373.8530 1.0000
v  -109.2231 374.2523 0.0000
v  -108.9221 373.8530 0.0000
v  -109.3215 373.5521 1.0000
v  -109.3215 373.5521 0.0000
v  -109.6224 373.9514 1.0000
v  -109.6224 373.9514 0.0000
v  -122.0012 364.6233 1.0000
v  -121.6019 364.9242 1.0000
v  -122.0012 364.6233 0.0000
v  -121.6019 364.9242 0.0000
v  -121.3010 364.5249 1.0000
v  -121.3010 364.5249 0.0000
v  -121.7003 364.2240 1.0000
v  -121.7003 364.2240 0.0000
# 32 vertices

vn 0.6018 -0.7986 0.0000
vn -0.7986 -0.6018 0.0000
vn -0.6018 0.7986 0.0000
vn 0.7986 0.6018 0.0000
vn 0.0000 0.0000 1.0000
vn 0.0000 0.0000 -1.0000
# 6 vertex normals

vt 1.0000 1.5000 0.1772
vt 0.9914 1.5000 0.1716
vt 1.0000 0.5000 0.1772
vt 0.9914 0.5000 0.1716
vt 0.8284 1.5000 0.9914
vt 0.8210 1.5000 0.9849
vt 0.8284 0.5000 0.9914
vt 0.8210 0.5000 0.9849
vt 0.0151 1.5000 0.1790
vt 0.0065 1.5000 0.1845
vt 0.0151 0.5000 0.1790
vt 0.0065 0.5000 0.1845
vt 0.1845 1.5000 0.9935
vt 0.1772 1.5000 1.0000
vt 0.1845 0.5000 0.9935
vt 0.1772 0.5000 1.0000
vt 0.9914 0.1716 1.5000
vt 1.0000 0.1772 1.5000
vt 0.9849 0.1790 1.5000
vt 0.9935 0.1845 1.5000
vt 0.0086 0.1716 0.5000
vt 0.0151 0.1790 0.5000
vt 0.0000 0.1772 0.5000
vt 0.0065 0.1845 0.5000
vt 1.0000 1.5000 0.7251
vt 0.9927 1.5000 0.7186
vt 1.0000 0.5000 0.7251
vt 0.9927 0.5000 0.7186
vt 0.2814 1.5000 0.0073
vt 0.2728 1.5000 0.0129
vt 0.2814 0.5000 0.0073
vt 0.2728 0.5000 0.0129
vt 0.0129 1.5000 0.7272
vt 0.0055 1.5000 0.7337
vt 0.0129 0.5000 0.7272
vt 0.0055 0.5000 0.7337
vt 0.7337 1.5000 0.0055
vt 0.7251 1.5000 0.0000
vt 0.7337 0.5000 0.0055
vt 0.7251 0.5000 0.0000
vt 0.7186 0.0073 1.5000
vt 0.7251 0.0000 1.5000
vt 0.7272 0.0129 1.5000
vt 0.7337 0.0055 1.5000
vt 0.2814 0.0073 0.5000
vt 0.2728 0.0129 0.5000
vt 0.2749 0.0000 0.5000
vt 0.2663 0.0055 0.5000
vt 1.0000 1.5000 0.2749
vt 0.9927 1.5000 0.2814
vt 1.0000 0.5000 0.2749
vt 0.9927 0.5000 0.2814
vt 0.2814 1.5000 0.9927
vt 0.2728 1.5000 0.9871
vt 0.2814 0.5000 0.9927
vt 0.2728 0.5000 0.9871
vt 0.0129 1.5000 0.2728
vt 0.0055 1.5000 0.2663
vt 0.0129 0.5000 0.2728
vt 0.0055 0.5000 0.2663
vt 0.7337 1.5000 0.9945
vt 0.7251 1.5000 1.0000
vt 0.7337 0.5000 0.9945
vt 0.7251 0.5000 1.0000
vt 0.2814 0.9927 1.5000
vt 0.2749 1.0000 1.5000
vt 0.2728 0.9871 1.5000
vt 0.2663 0.9945 1.5000
vt 0.7186 0.9927 0.5000
vt 0.7272 0.9871 0.5000
vt 0.7251 1.0000 0.5000
vt 0.7337 0.9945 0.5000
vt 1.0000 1.5000 0.8228
vt 0.9914 1.5000 0.8284
vt 1.0000 0.5000 0.8228
vt 0.9914 0.5000 0.8284
vt 0.8284 1.5000 0.0086
vt 0.8210 1.5000 0.0151
vt 0.8284 0.5000 0.0086
vt 0.8210 0.5000 0.0151
vt 0.0151 1.5000 0.8210
vt 0.0065 1.5000 0.8155
vt 0.0151 0.5000 0.8210
vt 0.0065 0.5000 0.8155
vt 0.1845 1.5000 0.0065
vt 0.1772 1.5000 0.0000
vt 0.1845 0.5000 0.0065
vt 0.1772 0.5000 0.0000
vt 0.0086 0.8284 1.5000
vt 0.0000 0.8228 1.5000
vt 0.0151 0.8210 1.5000
vt 0.0065 0.8155 1.5000
vt 0.9914 0.8284 0.5000
vt 0.9849 0.8210 0.5000
vt 1.0000 0.8228 0.5000
vt 0.9935 0.8155 0.5000
vt 0.7272 1.5000 0.9871
vt 0.7186 1.5000 0.9927
vt 0.7272 0.5000 0.9871
vt 0.7186 0.5000 0.9927
vt 0.9849 1.5000 0.1790
vt 0.9849 0.5000 0.1790
vt 0.9935 1.5000 0.1845
vt 0.9935 0.5000 0.1845
vt 0.9871 0.5000 0.7272
vt 0.9945 0.5000 0.7337
vt 0.9871 1.5000 0.7272
vt 0.9945 1.5000 0.7337
vt 0.1716 1.5000 0.9914
vt 0.1716 0.5000 0.9914
vt 0.1790 1.5000 0.9849
vt 0.1790 0.5000 0.9849
vt 0.9849 0.5000 0.8210
vt 0.9935 0.5000 0.8155
vt 0.9849 1.5000 0.8210
vt 0.9935 1.5000 0.8155
vt 0.7186 1.5000 0.0073
vt 0.7186 0.5000 0.0073
vt 0.7272 1.5000 0.0129
vt 0.7272 0.5000 0.0129
vt 0.1790 1.5000 0.0151
vt 0.1716 1.5000 0.0086
vt 0.1790 0.5000 0.0151
vt 0.1716 0.5000 0.0086
vt 0.9871 1.5000 0.2728
vt 0.9871 0.5000 0.2728
vt 0.9945 1.5000 0.2663
vt 0.9945 0.5000 0.2663
# 128 texture coords

g Wall002
s off
f 41/93/13 42/94/13 43/95/13 
f 43/95/13 42/94/13 44/96/13 
f 42/97/14 45/98/14 44/99/14 
f 44/99/14 45/98/14 46/100/14 
f 45/101/15 47/102/15 46/103/15 
f 46/103/15 47/102/15 48/104/15 
f 47/105/16 41/106/16 48/107/16 
f 48/107/16 41/106/16 43/108/16 
f 42/109/17 41/110/17 45/111/17 
f 41/110/17 47/112/17 45/111/17 
f 44/113/18 46/114/18 43/115/18 
f 46/114/18 48/116/18 43/115/18 
f 49/117/14 50/118/14 51/119/14 
f 51/119/14 50/118/14 52/120/14 
f 50/121/15 53/122/15 52/123/15 
f 52/123/15 53/122/15 54/124/15 
f 53/125/16 55/126/16 54/127/16 
f 54/127/16 55/126/16 56/128/16 
f 55/129/13 49/130/13 56/131/13 
f 56/131/13 49/130/13 51/132/13 
f 50/133/17 49/134/17 53/135/17 
f 49/134/17 55/136/17 53/135/17 
f 52/137/18 54/138/18 51/139/18 
f 54/138/18 56/140/18 51/139/18 
f 57/141/16 58/142/16 59/143/16 
f 59/143/16 58/142/16 60/144/16 
f 58/145/13 61/146/13 60/147/13 
f 60/147/13 61/146/13 62/148/13 
f 61/149/14 63/150/14 62/151/14 
f 62/151/14 63/150/14 64/152/14 
f 63/153/15 57/154/15 64/155/15 
f 64/155/15 57/154/15 59/156/15 
f 58/157/17 57/158/17 61/159/17 
f 57/158/17 63/160/17 61/159/17 
f 60/161/18 62/162/18 59/163/18 
f 62/162/18 64/164/18 59/163/18 
f 65/165/15 66/166/15 67/167/15 
f 67/167/15 66/166/15 68/168/15 
f 66/169/16 69/170/16 68/171/16 
f 68/171/16 69/170/16 70/172/16 
f 69/173/13 71/174/13 70/175/13 
f 70/175/13 71/174/13 72/176/13 
f 71/177/14 65/178/14 72/179/14 
f 72/179/14 65/178/14 67/180/14 
f 66/181/17 65/182/17 69/183/17 
f 65/182/17 71/184/17 69/183/17 
f 68/185/18 70/186/18 67/187/18 
f 70/186/18 72/188/18 67/187/18 
s 1
f 62/151/14 46/100/14 61/149/14 
f 46/100/14 45/98/14 61/149/14 
s 2
f 61/159/17 45/111/17 58/157/17 
f 45/111/17 47/112/17 58/157/17 
s 1
f 58/142/16 47/105/16 60/144/16 
f 47/105/16 48/107/16 60/144/16 
s 2
f 60/161/18 48/116/18 62/162/18 
f 48/116/18 46/114/18 62/162/18 
s 4
f 61/189/15 58/190/15 62/191/15 
f 58/190/15 60/192/15 62/191/15 
f 45/193/13 46/194/13 47/195/13 
f 46/194/13 48/196/13 47/195/13 
s 1
f 53/122/15 45/101/15 54/124/15 
f 45/101/15 46/103/15 54/124/15 
s 2
f 54/138/18 46/114/18 56/140/18 
f 46/114/18 44/113/18 56/140/18 
s 1
f 56/131/13 44/96/13 55/129/13 
f 44/96/13 42/94/13 55/129/13 
s 2
f 55/136/17 42/109/17 53/135/17 
f 42/109/17 45/111/17 53/135/17 
s 4
f 54/197/14 56/198/14 53/199/14 
f 56/198/14 55/200/14 53/199/14 
f 42/201/16 44/202/16 45/203/16 
f 44/202/16 46/204/16 45/203/16 
s 1
f 69/170/16 53/125/16 70/172/16 
f 53/125/16 54/127/16 70/172/16 
s 2
f 70/186/18 54/138/18 72/188/18 
f 54/138/18 52/137/18 72/188/18 
s 1
f 72/179/14 52/120/14 71/177/14 
f 52/120/14 50/118/14 71/177/14 
s 2
f 71/184/17 50/133/17 69/183/17 
f 50/133/17 53/135/17 69/183/17 
s 4
f 70/205/15 72/206/15 69/207/15 
f 72/206/15 71/208/15 69/207/15 
f 50/209/13 52/210/13 53/211/13 
f 52/210/13 54/212/13 53/211/13 
s 1
f 70/175/13 62/148/13 69/173/13 
f 62/148/13 61/146/13 69/173/13 
s 2
f 69/183/17 61/159/17 66/181/17 
f 61/159/17 63/160/17 66/181/17 
s 1
f 66/166/15 63/153/15 68/168/15 
f 63/153/15 64/155/15 68/168/15 
s 2
f 68/185/18 64/164/18 70/186/18 
f 64/164/18 62/162/18 70/186/18 
s 4
f 69/213/14 66/214/14 70/215/14 
f 66/214/14 68/216/14 70/215/14 
f 61/217/16 62/218/16 63/219/16 
f 62/218/16 64/220/16 63/219/16 
# 96 faces

#
# object Box060
#

v  0.0000 0.0000 0.0000
v  0.0000 56.0000 0.0000
v  16.0000 56.0000 0.0000
v  16.0000 0.0000 0.0000
v  0.0000 0.0000 0.3000
v  16.0000 0.0000 0.3000
v  16.0000 56.0000 0.3000
v  0.0000 56.0000 0.3000
# 8 vertices

vn 0.0000 0.0000 -1.0000
vn 0.0000 0.0000 1.0000
vn 0.0000 -1.0000 0.0000
vn 1.0000 0.0000 0.0000
vn 0.0000 1.0000 0.0000
vn -1.0000 0.0000 0.0000
# 6 vertex normals

vt 1.0000 0.0000 0.0000
vt 1.0000 1.0000 0.0000
vt 0.0000 1.0000 0.0000
vt 0.0000 0.0000 0.0000
# 4 texture coords

g Box060
s 2
f 73/221/19 74/222/19 75/223/19 
f 75/223/19 76/224/19 73/221/19 
s 4
f 77/224/20 78/221/20 79/222/20 
f 79/222/20 80/223/20 77/224/20 
s 8
f 73/224/21 76/221/21 78/222/21 
f 78/222/21 77/223/21 73/224/21 
s 16
f 76/224/22 75/221/22 79/222/22 
f 79/222/22 78/223/22 76/224/22 
s 32
f 75/224/23 74/221/23 80/222/23 
f 80/222/23 79/223/23 75/224/23 
s 64
f 74/224/24 73/221/24 77/222/24 
f 77/222/24 80/223/24 74/224/24 
# 12 faces

