# 3ds Max Wavefront OBJ Exporter v0.97b - (c)2007 guruware
# File Created: 14.01.2016 22:28:40

#
# object B2L1
#

v  0.0000 0.0000 0.0000
v  45.0000 0.0000 4.0000
v  0.0000 0.0000 4.0000
v  45.0000 62.0000 0.0000
v  0.0000 62.0000 4.0000
v  45.0000 62.0000 4.0000
v  9.3032 46.4004 4.0000
v  35.3032 46.4004 0.0000
v  35.3032 46.4004 4.0000
v  35.3032 18.4004 0.0000
v  35.3032 18.4004 4.0000
v  9.3032 18.4004 4.0000
v  9.3032 46.4004 0.0000
v  0.0000 41.7664 0.0000
v  0.0000 41.7664 4.0000
v  0.0000 46.7664 4.0000
v  0.0000 62.0000 0.0000
v  0.0000 46.7664 0.0000
v  -2.9420 41.7664 0.0000
v  -2.9420 41.7664 4.0000
v  -2.9420 46.7664 0.0000
v  -2.9420 46.7664 4.0000
v  27.1288 18.4004 0.0000
v  27.1288 18.4004 4.0000
v  18.1288 18.4004 0.0000
v  18.1288 18.4004 4.0000
v  18.1288 21.1119 0.0000
v  18.1288 21.1119 4.0000
v  27.1288 21.1119 4.0000
v  27.1288 21.1119 0.0000
v  45.0000 41.5300 4.0000
v  45.0000 0.0000 0.0000
v  45.0000 41.5300 0.0000
v  45.0000 46.5300 0.0000
v  45.0000 46.5300 4.0000
v  47.5328 46.5300 0.0000
v  47.5328 46.5300 4.0000
v  47.5328 41.5300 4.0000
v  47.5328 41.5300 0.0000
v  9.3032 18.4004 0.0000
# 40 vertices

vn 0.0000 -1.0000 0.0000
vn 0.0000 1.0000 0.0000
vn -1.0000 0.0000 0.0000
vn 1.0000 0.0000 0.0000
vn 0.0000 0.0000 -1.0000
vn 0.0000 0.0000 1.0000
# 6 vertex normals

vt 0.0000 0.0000 0.0000
vt 1.0000 1.0000 0.0000
vt 0.0000 1.0000 0.0000
vt 0.3263 0.0000 0.0000
vt 0.3263 1.0000 0.0000
vt 0.2457 1.0000 0.0000
vt 0.2457 -0.0000 0.0000
vt 0.2942 1.0000 0.0000
vt 0.7058 0.0000 0.0000
vt 1.0000 0.0000 0.0000
vt 0.6856 0.0000 0.0000
vt 0.6856 1.0000 0.0000
vt 0.3394 -0.0000 0.0000
vt 0.3394 1.0000 0.0000
vt 0.1695 1.0000 0.0000
vt 0.8305 0.0000 0.0000
vt 0.7933 0.7484 0.0000
vt 1.0000 0.7543 0.0000
vt 0.2067 0.7484 0.0000
vt 0.7845 0.7484 0.0000
vt 0.6698 1.0000 0.0000
vt 0.6698 0.0000 0.0000
vt 0.7505 -0.0000 0.0000
vt 0.7505 1.0000 0.0000
vt 0.2533 1.0000 0.0000
vt 0.7467 0.0000 0.0000
vt 0.2942 -0.0000 0.0000
vt 0.7058 1.0000 0.0000
vt 0.1695 0.0000 0.0000
vt 0.8305 1.0000 0.0000
vt 1.0654 0.6737 0.0000
vt 1.0654 0.7543 0.0000
vt 1.0000 0.6737 0.0000
vt 0.7933 0.2968 0.0000
vt 0.5971 0.2968 0.0000
vt 0.0000 0.6698 0.0000
vt -0.0563 0.7505 0.0000
vt -0.0563 0.6698 0.0000
vt 0.0000 0.7505 0.0000
vt 0.3971 0.2968 0.0000
vt 0.5971 0.3405 0.0000
vt 0.3971 0.3405 0.0000
vt 0.2155 0.2968 0.0000
vt 0.2155 0.7484 0.0000
vt 0.0000 0.6737 0.0000
vt -0.0654 0.7543 0.0000
vt -0.0654 0.6737 0.0000
vt 0.0000 0.7543 0.0000
vt 0.2067 0.2968 0.0000
vt 0.4029 0.2968 0.0000
vt 1.0563 0.7505 0.0000
vt 1.0000 0.6698 0.0000
vt 1.0563 0.6698 0.0000
vt 1.0000 0.7505 0.0000
vt 0.4029 0.3405 0.0000
vt 0.6029 0.2968 0.0000
vt 0.6029 0.3405 0.0000
vt 0.7845 0.2968 0.0000
vt 0.2533 0.0000 0.0000
vt 0.7467 1.0000 0.0000
# 60 texture coords

g B2L1
f 1/1/1 2/2/1 3/3/1 
f 4/1/2 5/2/2 6/3/2 
f 7/2/1 8/1/1 9/3/1 
f 9/2/3 10/1/3 11/3/3 
f 12/2/4 13/1/4 7/3/4 
f 14/4/3 3/2/3 15/5/3 
f 16/6/3 17/1/3 18/7/3 
f 19/1/1 15/8/1 20/3/1 
f 21/1/3 20/2/3 22/3/3 
f 22/2/2 18/9/2 21/10/2 
f 11/2/2 23/11/2 24/12/2 
f 25/13/2 12/3/2 26/14/2 
f 27/1/3 26/15/3 28/3/3 
f 29/2/4 23/16/4 30/10/4 
f 28/2/2 30/1/2 27/10/2 
f 17/2/5 13/17/5 18/18/5 
f 5/3/6 7/19/6 9/20/6 
f 31/21/4 32/1/4 33/22/4 
f 34/23/4 6/2/4 35/24/4 
f 36/1/2 35/25/2 37/3/2 
f 38/2/1 33/26/1 39/10/1 
f 37/2/4 39/1/4 36/10/4 
f 2/2/1 1/1/1 32/10/1 
f 5/2/2 4/1/2 17/10/2 
f 8/1/1 7/2/1 13/10/1 
f 10/1/3 9/2/3 8/10/3 
f 13/1/4 12/2/4 40/10/4 
f 3/2/3 14/4/3 1/10/3 
f 17/1/3 16/6/3 5/3/3 
f 15/8/1 19/1/1 14/27/1 
f 20/2/3 21/1/3 19/10/3 
f 18/9/2 22/2/2 16/28/2 
f 23/11/2 11/2/2 10/10/2 
f 12/3/2 25/13/2 40/1/2 
f 26/15/3 27/1/3 25/29/3 
f 23/16/4 29/2/4 24/30/4 
f 30/1/2 28/2/2 29/3/2 
f 18/18/5 19/31/5 21/32/5 
f 18/18/5 14/33/5 19/31/5 
f 13/17/5 14/33/5 18/18/5 
f 40/34/5 14/33/5 13/17/5 
f 40/34/5 1/10/5 14/33/5 
f 40/34/5 32/1/5 1/10/5 
f 25/35/5 32/1/5 40/34/5 
f 33/36/5 36/37/5 39/38/5 
f 33/36/5 34/39/5 36/37/5 
f 23/40/5 27/41/5 30/42/5 
f 23/40/5 25/35/5 27/41/5 
f 23/40/5 32/1/5 25/35/5 
f 10/43/5 32/1/5 23/40/5 
f 10/43/5 33/36/5 32/1/5 
f 8/44/5 33/36/5 10/43/5 
f 8/44/5 34/39/5 33/36/5 
f 8/44/5 4/3/5 34/39/5 
f 8/44/5 17/2/5 4/3/5 
f 13/17/5 17/2/5 8/44/5 
f 15/45/6 22/46/6 20/47/6 
f 15/45/6 16/48/6 22/46/6 
f 15/45/6 7/19/6 16/48/6 
f 15/45/6 12/49/6 7/19/6 
f 3/1/6 12/49/6 15/45/6 
f 2/10/6 12/49/6 3/1/6 
f 2/10/6 26/50/6 12/49/6 
f 37/51/6 31/52/6 38/53/6 
f 35/54/6 31/52/6 37/51/6 
f 28/55/6 24/56/6 29/57/6 
f 26/50/6 24/56/6 28/55/6 
f 2/10/6 24/56/6 26/50/6 
f 2/10/6 11/58/6 24/56/6 
f 31/52/6 11/58/6 2/10/6 
f 31/52/6 9/20/6 11/58/6 
f 35/54/6 9/20/6 31/52/6 
f 6/2/6 9/20/6 35/54/6 
f 5/3/6 9/20/6 6/2/6 
f 7/19/6 5/3/6 16/48/6 
f 32/1/4 31/21/4 2/3/4 
f 6/2/4 34/23/4 4/10/4 
f 35/25/2 36/1/2 34/59/2 
f 33/26/1 38/2/1 31/60/1 
f 39/1/4 37/2/4 38/3/4 
# 80 faces

