# 3ds Max Wavefront OBJ Exporter v0.97b - (c)2007 guruware
# File Created: 17.01.2016 15:56:29

#
# object B4L4T1N006
#

v  51.6942 46.1255 1.0397
v  12.8942 46.1255 1.0397
v  12.8942 46.1355 1.0397
v  51.6942 46.1355 1.0397
v  51.6942 46.1255 2.5397
v  51.6942 46.1355 2.5397
v  12.8942 46.1355 2.5397
v  12.8942 46.1255 2.5397
# 8 vertices

vn 0.0000 0.0000 -1.0000
vn 0.0000 0.0000 1.0000
vn 1.0000 0.0000 0.0000
vn -0.0000 1.0000 0.0000
vn -1.0000 -0.0000 0.0000
vn 0.0000 -1.0000 0.0000
# 6 vertex normals

vt 0.0100 0.0000 0.0000
vt 0.0100 38.8000 0.0000
vt 0.0000 38.8000 0.0000
vt 0.0000 0.0000 0.0000
vt 0.0100 1.5000 0.0000
vt 0.0000 1.5000 0.0000
vt 38.8000 0.0000 0.0000
vt 38.8000 1.5000 0.0000
# 8 texture coords

g B4L4T1N006
f 1/1/1 2/2/1 3/3/1 
f 3/3/1 4/4/1 1/1/1 
f 5/4/2 6/1/2 7/2/2 
f 7/2/2 8/3/2 5/4/2 
f 1/4/3 4/1/3 6/5/3 
f 6/5/3 5/6/3 1/4/3 
f 4/4/4 3/7/4 7/8/4 
f 7/8/4 6/6/4 4/4/4 
f 3/4/5 2/1/5 8/5/5 
f 8/5/5 7/6/5 3/4/5 
f 2/4/6 1/7/6 5/8/6 
f 5/8/6 8/6/6 2/4/6 
# 12 faces

