# 3ds Max Wavefront OBJ Exporter v0.97b - (c)2007 guruware
# File Created: 15.01.2016 13:54:46

mtllib B6L1.mtl

#
# object B6L1
#

v  6.5000 36.0000 0.0000
v  24.5000 67.0000 0.0000
v  24.5000 36.0000 0.0000
v  0.0000 0.0000 12.0000
v  31.0000 31.0000 12.0000
v  0.0000 31.0000 12.0000
v  0.0000 0.0000 0.0000
v  31.0000 0.0000 12.0000
v  31.0000 0.0000 0.0000
v  6.5000 31.0000 11.0000
v  0.0000 31.0000 0.0000
v  24.5000 36.0000 11.0000
v  24.5000 31.0000 11.0000
v  24.5000 31.0000 0.0000
v  6.5000 31.0000 0.0000
v  24.5000 67.0000 11.0000
v  31.0000 67.0000 0.0000
v  31.0000 67.0000 12.0000
v  0.0000 36.0000 12.0000
v  31.0000 36.0000 12.0000
v  31.0000 36.0000 0.0000
v  0.0000 67.0000 0.0000
v  0.0000 36.0000 0.0000
v  24.5000 72.0000 11.0000
v  6.5000 67.0000 11.0000
v  6.5000 72.0000 11.0000
v  6.5000 67.0000 0.0000
v  24.5000 72.0000 0.0000
v  31.0000 103.0000 0.0000
v  0.0000 103.0000 12.0000
v  31.0000 103.0000 12.0000
v  0.0000 72.0000 12.0000
v  31.0000 72.0000 12.0000
v  31.0000 72.0000 0.0000
v  0.0000 103.0000 0.0000
v  0.0000 72.0000 0.0000
v  6.5000 72.0000 0.0000
v  31.0000 31.0000 0.0000
v  6.5000 36.0000 11.0000
v  0.0000 67.0000 12.0000
# 40 vertices

vn 0.0000 0.0000 -1.0000
vn 0.0000 0.0000 1.0000
vn 0.0000 -1.0000 0.0000
vn 1.0000 0.0000 0.0000
vn 0.0000 1.0000 0.0000
vn -1.0000 0.0000 0.0000
# 6 vertex normals

vt 0.7903 1.1613 0.0000
vt 0.2097 2.1613 0.0000
vt 0.2097 1.1613 0.0000
vt 0.0000 0.0000 0.0000
vt 1.0000 1.0000 0.0000
vt 0.0000 1.0000 0.0000
vt 0.7903 0.9167 0.0000
vt 1.0000 0.0000 0.0000
vt 0.2097 0.9167 0.0000
vt 0.2097 0.0000 0.0000
vt 1.0000 3.3226 0.0000
vt 0.7903 2.3226 0.0000
vt 1.0000 2.3226 0.0000
vt 0.0000 3.3226 0.0000
vt 0.2097 2.3226 0.0000
vt 0.0000 2.3226 0.0000
vt 0.7903 2.1613 0.0000
vt -0.0000 1.1613 0.0000
vt 0.0000 2.1613 0.0000
vt 0.2097 1.0000 0.0000
vt 0.7903 1.0000 0.0000
vt 1.0000 2.1613 0.0000
vt 1.0000 1.1613 0.0000
vt 0.7903 -0.0000 0.0000
# 24 texture coords

g B6L1
usemtl wire_086086086
f 1/1/1 2/2/1 3/3/1 
f 4/4/2 5/5/2 6/6/2 
f 7/4/3 8/5/3 4/6/3 
f 9/4/4 5/5/4 8/6/4 
f 10/7/5 11/8/5 6/5/5 
f 11/4/6 4/5/6 6/6/6 
f 12/5/2 10/4/2 13/8/2 
f 14/4/4 12/5/4 13/6/4 
f 10/5/6 1/4/6 15/8/6 
f 16/9/5 17/4/5 2/10/5 
f 18/5/2 19/4/2 20/8/2 
f 12/7/3 21/8/3 20/5/3 
f 19/5/6 22/4/6 23/8/6 
f 18/5/4 21/4/4 17/8/4 
f 24/5/2 25/4/2 16/8/2 
f 26/6/6 27/8/6 25/5/6 
f 16/6/4 28/8/4 24/5/4 
f 29/4/5 30/5/5 31/6/5 
f 31/5/2 32/4/2 33/8/2 
f 24/7/3 34/8/3 33/5/3 
f 32/5/6 35/4/6 36/8/6 
f 31/5/4 34/4/4 29/8/4 
f 35/11/1 37/12/1 36/13/1 
f 29/14/1 37/12/1 35/11/1 
f 28/15/1 29/14/1 34/16/1 
f 28/15/1 37/12/1 29/14/1 
f 28/15/1 27/17/1 37/12/1 
f 2/2/1 27/17/1 28/15/1 
f 21/18/1 2/2/1 17/19/1 
f 3/3/1 2/2/1 21/18/1 
f 9/4/1 14/20/1 38/6/1 
f 7/8/1 14/20/1 9/4/1 
f 15/21/1 7/8/1 11/5/1 
f 15/21/1 14/20/1 7/8/1 
f 15/21/1 3/3/1 14/20/1 
f 1/1/1 3/3/1 15/21/1 
f 22/22/1 1/1/1 23/23/1 
f 27/17/1 1/1/1 22/22/1 
f 2/2/1 1/1/1 27/17/1 
f 5/5/2 4/4/2 8/8/2 
f 8/5/3 7/4/3 9/8/3 
f 5/5/4 9/4/4 38/8/4 
f 13/9/5 38/4/5 14/10/5 
f 13/9/5 5/6/5 38/4/5 
f 13/9/5 6/5/5 5/6/5 
f 10/7/5 6/5/5 13/9/5 
f 11/8/5 10/7/5 15/24/5 
f 4/5/6 11/4/6 7/8/6 
f 10/4/2 12/5/2 39/6/2 
f 12/5/4 14/4/4 3/8/4 
f 1/4/6 10/5/6 39/6/6 
f 22/8/5 25/7/5 27/24/5 
f 40/5/5 25/7/5 22/8/5 
f 18/6/5 25/7/5 40/5/5 
f 18/6/5 16/9/5 25/7/5 
f 17/4/5 16/9/5 18/6/5 
f 19/4/2 18/5/2 40/6/2 
f 39/9/3 23/4/3 1/10/3 
f 39/9/3 19/6/3 23/4/3 
f 39/9/3 20/5/3 19/6/3 
f 12/7/3 20/5/3 39/9/3 
f 21/8/3 12/7/3 3/24/3 
f 22/4/6 19/5/6 40/6/6 
f 21/4/4 18/5/4 20/6/4 
f 25/4/2 24/5/2 26/6/2 
f 27/8/6 26/6/6 37/4/6 
f 28/8/4 16/6/4 2/4/4 
f 30/5/5 29/4/5 35/8/5 
f 32/4/2 31/5/2 30/6/2 
f 26/9/3 36/4/3 37/10/3 
f 26/9/3 32/6/3 36/4/3 
f 26/9/3 33/5/3 32/6/3 
f 24/7/3 33/5/3 26/9/3 
f 34/8/3 24/7/3 28/24/3 
f 35/4/6 32/5/6 30/6/6 
f 34/4/4 31/5/4 33/6/4 
# 76 faces

