# 3ds Max Wavefront OBJ Exporter v0.97b - (c)2007 guruware
# File Created: 20.01.2016 01:20:44

#
# object Prism001
#

v  3.6862 157.5810 6.3000
v  3.6849 157.5810 8.3000
v  0.1862 157.5810 6.3000
v  0.1862 172.5810 6.3000
v  3.6849 172.5810 8.3000
v  3.6862 172.5810 6.3000
v  0.4862 157.8810 6.3000
v  3.6850 157.8810 8.1286
v  3.6862 157.8810 6.3000
v  3.6850 172.2810 8.1286
v  0.4862 172.2810 6.3000
v  3.6862 172.2810 6.3000
# 12 vertices

vn 0.0000 -1.0000 -0.0000
vn -0.4963 -0.0000 0.8682
vn 0.0000 1.0000 0.0000
vn 0.0000 0.0000 -1.0000
vn 1.0000 0.0000 0.0006
vn 1.0000 -0.0000 0.0006
vn 0.4963 0.0000 -0.8682
# 7 vertex normals

vt 1.0000 0.0000 0.0000
vt 0.9996 1.0000 0.0000
vt 0.0000 0.0000 0.0000
vt 0.5771 1.0000 0.0000
vt 1.0000 1.0000 0.0000
vt 0.0004 0.0000 0.0000
vt -0.0000 1.0000 0.0000
vt 0.0315 0.9800 0.0000
vt 0.3673 1.0000 0.0000
vt 0.0000 1.0000 0.0000
vt 0.5591 0.9800 0.0000
vt 0.3673 0.9800 0.0000
vt 0.0861 0.0857 0.0000
vt 0.0857 1.0000 0.0000
vt 0.6134 1.0000 0.0000
vt 0.9143 0.0000 0.0000
vt 0.9139 0.9143 0.0000
vt 0.5771 0.0000 0.0000
vt 0.0315 0.0200 0.0000
vt 0.3673 0.0000 0.0000
vt 0.3673 0.0200 0.0000
vt 0.5591 0.0200 0.0000
vt 0.6134 0.0000 0.0000
# 23 texture coords

g Prism001
s 1
f 1/1/1 2/2/1 3/3/1 
s 8
f 2/4/2 4/1/2 3/5/2 
s 1
f 5/6/3 6/7/3 4/5/3 
s 2
f 7/8/4 1/9/4 3/10/4 
s 4
f 8/11/5 1/9/5 9/12/6 
s 1
f 10/13/1 11/5/1 12/14/1 
s 8
f 11/1/7 8/15/7 7/5/7 
s 1
f 9/16/3 7/3/3 8/17/3 
s 8
f 4/1/2 2/4/2 5/18/2 
s 2
f 11/19/4 6/20/4 12/21/4 
f 11/19/4 4/3/4 6/20/4 
f 11/19/4 3/10/4 4/3/4 
f 7/8/4 3/10/4 11/19/4 
f 1/9/4 7/8/4 9/12/4 
s 4
f 6/20/6 10/22/6 12/21/6 
f 5/18/6 10/22/6 6/20/6 
f 2/4/5 10/22/6 5/18/6 
f 2/4/5 8/11/5 10/22/6 
f 1/9/5 8/11/5 2/4/5 
s 8
f 8/15/7 11/1/7 10/23/7 
# 20 faces

#
# object Prism007
#

v  8.1862 157.5810 6.3000
v  8.1849 157.5810 8.3000
v  4.6862 157.5810 6.3000
v  4.6862 172.5810 6.3000
v  8.1849 172.5810 8.3000
v  8.1862 172.5810 6.3000
v  4.9862 157.8810 6.3000
v  8.1850 157.8810 8.1286
v  8.1862 157.8810 6.3000
v  8.1850 172.2810 8.1286
v  4.9862 172.2810 6.3000
v  8.1862 172.2810 6.3000
# 12 vertices

vn 0.0000 -1.0000 -0.0000
vn -0.4963 -0.0000 0.8682
vn 0.0000 1.0000 0.0000
vn 0.0000 0.0000 -1.0000
vn 1.0000 0.0000 0.0006
vn 1.0000 -0.0000 0.0006
vn 0.4963 0.0000 -0.8682
# 7 vertex normals

vt 1.0000 0.0000 0.0000
vt 0.9996 1.0000 0.0000
vt 0.0000 0.0000 0.0000
vt 0.5771 1.0000 0.0000
vt 1.0000 1.0000 0.0000
vt 0.0004 0.0000 0.0000
vt -0.0000 1.0000 0.0000
vt 0.0315 0.9800 0.0000
vt 0.3673 1.0000 0.0000
vt 0.0000 1.0000 0.0000
vt 0.5591 0.9800 0.0000
vt 0.3673 0.9800 0.0000
vt 0.0861 0.0857 0.0000
vt 0.0857 1.0000 0.0000
vt 0.6134 1.0000 0.0000
vt 0.9143 0.0000 0.0000
vt 0.9139 0.9143 0.0000
vt 0.5771 0.0000 0.0000
vt 0.0315 0.0200 0.0000
vt 0.3673 0.0000 0.0000
vt 0.3673 0.0200 0.0000
vt 0.5591 0.0200 0.0000
vt 0.6134 0.0000 0.0000
# 23 texture coords

g Prism007
s 1
f 13/24/8 14/25/8 15/26/8 
s 8
f 14/27/9 16/24/9 15/28/9 
s 1
f 17/29/10 18/30/10 16/28/10 
s 2
f 19/31/11 13/32/11 15/33/11 
s 4
f 20/34/12 13/32/12 21/35/13 
s 1
f 22/36/8 23/28/8 24/37/8 
s 8
f 23/24/14 20/38/14 19/28/14 
s 1
f 21/39/10 19/26/10 20/40/10 
s 8
f 16/24/9 14/27/9 17/41/9 
s 2
f 23/42/11 18/43/11 24/44/11 
f 23/42/11 16/26/11 18/43/11 
f 23/42/11 15/33/11 16/26/11 
f 19/31/11 15/33/11 23/42/11 
f 13/32/11 19/31/11 21/35/11 
s 4
f 18/43/13 22/45/13 24/44/13 
f 17/41/13 22/45/13 18/43/13 
f 14/27/12 22/45/13 17/41/13 
f 14/27/12 20/34/12 22/45/13 
f 13/32/12 20/34/12 14/27/12 
s 8
f 20/38/14 23/24/14 22/46/14 
# 20 faces

#
# object Prism008
#

v  12.6862 157.5810 6.3000
v  12.6849 157.5810 8.3000
v  9.1862 157.5810 6.3000
v  9.1862 172.5810 6.3000
v  12.6849 172.5810 8.3000
v  12.6862 172.5810 6.3000
v  9.4862 157.8810 6.3000
v  12.6850 157.8810 8.1286
v  12.6862 157.8810 6.3000
v  12.6850 172.2810 8.1286
v  9.4862 172.2810 6.3000
v  12.6862 172.2810 6.3000
# 12 vertices

vn 0.0000 -1.0000 -0.0000
vn -0.4963 -0.0000 0.8682
vn 0.0000 1.0000 0.0000
vn 0.0000 0.0000 -1.0000
vn 1.0000 0.0000 0.0006
vn 1.0000 -0.0000 0.0006
vn 0.4963 0.0000 -0.8682
# 7 vertex normals

vt 1.0000 0.0000 0.0000
vt 0.9996 1.0000 0.0000
vt 0.0000 0.0000 0.0000
vt 0.5771 1.0000 0.0000
vt 1.0000 1.0000 0.0000
vt 0.0004 0.0000 0.0000
vt -0.0000 1.0000 0.0000
vt 0.0315 0.9800 0.0000
vt 0.3673 1.0000 0.0000
vt 0.0000 1.0000 0.0000
vt 0.5591 0.9800 0.0000
vt 0.3673 0.9800 0.0000
vt 0.0861 0.0857 0.0000
vt 0.0857 1.0000 0.0000
vt 0.6134 1.0000 0.0000
vt 0.9143 0.0000 0.0000
vt 0.9139 0.9143 0.0000
vt 0.5771 0.0000 0.0000
vt 0.0315 0.0200 0.0000
vt 0.3673 0.0000 0.0000
vt 0.3673 0.0200 0.0000
vt 0.5591 0.0200 0.0000
vt 0.6134 0.0000 0.0000
# 23 texture coords

g Prism008
s 1
f 25/47/15 26/48/15 27/49/15 
s 8
f 26/50/16 28/47/16 27/51/16 
s 1
f 29/52/17 30/53/17 28/51/17 
s 2
f 31/54/18 25/55/18 27/56/18 
s 4
f 32/57/19 25/55/19 33/58/20 
s 1
f 34/59/15 35/51/15 36/60/15 
s 8
f 35/47/21 32/61/21 31/51/21 
s 1
f 33/62/17 31/49/17 32/63/17 
s 8
f 28/47/16 26/50/16 29/64/16 
s 2
f 35/65/18 30/66/18 36/67/18 
f 35/65/18 28/49/18 30/66/18 
f 35/65/18 27/56/18 28/49/18 
f 31/54/18 27/56/18 35/65/18 
f 25/55/18 31/54/18 33/58/18 
s 4
f 30/66/20 34/68/20 36/67/20 
f 29/64/20 34/68/20 30/66/20 
f 26/50/19 34/68/20 29/64/20 
f 26/50/19 32/57/19 34/68/20 
f 25/55/19 32/57/19 26/50/19 
s 8
f 32/61/21 35/47/21 34/69/21 
# 20 faces

#
# object Prism009
#

v  -15.6925 229.1002 6.3000
v  -15.6935 229.0994 8.3000
v  -18.4877 226.9938 6.3000
v  -27.5150 238.9733 6.3000
v  -24.7208 241.0789 8.3000
v  -24.7197 241.0797 6.3000
v  -18.4287 227.4139 6.3000
v  -15.8740 229.3390 8.1286
v  -15.8731 229.3398 6.3000
v  -24.5401 240.8394 8.1286
v  -27.0948 238.9143 6.3000
v  -24.5392 240.8401 6.3000
# 12 vertices

vn 0.6018 -0.7986 -0.0000
vn -0.3963 -0.2987 0.8682
vn -0.6018 0.7986 0.0000
vn -0.0000 0.0000 -1.0000
vn 0.7986 0.6018 0.0006
vn 0.3963 0.2987 -0.8682
# 6 vertex normals

vt 1.0000 0.0000 0.0000
vt 0.9996 1.0000 0.0000
vt 0.0000 0.0000 0.0000
vt 0.5771 1.0000 0.0000
vt 1.0000 1.0000 0.0000
vt 0.0004 0.0000 0.0000
vt -0.0000 1.0000 0.0000
vt 0.0315 0.9800 0.0000
vt 0.3673 1.0000 0.0000
vt 0.0000 1.0000 0.0000
vt 0.5591 0.9800 0.0000
vt 0.3673 0.9800 0.0000
vt 0.0861 0.0857 0.0000
vt 0.0857 1.0000 0.0000
vt 0.6134 1.0000 0.0000
vt 0.9143 0.0000 0.0000
vt 0.9139 0.9143 0.0000
vt 0.5771 0.0000 0.0000
vt 0.0315 0.0200 0.0000
vt 0.3673 0.0000 0.0000
vt 0.3673 0.0200 0.0000
vt 0.5591 0.0200 0.0000
vt 0.6134 0.0000 0.0000
# 23 texture coords

g Prism009
s 1
f 37/70/22 38/71/22 39/72/22 
s 8
f 38/73/23 40/70/23 39/74/23 
s 1
f 41/75/24 42/76/24 40/74/24 
s 2
f 43/77/25 37/78/25 39/79/25 
s 4
f 44/80/26 37/78/26 45/81/26 
s 1
f 46/82/22 47/74/22 48/83/22 
s 8
f 47/70/27 44/84/27 43/74/27 
s 1
f 45/85/24 43/72/24 44/86/24 
s 8
f 40/70/23 38/73/23 41/87/23 
s 2
f 47/88/25 42/89/25 48/90/25 
f 47/88/25 40/72/25 42/89/25 
f 47/88/25 39/79/25 40/72/25 
f 43/77/25 39/79/25 47/88/25 
f 37/78/25 43/77/25 45/81/25 
s 4
f 42/89/26 46/91/26 48/90/26 
f 41/87/26 46/91/26 42/89/26 
f 38/73/26 46/91/26 41/87/26 
f 38/73/26 44/80/26 46/91/26 
f 37/78/26 44/80/26 38/73/26 
s 8
f 44/84/27 47/70/27 46/92/27 
# 20 faces

#
# object Prism010
#

v  -12.0986 231.8083 6.3000
v  -12.0997 231.8076 8.3000
v  -14.8939 229.7020 6.3000
v  -23.9211 241.6815 6.3000
v  -21.1269 243.7871 8.3000
v  -21.1259 243.7879 6.3000
v  -14.8348 230.1221 6.3000
v  -12.2801 232.0472 8.1286
v  -12.2792 232.0479 6.3000
v  -20.9463 243.5476 8.1286
v  -23.5010 241.6225 6.3000
v  -20.9453 243.5483 6.3000
# 12 vertices

vn 0.6018 -0.7986 -0.0000
vn -0.3963 -0.2987 0.8682
vn -0.6018 0.7986 0.0000
vn -0.0000 0.0000 -1.0000
vn 0.7986 0.6018 0.0006
vn 0.3963 0.2987 -0.8682
# 6 vertex normals

vt 1.0000 0.0000 0.0000
vt 0.9996 1.0000 0.0000
vt 0.0000 0.0000 0.0000
vt 0.5771 1.0000 0.0000
vt 1.0000 1.0000 0.0000
vt 0.0004 0.0000 0.0000
vt -0.0000 1.0000 0.0000
vt 0.0315 0.9800 0.0000
vt 0.3673 1.0000 0.0000
vt 0.0000 1.0000 0.0000
vt 0.5591 0.9800 0.0000
vt 0.3673 0.9800 0.0000
vt 0.0861 0.0857 0.0000
vt 0.0857 1.0000 0.0000
vt 0.6134 1.0000 0.0000
vt 0.9143 0.0000 0.0000
vt 0.9139 0.9143 0.0000
vt 0.5771 0.0000 0.0000
vt 0.0315 0.0200 0.0000
vt 0.3673 0.0000 0.0000
vt 0.3673 0.0200 0.0000
vt 0.5591 0.0200 0.0000
vt 0.6134 0.0000 0.0000
# 23 texture coords

g Prism010
s 1
f 49/93/28 50/94/28 51/95/28 
s 8
f 50/96/29 52/93/29 51/97/29 
s 1
f 53/98/30 54/99/30 52/97/30 
s 2
f 55/100/31 49/101/31 51/102/31 
s 4
f 56/103/32 49/101/32 57/104/32 
s 1
f 58/105/28 59/97/28 60/106/28 
s 8
f 59/93/33 56/107/33 55/97/33 
s 1
f 57/108/30 55/95/30 56/109/30 
s 8
f 52/93/29 50/96/29 53/110/29 
s 2
f 59/111/31 54/112/31 60/113/31 
f 59/111/31 52/95/31 54/112/31 
f 59/111/31 51/102/31 52/95/31 
f 55/100/31 51/102/31 59/111/31 
f 49/101/31 55/100/31 57/104/31 
s 4
f 54/112/32 58/114/32 60/113/32 
f 53/110/32 58/114/32 54/112/32 
f 50/96/32 58/114/32 53/110/32 
f 50/96/32 56/103/32 58/114/32 
f 49/101/32 56/103/32 50/96/32 
s 8
f 56/107/33 59/93/33 58/115/33 
# 20 faces

#
# object Prism011
#

v  -8.5048 234.5165 6.3000
v  -8.5058 234.5157 8.3000
v  -11.3000 232.4101 6.3000
v  -20.3272 244.3897 6.3000
v  -17.5331 246.4953 8.3000
v  -17.5320 246.4960 6.3000
v  -11.2410 232.8303 6.3000
v  -8.6863 234.7554 8.1286
v  -8.6853 234.7561 6.3000
v  -17.3524 246.2557 8.1286
v  -19.9071 244.3306 6.3000
v  -17.3515 246.2564 6.3000
# 12 vertices

vn 0.6018 -0.7986 -0.0000
vn -0.3963 -0.2987 0.8682
vn -0.6018 0.7986 0.0000
vn -0.0000 0.0000 -1.0000
vn 0.7986 0.6018 0.0006
vn 0.3963 0.2987 -0.8682
# 6 vertex normals

vt 1.0000 0.0000 0.0000
vt 0.9996 1.0000 0.0000
vt 0.0000 0.0000 0.0000
vt 0.5771 1.0000 0.0000
vt 1.0000 1.0000 0.0000
vt 0.0004 0.0000 0.0000
vt -0.0000 1.0000 0.0000
vt 0.0315 0.9800 0.0000
vt 0.3673 1.0000 0.0000
vt 0.0000 1.0000 0.0000
vt 0.5591 0.9800 0.0000
vt 0.3673 0.9800 0.0000
vt 0.0861 0.0857 0.0000
vt 0.0857 1.0000 0.0000
vt 0.6134 1.0000 0.0000
vt 0.9143 0.0000 0.0000
vt 0.9139 0.9143 0.0000
vt 0.5771 0.0000 0.0000
vt 0.0315 0.0200 0.0000
vt 0.3673 0.0000 0.0000
vt 0.3673 0.0200 0.0000
vt 0.5591 0.0200 0.0000
vt 0.6134 0.0000 0.0000
# 23 texture coords

g Prism011
s 1
f 61/116/34 62/117/34 63/118/34 
s 8
f 62/119/35 64/116/35 63/120/35 
s 1
f 65/121/36 66/122/36 64/120/36 
s 2
f 67/123/37 61/124/37 63/125/37 
s 4
f 68/126/38 61/124/38 69/127/38 
s 1
f 70/128/34 71/120/34 72/129/34 
s 8
f 71/116/39 68/130/39 67/120/39 
s 1
f 69/131/36 67/118/36 68/132/36 
s 8
f 64/116/35 62/119/35 65/133/35 
s 2
f 71/134/37 66/135/37 72/136/37 
f 71/134/37 64/118/37 66/135/37 
f 71/134/37 63/125/37 64/118/37 
f 67/123/37 63/125/37 71/134/37 
f 61/124/37 67/123/37 69/127/37 
s 4
f 66/135/38 70/137/38 72/136/38 
f 65/133/38 70/137/38 66/135/38 
f 62/119/38 70/137/38 65/133/38 
f 62/119/38 68/126/38 70/137/38 
f 61/124/38 68/126/38 62/119/38 
s 8
f 68/130/39 71/116/39 70/138/39 
# 20 faces

