# 3ds Max Wavefront OBJ Exporter v0.97b - (c)2007 guruware
# File Created: 20.01.2016 01:10:29

#
# object PivotDoor001
#

v  26.7567 5.0672 0.3000
v  26.7567 4.0672 0.3000
v  26.7567 5.0672 2.3000
v  26.7567 4.0672 2.3000
v  26.8067 4.0672 2.3000
v  26.8067 4.0672 0.3000
v  26.8067 5.0672 2.3000
v  26.8067 5.0672 0.3000
v  26.7567 3.5572 0.3000
v  26.7067 3.5572 0.3000
v  26.7567 4.0772 0.3000
v  26.7067 4.0772 0.3000
v  26.7567 3.5572 2.3000
v  26.7067 3.5572 2.3000
v  26.7567 4.0772 2.3000
v  26.7067 4.0772 2.3000
v  27.8067 3.5572 0.3000
v  27.7567 3.5572 0.3000
v  27.8067 4.0772 0.3000
v  27.7567 4.0772 0.3000
v  27.8067 3.5572 2.3000
v  27.7567 3.5572 2.3000
v  27.8067 4.0772 2.3000
v  27.7567 4.0772 2.3000
v  27.8067 3.5572 2.3500
v  26.7067 3.5572 2.3500
v  27.8067 4.0772 2.3500
v  26.7067 4.0772 2.3500
# 28 vertices

vn -1.0000 -0.0000 -0.0000
vn 1.0000 0.0000 0.0000
vn 0.0000 -1.0000 -0.0000
vn 0.0000 1.0000 0.0000
vn 0.0000 0.0000 -1.0000
vn 0.0000 -0.0000 1.0000
vn -1.0000 0.0000 0.0000
# 7 vertex normals

g PivotDoor001
s off
f 1//1 2//1 3//1 
f 4//1 3//1 2//1 
f 5//2 6//2 7//2 
f 8//2 7//2 6//2 
f 4//3 2//3 5//3 
f 6//3 5//3 2//3 
f 8//4 1//4 7//4 
f 3//4 7//4 1//4 
f 6//5 2//5 8//5 
f 1//5 8//5 2//5 
f 3//6 4//6 7//6 
f 5//6 7//6 4//6 
f 9//5 10//5 11//5 
f 12//5 11//5 10//5 
f 10//3 9//3 13//3 
f 13//3 14//3 10//3 
f 9//2 11//2 15//2 
f 15//2 13//2 9//2 
f 11//4 12//4 16//4 
f 16//4 15//4 11//4 
f 12//7 10//7 14//7 
f 14//7 16//7 12//7 
f 17//5 18//5 19//5 
f 20//5 19//5 18//5 
f 18//3 17//3 21//3 
f 21//3 22//3 18//3 
f 17//2 19//2 23//2 
f 23//2 21//2 17//2 
f 19//4 20//4 24//4 
f 24//4 23//4 19//4 
f 20//7 18//7 22//7 
f 22//7 24//7 20//7 
f 14//3 21//3 25//3 
f 25//3 26//3 14//3 
f 26//6 25//6 27//6 
f 27//6 28//6 26//6 
f 16//4 28//4 27//4 
f 27//4 23//4 16//4 
f 14//5 16//5 23//5 
f 23//5 21//5 14//5 
f 14//7 26//7 28//7 
f 28//7 16//7 14//7 
f 25//2 21//2 23//2 
f 23//2 27//2 25//2 
# 44 faces

