# 3ds Max Wavefront OBJ Exporter v0.97b - (c)2007 guruware
# File Created: 20.01.2016 00:42:37

#
# object B4L5
#

v  0.5000 0.5000 0.0000
v  64.5000 0.5000 0.0000
v  64.5000 0.5000 0.3000
v  0.5000 0.5000 0.3000
v  64.5000 62.5000 0.0000
v  64.5000 62.5000 0.3000
v  0.5000 62.5000 0.0000
v  0.5000 62.5000 0.3000
v  54.8032 46.4005 0.0000
v  9.8032 46.4005 0.0000
v  54.8032 46.4005 0.3000
v  9.8032 46.4005 0.3000
v  54.8032 16.4005 0.0000
v  54.8032 16.4005 0.3000
v  9.8032 16.4005 0.0000
v  9.8032 16.4005 0.3000
# 16 vertices

vn 0.0000 -1.0000 0.0000
vn 1.0000 0.0000 0.0000
vn 0.0000 1.0000 0.0000
vn -1.0000 0.0000 0.0000
vn 0.0000 0.0000 -1.0000
vn 0.0000 0.0000 1.0000
# 6 vertex normals

vt 0.0000 0.0000 0.0000
vt 1.0000 0.0000 0.0000
vt 1.0000 1.0000 0.0000
vt 0.0000 1.0000 0.0000
vt 0.1515 0.7403 0.0000
vt 0.8546 0.7403 0.0000
vt 0.8485 0.7403 0.0000
vt 0.1454 0.7403 0.0000
vt 0.8546 0.2565 0.0000
vt 0.1515 0.2565 0.0000
vt 0.1454 0.2565 0.0000
vt 0.8485 0.2565 0.0000
# 12 texture coords

g B4L5
s 8
f 1/1/1 2/2/1 3/3/1 4/4/1 
s 16
f 2/1/2 5/2/2 6/3/2 3/4/2 
s 32
f 5/1/3 7/2/3 8/3/3 6/4/3 
s 64
f 7/1/4 1/2/4 4/3/4 8/4/4 
s 2
f 9/5/5 10/6/5 7/3/5 5/4/5 
s 4
f 11/7/6 6/3/6 8/4/6 12/8/6 
s 1
f 12/3/1 10/2/1 9/1/1 11/4/1 
s 16
f 11/3/4 9/2/4 13/1/4 14/4/4 
s 1
f 14/3/3 13/2/3 15/1/3 16/4/3 
s 8
f 16/3/2 15/2/2 10/1/2 12/4/2 
s 2
f 7/3/5 10/6/5 15/9/5 1/2/5 
f 15/9/5 13/10/5 2/1/5 1/2/5 
f 13/10/5 9/5/5 5/4/5 2/1/5 
s 4
f 16/11/6 12/8/6 8/4/6 4/1/6 
f 3/2/6 14/12/6 16/11/6 4/1/6 
f 6/3/6 11/7/6 14/12/6 3/2/6 
# 16 polygons

#
# object Box003
#

v  -1.6968 41.4005 3.0000
v  -1.6968 46.4005 3.0000
v  7.3032 46.4005 3.0000
v  7.3032 41.4005 3.0000
v  -1.6968 41.4005 3.3000
v  7.3032 41.4005 3.3000
v  7.3032 46.4005 3.3000
v  -1.6968 46.4005 3.3000
# 8 vertices

vn 0.0000 0.0000 -1.0000
vn 0.0000 0.0000 1.0000
vn 0.0000 -1.0000 0.0000
vn 1.0000 0.0000 0.0000
vn 0.0000 1.0000 0.0000
vn -1.0000 0.0000 0.0000
# 6 vertex normals

vt 1.0000 0.0000 0.0000
vt 1.0000 1.0000 0.0000
vt 0.0000 1.0000 0.0000
vt 0.0000 0.0000 0.0000
# 4 texture coords

g Box003
s 2
f 17/13/7 18/14/7 19/15/7 20/16/7 
s 4
f 21/16/8 22/13/8 23/14/8 24/15/8 
s 8
f 17/16/9 20/13/9 22/14/9 21/15/9 
s 16
f 20/16/10 19/13/10 23/14/10 22/15/10 
s 32
f 19/16/11 18/13/11 24/14/11 23/15/11 
s 64
f 18/16/12 17/13/12 21/14/12 24/15/12 
# 6 polygons

#
# object Box001
#

v  57.3032 41.4005 3.0000
v  57.3032 46.4005 3.0000
v  66.3032 46.4005 3.0000
v  66.3032 41.4005 3.0000
v  57.3032 41.4005 3.3000
v  66.3032 41.4005 3.3000
v  66.3032 46.4005 3.3000
v  57.3032 46.4005 3.3000
# 8 vertices

vn 0.0000 0.0000 -1.0000
vn 0.0000 0.0000 1.0000
vn 0.0000 -1.0000 0.0000
vn 1.0000 0.0000 0.0000
vn 0.0000 1.0000 0.0000
vn -1.0000 0.0000 0.0000
# 6 vertex normals

vt 1.0000 0.0000 0.0000
vt 1.0000 1.0000 0.0000
vt 0.0000 1.0000 0.0000
vt 0.0000 0.0000 0.0000
# 4 texture coords

g Box001
s 2
f 25/17/13 26/18/13 27/19/13 28/20/13 
s 4
f 29/20/14 30/17/14 31/18/14 32/19/14 
s 8
f 25/20/15 28/17/15 30/18/15 29/19/15 
s 16
f 28/20/16 27/17/16 31/18/16 30/19/16 
s 32
f 27/20/17 26/17/17 32/18/17 31/19/17 
s 64
f 26/20/18 25/17/18 29/18/18 32/19/18 
# 6 polygons

#
# object Box004
#

v  25.7467 4.0672 3.0000
v  25.7467 19.0672 3.0000
v  33.7467 19.0672 3.0000
v  33.7467 4.0672 3.0000
v  25.7467 4.0672 3.3000
v  33.7467 4.0672 3.3000
v  33.7467 19.0672 3.3000
v  25.7467 19.0672 3.3000
# 8 vertices

vn 0.0000 0.0000 -1.0000
vn 0.0000 0.0000 1.0000
vn 0.0000 -1.0000 0.0000
vn 1.0000 0.0000 0.0000
vn 0.0000 1.0000 0.0000
vn -1.0000 0.0000 0.0000
# 6 vertex normals

vt 1.0000 0.0000 0.0000
vt 1.0000 1.0000 0.0000
vt 0.0000 1.0000 0.0000
vt 0.0000 0.0000 0.0000
# 4 texture coords

g Box004
s 2
f 33/21/19 34/22/19 35/23/19 36/24/19 
s 4
f 37/24/20 38/21/20 39/22/20 40/23/20 
s 8
f 33/24/21 36/21/21 38/22/21 37/23/21 
s 16
f 36/24/22 35/21/22 39/22/22 38/23/22 
s 32
f 35/24/23 34/21/23 40/22/23 39/23/23 
s 64
f 34/24/24 33/21/24 37/22/24 40/23/24 
# 6 polygons

